<svg width="38" height="43" viewBox="0 0 38 43" fill="none" xmlns="http://www.w3.org/2000/svg">
<path d="M9.75 5.30556H7.95044C5.4302 5.30556 4.16915 5.30556 3.20654 5.80208C2.35981 6.23884 1.6719 6.93524 1.24047 7.79243C0.75 8.76691 0.75 10.0435 0.75 12.5949V14.4167M9.75 5.30556H27.75M9.75 5.30556V0.75M27.75 5.30556H29.5504C32.0707 5.30556 33.329 5.30556 34.2916 5.80208C35.1384 6.23884 35.8286 6.93524 36.26 7.79243C36.75 8.76596 36.75 10.041 36.75 12.5874V14.4167M27.75 5.30556V0.75M0.75 14.4167V34.4616C0.75 37.0129 0.75 38.2879 1.24047 39.2624C1.6719 40.1196 2.35981 40.8172 3.20654 41.254C4.1682 41.75 5.42774 41.75 7.94305 41.75H29.557C32.0723 41.75 33.33 41.75 34.2916 41.254C35.1384 40.8172 35.8286 40.1196 36.26 39.2624C36.75 38.2889 36.75 37.0156 36.75 34.4693V14.4167M0.75 14.4167H36.75M27.75 32.6389H27.7545H27.7456L27.7412 32.6388L27.75 32.6389ZM18.75 32.6389H18.7545L18.7544 32.6434L18.7412 32.6388L18.75 32.6389ZM9.75 32.6389H9.7545L9.75439 32.6434L9.75 32.6433V32.6389ZM27.7544 23.5278H27.7456L27.7412 23.5277V23.5232L27.7544 23.5278ZM18.75 23.5278H18.7545L18.7544 23.5323L18.75 23.5322V23.5278ZM9.75 23.5278H9.7545H9.74561L9.75 23.5322V23.5278Z" stroke="#FF9000" stroke-width="1.5" stroke-linecap="round" stroke-linejoin="round"/>
</svg>
