<svg width="67" height="102" viewBox="0 0 67 102" fill="none" xmlns="http://www.w3.org/2000/svg">
<path d="M19.0106 20.0195C18.9155 20.0195 18.8204 19.9748 18.7599 19.8927C18.6633 19.763 18.6821 19.5799 18.8046 19.4719L27.2351 12.0559L28.888 11.0212C29.0292 10.9347 29.2094 10.9707 29.3059 11.1019C29.4025 11.233 29.3809 11.4175 29.2569 11.5241L20.0353 19.4344L19.1749 19.9719C19.1245 20.0036 19.0668 20.0195 19.0106 20.0195Z" fill="white"/>
<path d="M29.0539 11.5991C28.9242 11.5991 28.806 11.5184 28.7599 11.3931C28.708 11.2475 28.7686 11.0861 28.9026 11.0126L39.5063 5.1761C39.5351 5.16025 39.5654 5.15016 39.5971 5.14295L41.2241 4.82015C41.3696 4.78412 41.5267 4.87491 41.5786 5.0219C41.6305 5.16745 41.5685 5.3303 41.4316 5.40235L30.3192 11.3441C30.2918 11.3599 30.263 11.37 30.2313 11.3758L29.113 11.5934C29.0943 11.5977 29.0741 11.5991 29.0539 11.5991Z" fill="white"/>
<path d="M1.94966 51.9531C1.93381 51.9531 1.91797 51.9517 1.90211 51.9488C1.75224 51.9272 1.64127 51.8004 1.63694 51.6491L1.60236 50.3103C1.60091 50.2699 1.60812 50.231 1.62109 50.195L5.70088 38.9803C5.75276 38.839 5.88966 38.7526 6.0453 38.7785C6.19374 38.803 6.30326 38.9284 6.30758 39.0783L6.32632 39.7613C6.32776 39.7988 6.322 39.8363 6.30902 39.8709L2.24509 51.7413C2.20185 51.8696 2.08225 51.9531 1.94966 51.9531Z" fill="white"/>
<path d="M19.8323 19.5094C19.7141 19.5094 19.6046 19.4416 19.5513 19.3336C19.4893 19.2053 19.521 19.0526 19.6291 18.9589L28.8508 11.0486C28.8911 11.014 28.9416 10.9895 28.9949 10.9794L30.1132 10.7618C30.2443 10.7315 30.3942 10.8065 30.4547 10.9362C30.5167 11.0659 30.4807 11.2201 30.3712 11.3109L20.6019 19.3263C20.5615 19.358 20.514 19.3811 20.4635 19.3912L19.8928 19.5036C19.8727 19.5079 19.8525 19.5094 19.8323 19.5094Z" fill="white"/>
<path d="M11.5287 101.266C11.4495 101.266 11.3716 101.236 11.3111 101.179L9.8844 99.8037C9.85991 99.7793 9.83829 99.7519 9.82388 99.7202L4.19202 88.6106C4.12284 88.4752 4.16175 88.308 4.28425 88.2172C4.40962 88.1279 4.57679 88.1394 4.68776 88.2446L5.96746 89.4811C5.99196 89.5056 6.01213 89.533 6.02799 89.5632L11.8068 100.811C11.876 100.947 11.8385 101.114 11.7146 101.205C11.6599 101.246 11.5936 101.266 11.5287 101.266ZM10.3571 99.3902L10.3902 99.4233L9.08891 96.8884L10.3571 99.3902Z" fill="white"/>
<path d="M6.01343 40.0826C5.98749 40.0826 5.96154 40.0797 5.93561 40.0725C5.80014 40.0379 5.70503 39.9183 5.70071 39.7785L5.68198 39.0954C5.68053 39.0335 5.69639 38.9744 5.72953 38.9211L12.0791 28.7079C12.1699 28.5638 12.3601 28.5206 12.5056 28.6056C12.6512 28.6935 12.7002 28.8823 12.6152 29.0307L6.28436 39.9269C6.22672 40.0249 6.12294 40.0826 6.01343 40.0826Z" fill="white"/>
<path d="M5.99485 39.3995C5.95451 39.3995 5.91272 39.3909 5.87236 39.375C5.73113 39.3145 5.65475 39.1603 5.69222 39.0104L5.95594 37.9627C5.96459 37.9281 5.97899 37.8964 5.99773 37.8662L12.0835 28.7007C12.1787 28.5566 12.3703 28.5163 12.513 28.6114C12.6571 28.7036 12.7003 28.8938 12.6096 29.0394L6.26002 39.2525C6.20237 39.3462 6.10005 39.3995 5.99485 39.3995Z" fill="white"/>
<path d="M6.25836 38.3519C6.20937 38.3519 6.16036 38.3404 6.11425 38.3173C5.97302 38.2424 5.90961 38.0738 5.96725 37.9254L6.50335 36.552L12.0891 28.6922C12.1914 28.5538 12.3802 28.5192 12.5214 28.6158C12.6627 28.7124 12.6987 28.904 12.605 29.0467L6.5192 38.2122C6.45867 38.3015 6.35924 38.3519 6.25836 38.3519Z" fill="white"/>
<path d="M6.79454 36.9785C6.73978 36.9785 6.68501 36.9641 6.63602 36.9353C6.49623 36.8517 6.44291 36.6759 6.51352 36.5303L7.30614 34.8846L12.0964 28.682C12.2016 28.548 12.3961 28.5221 12.5302 28.6229C12.6671 28.7238 12.6973 28.9169 12.5993 29.0553L7.04962 36.8474C6.98908 36.9324 6.89253 36.9785 6.79454 36.9785Z" fill="white"/>
<path d="M7.58698 35.3328C7.52789 35.3328 7.4688 35.3155 7.41549 35.2824C7.28002 35.193 7.2339 35.0143 7.31173 34.8702L8.32194 33.0141L12.1092 28.6677C12.2187 28.5394 12.4118 28.525 12.543 28.6316C12.6727 28.7397 12.6943 28.9314 12.592 29.0654L7.83485 35.2118C7.77288 35.291 7.68066 35.3328 7.58698 35.3328Z" fill="white"/>
<path d="M8.59751 33.4766C8.5341 33.4766 8.46926 33.4564 8.41305 33.4161C8.28335 33.321 8.24588 33.1423 8.32946 33.0039L9.52126 31.0109C9.53711 30.9835 9.55728 30.959 9.58035 30.9388L12.1354 28.6417C12.2565 28.5321 12.4453 28.5336 12.5634 28.6518C12.6816 28.7671 12.6888 28.9544 12.5793 29.0798L8.83241 33.37C8.77188 33.4406 8.68542 33.4766 8.59751 33.4766Z" fill="white"/>
<path d="M9.78947 31.4835C9.71741 31.4835 9.64536 31.459 9.58627 31.4086C9.46667 31.3063 9.44216 31.1319 9.52719 31.0008L10.8602 28.9443C10.9063 28.8737 10.9784 28.8247 11.062 28.8074L12.284 28.5667C12.4209 28.5394 12.5607 28.6085 12.6241 28.7339C12.6875 28.8593 12.6587 29.012 12.5535 29.1057L9.99843 31.4028C9.93934 31.4562 9.86441 31.4835 9.78947 31.4835Z" fill="white"/>
<path d="M11.1224 29.427C11.0186 29.427 10.9192 29.3751 10.8601 29.2858C10.7909 29.1792 10.7924 29.0408 10.8659 28.9356L12.2825 26.9022C12.3617 26.7826 12.5116 26.7394 12.6485 26.7884C12.7825 26.8388 12.8647 26.9728 12.8503 27.1141L12.6557 28.9068C12.6399 29.0437 12.539 29.1547 12.405 29.1806L11.1829 29.4213C11.1627 29.4256 11.1426 29.427 11.1224 29.427ZM12.0966 28.2641L11.8213 28.6575L12.0591 28.6114L12.0966 28.2641Z" fill="white"/>
<path d="M12.3445 29.1865C12.3171 29.1865 12.2911 29.1836 12.2637 29.1764C12.1153 29.1361 12.0173 28.9934 12.0332 28.8407L12.2277 27.0479C12.2349 26.9917 12.2551 26.9398 12.2882 26.8937L13.7351 24.9497C13.8302 24.8243 14.0075 24.7911 14.143 24.8661C14.2799 24.9468 14.3361 25.1168 14.2727 25.2624L12.6312 28.9992C12.5793 29.1159 12.4655 29.1865 12.3445 29.1865Z" fill="white"/>
<path d="M12.3446 29.1865C12.297 29.1865 12.2495 29.1764 12.2062 29.1533C12.0564 29.0798 11.9915 28.9011 12.0578 28.7484L13.6992 25.0116C13.7107 24.9856 13.7252 24.9626 13.7424 24.9409L15.1677 23.1698C15.27 23.043 15.4516 23.0156 15.5856 23.1064C15.7211 23.1972 15.7629 23.3759 15.6851 23.5186L12.6184 29.0265C12.5607 29.1288 12.4541 29.1865 12.3446 29.1865Z" fill="white"/>
<path d="M12.3443 29.1865C12.2895 29.1865 12.2347 29.1721 12.1857 29.1433C12.0387 29.0568 11.9883 28.8695 12.0704 28.721L15.1371 23.2131C15.1487 23.1944 15.1616 23.1771 15.176 23.1598L16.5192 21.6264C16.6287 21.504 16.8131 21.4852 16.94 21.5818C17.0711 21.6784 17.1057 21.8599 17.0192 21.9983L12.6094 29.0395C12.5503 29.1347 12.448 29.1865 12.3443 29.1865Z" fill="white"/>
<path d="M12.3443 29.1866C12.2852 29.1866 12.2261 29.1708 12.1728 29.1362C12.0301 29.0425 11.9883 28.8523 12.0791 28.7082L16.4889 21.6669C16.5019 21.6467 16.5148 21.6294 16.5321 21.6136L17.7484 20.38C17.8608 20.2633 18.0424 20.2546 18.1692 20.3569C18.2932 20.4607 18.3191 20.6408 18.2283 20.7748L12.6022 29.0497C12.5417 29.1391 12.4437 29.1866 12.3443 29.1866Z" fill="white"/>
<path d="M12.3445 29.1866C12.2825 29.1866 12.2191 29.1679 12.1644 29.129C12.0246 29.031 11.99 28.8393 12.0865 28.6981L17.7126 20.4232C17.7271 20.4002 17.7458 20.38 17.7674 20.3613L18.8079 19.4692C18.9275 19.3655 19.1076 19.3698 19.2229 19.4779C19.3397 19.5845 19.357 19.7632 19.2633 19.8915L12.5967 29.0584C12.5362 29.1419 12.4411 29.1866 12.3445 29.1866Z" fill="white"/>
<path d="M12.3442 29.1864C12.2794 29.1864 12.2131 29.1662 12.1569 29.1244C12.02 29.0207 11.9912 28.8276 12.092 28.6892L18.7586 19.5224C18.7817 19.4907 18.8119 19.4618 18.8465 19.4416L19.668 18.9315C19.7948 18.8508 19.9648 18.8753 20.0643 18.9877C20.1651 19.1001 20.1723 19.2687 20.0801 19.3883L12.5921 29.0654C12.5301 29.1446 12.4379 29.1864 12.3442 29.1864Z" fill="white"/>
<path d="M12.3445 29.1864C12.2754 29.1864 12.2076 29.1634 12.15 29.1187C12.016 29.0121 11.9929 28.8175 12.0967 28.682L19.5847 19.005C19.6322 18.9459 19.6985 18.9041 19.772 18.8897L20.3427 18.7773C20.4724 18.7513 20.605 18.8104 20.6713 18.9243C20.739 19.0367 20.7289 19.1808 20.6439 19.2831L12.5852 29.0726C12.5247 29.1475 12.4353 29.1864 12.3445 29.1864Z" fill="white"/>
<path d="M5.74979 90.0187C5.67053 90.0187 5.5927 89.9884 5.53218 89.9307L4.25248 88.6943C4.21213 88.6554 4.1833 88.6064 4.16889 88.5531L0.861545 76.5515C0.824077 76.4146 0.881722 76.2719 1.00277 76.1999C1.12382 76.1264 1.27947 76.1465 1.3789 76.2431L2.47415 77.2951C2.51449 77.3326 2.54332 77.3801 2.55917 77.4335L6.05098 89.6195C6.0899 89.7564 6.03225 89.9005 5.9112 89.974C5.86076 90.0043 5.80456 90.0187 5.74979 90.0187ZM4.74822 88.3037L5.12723 88.6698L1.98129 77.6871L1.76656 77.481L4.74822 88.3037Z" fill="white"/>
<path d="M6.31637 40.3709C6.23711 40.3709 6.15928 40.3407 6.10021 40.2845L5.79757 39.9963C5.69382 39.8968 5.67075 39.7383 5.74281 39.6129L12.0736 28.7167C12.1601 28.5697 12.3445 28.5164 12.4973 28.6014C12.6457 28.685 12.7005 28.8723 12.6198 29.0222L6.59162 40.2067C6.54551 40.2917 6.46192 40.3522 6.36537 40.3666C6.34952 40.3695 6.33222 40.3709 6.31637 40.3709Z" fill="white"/>
<path d="M2.25808 77.8326C2.17882 77.8326 2.10099 77.8023 2.04192 77.7447L0.946674 76.6927C0.890464 76.6394 0.855884 76.5673 0.85156 76.4895L0.00130488 64.0513C-0.00878889 63.9216 0.0632699 63.8005 0.181444 63.7457C0.296725 63.6939 0.435084 63.7155 0.530193 63.8048L1.38621 64.632C1.43953 64.6839 1.47411 64.7545 1.47988 64.8295L2.56936 77.4925C2.58089 77.6222 2.51028 77.7461 2.39355 77.8023C2.35031 77.8225 2.3042 77.8326 2.25808 77.8326ZM1.46691 76.3266L1.87475 76.7186L0.867413 65.0009L0.680068 64.8194L1.46691 76.3266Z" fill="white"/>
<path d="M1.16854 65.1695C1.08928 65.1695 1.01002 65.1392 0.950934 65.0816L0.0949143 64.2544C0.0243022 64.1852 -0.0102881 64.0872 0.00268325 63.9892L1.63979 51.6C1.65563 51.4818 1.73489 51.3838 1.84586 51.3449C1.95971 51.3075 2.07932 51.3334 2.16723 51.4155L2.75809 51.9848C2.82727 52.051 2.86184 52.1476 2.85176 52.2427L1.47982 64.8899C1.46685 65.0095 1.38759 65.1104 1.27518 65.1507C1.24059 65.1637 1.20458 65.1695 1.16854 65.1695ZM0.642536 63.9143L0.926435 64.1881L2.21335 52.3278L2.17876 52.2946L0.642536 63.9143Z" fill="white"/>
<path d="M2.54072 52.5224C2.46146 52.5224 2.3822 52.4922 2.32311 52.4345L1.73226 51.8653C1.64579 51.7817 1.61408 51.6535 1.65444 51.5396L5.71837 39.6692C5.75296 39.5683 5.83655 39.4919 5.93886 39.466C6.04838 39.4429 6.15358 39.4703 6.22996 39.5438L6.5326 39.832C6.61763 39.9141 6.65078 40.0381 6.61474 40.1505L2.83903 52.3019C2.80733 52.4057 2.72374 52.4849 2.61854 52.5123C2.5926 52.5195 2.56665 52.5224 2.54072 52.5224ZM2.31014 51.554L2.39228 51.6333L3.47024 48.1659L2.31014 51.554Z" fill="white"/>
<path d="M12.3443 29.1865C12.2722 29.1865 12.2002 29.162 12.1411 29.1116C12.0114 29.0006 11.9941 28.8075 12.1036 28.6749L20.1623 18.8855C20.2171 18.8177 20.2992 18.7774 20.3857 18.7716C20.4722 18.7673 20.5586 18.799 20.622 18.861L20.9204 19.1521C21.0385 19.2674 21.0457 19.4576 20.9362 19.5816L12.5792 29.0799C12.5172 29.1505 12.4308 29.1865 12.3443 29.1865Z" fill="white"/>
<path d="M79.6672 3.31276C79.6557 3.31276 79.6442 3.31132 79.6312 3.31132L67.0388 1.86589C66.9711 1.85724 66.9076 1.82697 66.8572 1.77942L65.5732 0.540086C65.4781 0.447855 65.4507 0.30372 65.5069 0.182668C65.5631 0.0630632 65.6741 -0.0176257 65.8239 0.00399326L78.2737 1.31396C78.3429 1.32116 78.4077 1.35144 78.4581 1.40043L79.8848 2.77525C79.9814 2.86748 80.0073 3.01158 79.9497 3.13406C79.8978 3.24359 79.7869 3.31276 79.6672 3.31276ZM67.216 1.25632L78.7853 2.58356L78.1008 1.92497L66.6612 0.721644L67.216 1.25632Z" fill="white"/>
<path d="M20.7014 19.6881C20.6222 19.6881 20.5429 19.6578 20.4824 19.5987L20.1841 19.3076C20.1206 19.2457 20.0875 19.1592 20.0904 19.0713C20.0947 18.9819 20.1365 18.8983 20.2042 18.8422L29.9735 10.8267C30.0974 10.7258 30.2747 10.7316 30.39 10.844L30.9809 11.4132C31.0457 11.4766 31.0803 11.5645 31.076 11.6553C31.0702 11.7461 31.0255 11.8297 30.9535 11.8859L20.8916 19.6232C20.8354 19.6665 20.7677 19.6881 20.7014 19.6881ZM30.1551 11.4867L25.8058 15.0549L30.2848 11.6121L30.1551 11.4867Z" fill="white"/>
<path d="M54.4049 2.8603C54.3242 2.8603 54.2464 2.8286 54.1887 2.77239L53.0978 1.72326C53.0099 1.63968 52.9782 1.51143 53.0185 1.39613C53.0589 1.2794 53.1627 1.19869 53.2851 1.18717L65.7623 0.00401714C65.8415 -0.013278 65.9424 0.0270731 66.0087 0.0904838L67.2927 1.32984C67.3806 1.41487 67.4109 1.54455 67.3691 1.65983C67.3273 1.77656 67.2221 1.85726 67.0996 1.86591L54.4294 2.85883C54.4207 2.86028 54.4135 2.8603 54.4049 2.8603ZM54.0215 1.74488L54.5202 2.22479L66.3589 1.29669L65.6772 0.639547L54.0215 1.74488Z" fill="white"/>
<path d="M42.1454 6.26847C42.0661 6.26847 41.9869 6.23821 41.9292 6.18056L41.0689 5.35193C40.9882 5.27554 40.955 5.1617 40.981 5.05362C41.0069 4.94554 41.089 4.86051 41.1942 4.82736L53.2232 1.19867C53.3356 1.16985 53.4494 1.19435 53.5302 1.2736L54.6211 2.32273C54.7032 2.40055 54.7349 2.51585 54.7075 2.62393C54.6802 2.73345 54.5966 2.81846 54.4885 2.84872L42.229 6.25694C42.2016 6.26414 42.1728 6.26847 42.1454 6.26847ZM41.886 5.27269L42.2333 5.607L53.7939 2.39335L53.229 1.85005L41.886 5.27269Z" fill="white"/>
<path d="M30.7632 11.9508C30.684 11.9508 30.6062 11.9205 30.5456 11.8629L29.9548 11.2936C29.8842 11.2245 29.8496 11.125 29.8625 11.0256C29.877 10.9262 29.9375 10.8397 30.0254 10.7936L41.1378 4.85187C41.256 4.78558 41.4044 4.80863 41.501 4.90231L42.3613 5.73092C42.4348 5.80154 42.4694 5.90242 42.4535 6.00329C42.4391 6.10273 42.3757 6.19065 42.2849 6.23534L30.903 11.9176C30.8584 11.9393 30.8108 11.9508 30.7632 11.9508ZM30.6984 11.1423L30.8209 11.259L41.609 5.87362L41.2315 5.51046L30.6984 11.1423Z" fill="white"/>
<path d="M6.31629 40.3709C6.21829 40.3709 6.12463 40.3248 6.06409 40.2441C5.99348 40.1461 5.98338 40.0164 6.04104 39.9097L12.0692 28.7253C12.1499 28.5725 12.3416 28.5192 12.4871 28.5956C12.6399 28.6734 12.7004 28.8593 12.6255 29.0121L7.17087 40.0841C7.12763 40.172 7.04548 40.234 6.95038 40.2527L6.37681 40.3651C6.35664 40.3695 6.33647 40.3709 6.31629 40.3709Z" fill="white"/>
<path d="M12.3443 29.1865C12.2694 29.1865 12.193 29.1591 12.1339 29.1043C12.0071 28.9891 11.997 28.7945 12.1094 28.6677L20.4664 19.1693C20.5515 19.0713 20.6869 19.0353 20.808 19.0814C20.9276 19.1247 21.0097 19.2385 21.014 19.3668L21.0342 20.0484C21.0371 20.1305 21.0054 20.2112 20.9478 20.2718L12.5706 29.0885C12.51 29.1533 12.4265 29.1865 12.3443 29.1865Z" fill="white"/>
<path d="M6.88962 40.2585C6.81468 40.2585 6.7383 40.2311 6.68066 40.1778C6.5769 40.0841 6.54808 39.9328 6.6086 39.8074L12.0632 28.7353C12.1381 28.5826 12.3197 28.5221 12.4768 28.5898C12.6296 28.6618 12.6987 28.8434 12.631 28.9991L7.99495 39.5595C7.96901 39.6172 7.92721 39.6662 7.8739 39.6993L7.05535 40.2109C7.00491 40.2426 6.94726 40.2585 6.88962 40.2585Z" fill="white"/>
<path d="M2.54055 52.5225C2.45264 52.5225 2.36761 52.485 2.30853 52.4187C2.23504 52.3366 2.20909 52.2228 2.24224 52.1176L6.01795 39.9661C6.05109 39.8551 6.14333 39.773 6.25573 39.7514L6.82929 39.639C6.93162 39.6145 7.04402 39.6548 7.11896 39.7326C7.19244 39.8119 7.21984 39.9229 7.19245 40.0266L3.96725 52.07C3.93555 52.1853 3.84187 52.2732 3.72514 52.2962L2.60107 52.5167C2.5809 52.5211 2.56073 52.5225 2.54055 52.5225ZM5.86519 42.5644L2.9945 51.8019L3.41242 51.7198L5.86519 42.5644Z" fill="white"/>
<path d="M12.3444 29.1865C12.2652 29.1865 12.1844 29.1562 12.1239 29.0957C12.0029 28.9761 12.0014 28.7815 12.1182 28.659L20.4953 19.8423C20.5933 19.7371 20.749 19.7155 20.8729 19.7832C20.9968 19.8524 21.0588 19.9951 21.0242 20.1334L20.7605 21.1811C20.7461 21.2387 20.7158 21.2892 20.674 21.3309L12.5606 29.1C12.5001 29.1576 12.4222 29.1865 12.3444 29.1865Z" fill="white"/>
<path d="M20.7215 20.3699C20.6739 20.3699 20.6263 20.3583 20.5817 20.3367C20.4779 20.2848 20.4131 20.1811 20.4087 20.0658L20.3886 19.3842C20.3857 19.2847 20.4318 19.1882 20.511 19.1276L30.5729 11.3903C30.6651 11.3168 30.7905 11.3053 30.8971 11.3557C31.0038 11.4062 31.0715 11.5114 31.0758 11.6296L31.1147 12.9654C31.1176 13.0706 31.0672 13.1701 30.9822 13.2292L20.9016 20.3137C20.8483 20.3511 20.7849 20.3699 20.7215 20.3699ZM30.4691 12.2593L21.9176 18.8351L30.485 12.8156L30.4691 12.2593Z" fill="white"/>
<path d="M7.70822 39.7469C7.64337 39.7469 7.57708 39.7267 7.52232 39.6849C7.40559 39.5985 7.3638 39.4428 7.42144 39.3088L12.0575 28.7483C12.1267 28.5941 12.3068 28.5178 12.461 28.584C12.6181 28.6475 12.6959 28.8247 12.6368 28.9832L9.03693 38.6545C9.01819 38.7035 8.98794 38.7482 8.94758 38.7828L7.91142 39.672C7.85378 39.7209 7.78028 39.7469 7.70822 39.7469Z" fill="white"/>
<path d="M1.16862 65.1696C1.0908 65.1696 1.01584 65.1408 0.956772 65.0875C0.884714 65.0198 0.847241 64.9218 0.857335 64.8238L2.22927 52.1766C2.24512 52.0397 2.346 51.9287 2.48003 51.9028L3.60409 51.6823C3.69777 51.6621 3.79865 51.6895 3.87214 51.7544C3.9442 51.8192 3.98311 51.9143 3.9759 52.0109L3.11123 64.5586C3.10258 64.6998 2.99883 64.8166 2.86048 64.844L1.22914 65.1639C1.20897 65.1682 1.1888 65.1696 1.16862 65.1696ZM2.82589 52.472L1.52457 64.4678L2.50452 64.2762L3.32452 52.374L2.82589 52.472Z" fill="white"/>
<path d="M12.3444 29.1866C12.2594 29.1866 12.1729 29.152 12.1124 29.0828C11.9986 28.9575 12.0058 28.7644 12.1283 28.6476L20.2417 20.8786C20.3498 20.7777 20.5098 20.7633 20.6323 20.8454C20.7533 20.9262 20.8023 21.0818 20.749 21.2187L20.2115 22.5935C20.1927 22.6425 20.1625 22.6843 20.1221 22.7189L12.5462 29.1131C12.4871 29.1621 12.4165 29.1866 12.3444 29.1866Z" fill="white"/>
<path d="M2.25799 77.8327C2.19026 77.8327 2.12396 77.8111 2.07065 77.7693C1.99859 77.716 1.95391 77.6353 1.94671 77.5474L0.857231 64.8843C0.842813 64.7244 0.952342 64.5803 1.10798 64.55L2.73932 64.2301C2.8229 64.2113 2.91226 64.2329 2.98287 64.2834C3.05348 64.3353 3.09959 64.4131 3.10969 64.4996L4.63871 77.0747C4.65888 77.2375 4.54936 77.3874 4.38939 77.4191L2.31852 77.8269C2.29834 77.8313 2.27818 77.8327 2.25799 77.8327ZM1.50429 65.1091L2.53901 77.1453L3.983 76.8614L2.53036 64.9088L1.50429 65.1091Z" fill="white"/>
<path d="M19.3623 111.134C19.2687 111.134 19.1779 111.091 19.1173 111.016L11.2835 101.148C11.2157 101.063 11.197 100.948 11.2345 100.846C11.2734 100.743 11.3613 100.668 11.4679 100.647L14.1787 100.112C14.2911 100.085 14.4092 100.132 14.4813 100.222L22.4823 110.059C22.5515 110.144 22.5717 110.259 22.5342 110.363C22.4967 110.465 22.4088 110.542 22.3008 110.563L19.4229 111.128C19.4027 111.132 19.3825 111.134 19.3623 111.134ZM12.0919 101.161L19.4891 110.478L21.6695 110.05L14.1152 100.762L12.0919 101.161Z" fill="white"/>
<path d="M8.74441 38.8577C8.68677 38.8577 8.62769 38.8418 8.5758 38.8087C8.45187 38.7294 8.39998 38.5738 8.45187 38.4354L12.0518 28.7641C12.1094 28.607 12.2823 28.5162 12.4409 28.5768C12.6008 28.6287 12.6902 28.7973 12.6455 28.9587L10.2633 37.3935C10.2489 37.4439 10.2215 37.49 10.1855 37.5275L8.96778 38.764C8.90725 38.8259 8.82656 38.8577 8.74441 38.8577ZM9.94918 36.206L9.54711 37.284L9.68258 37.1456L9.94918 36.206Z" fill="white"/>
<path d="M11.5287 101.267C11.4134 101.267 11.3053 101.202 11.2505 101.097L5.47168 89.8488C5.42701 89.7624 5.42556 89.6586 5.4688 89.5692C5.51059 89.4813 5.59274 89.4179 5.68929 89.3992L8.13197 88.9193C8.26167 88.8905 8.40146 88.9568 8.46775 89.0778L14.5147 100.271C14.5622 100.359 14.5651 100.463 14.5219 100.552C14.4801 100.643 14.3979 100.706 14.2999 100.726L11.5892 101.261C11.569 101.265 11.5489 101.267 11.5287 101.267ZM6.21818 89.9324L11.6987 100.602L13.7624 100.195L8.02677 89.5779L6.21818 89.9324Z" fill="white"/>
<path d="M5.74996 90.0187C5.61306 90.0187 5.48912 89.9279 5.44877 89.7925L1.95696 77.6064C1.93391 77.5214 1.94543 77.4321 1.99155 77.3571C2.03766 77.2822 2.1126 77.2303 2.19763 77.213L4.2685 76.8052C4.4227 76.772 4.57979 76.8671 4.62734 77.017L8.49096 89.131C8.5169 89.216 8.5068 89.3082 8.46213 89.3846C8.41602 89.4624 8.34108 89.5158 8.25317 89.5331L5.81049 90.013C5.79032 90.0173 5.77015 90.0187 5.74996 90.0187ZM2.65302 77.7606L5.97189 89.3443L7.78769 88.9869L4.11574 77.4724L2.65302 77.7606Z" fill="white"/>
<path d="M30.8024 13.2867C30.7448 13.2867 30.6871 13.2708 30.6367 13.2391C30.5473 13.1829 30.4926 13.0878 30.4897 12.9826L30.4508 11.6467C30.4479 11.5256 30.5156 11.4132 30.6237 11.3585L42.0056 5.67617C42.1022 5.62861 42.2131 5.63006 42.3068 5.6877C42.3976 5.74246 42.4552 5.84047 42.4581 5.9471L42.5114 7.89116C42.5143 8.01798 42.4408 8.13326 42.3255 8.18514L30.9292 13.2593C30.8889 13.278 30.8456 13.2867 30.8024 13.2867ZM31.082 11.8283L31.1007 12.4984L41.8802 7.69949L41.8456 6.45437L31.082 11.8283Z" fill="white"/>
<path d="M12.3442 29.1865C12.2505 29.1865 12.1583 29.1447 12.0963 29.064C11.994 28.9314 12.0142 28.7426 12.1424 28.6345L19.7184 22.2403C19.8293 22.1452 19.995 22.1423 20.1118 22.2317C20.2285 22.3225 20.266 22.481 20.2026 22.615L19.4157 24.2579C19.3927 24.3055 19.3566 24.3472 19.312 24.3789L12.5229 29.1303C12.4696 29.1678 12.4062 29.1865 12.3442 29.1865ZM19.0093 23.6569L17.8291 24.6542L18.8868 23.9135L19.0093 23.6569Z" fill="white"/>
<path d="M3.66455 52.3019C3.5997 52.3019 3.53341 52.2817 3.47865 52.2399C3.37489 52.1636 3.32878 52.0324 3.36192 51.9085L6.58713 39.8651C6.60874 39.7887 6.65631 39.7224 6.72403 39.6807L7.54258 39.1691C7.64778 39.1013 7.78468 39.1056 7.88701 39.1777C7.99076 39.2498 8.03977 39.3766 8.01383 39.4991L5.57691 51.0496C5.55961 51.1317 5.50918 51.2052 5.43712 51.2499L3.83028 52.2543C3.77984 52.286 3.72219 52.3019 3.66455 52.3019ZM7.15925 40.1461L4.17182 51.3032L4.99326 50.7902L7.25004 40.0885L7.15925 40.1461Z" fill="white"/>
<path d="M9.96235 37.6213C9.91191 37.6213 9.86003 37.6083 9.81392 37.5838C9.68422 37.5132 9.62226 37.3648 9.66116 37.2235L12.0433 28.7887C12.088 28.6302 12.2393 28.538 12.4108 28.5682C12.5722 28.6028 12.6788 28.757 12.6543 28.9199L11.6139 35.8213C11.6038 35.8804 11.5793 35.9366 11.5389 35.9813L10.1973 37.5146C10.1367 37.5838 10.0503 37.6213 9.96235 37.6213ZM11.2939 33.7418L10.6397 36.0591L11.0086 35.6383L11.2939 33.7418Z" fill="white"/>
<path d="M12.3445 29.1864C12.2378 29.1864 12.1341 29.1317 12.0764 29.0337C11.9914 28.8924 12.0303 28.7108 12.1658 28.6172L18.9548 23.8658C19.0716 23.7837 19.2344 23.7938 19.3425 23.8889C19.4506 23.9869 19.478 24.1454 19.4073 24.2722L18.3914 26.1284C18.3611 26.1846 18.315 26.2292 18.2573 26.2581L12.4843 29.1533C12.4396 29.1763 12.392 29.1864 12.3445 29.1864ZM18.217 25.1456L16.0308 26.6746L17.8899 25.7422L18.217 25.1456Z" fill="white"/>
<path d="M42.1983 8.21244C42.1306 8.21244 42.0629 8.1894 42.0081 8.14759C41.9332 8.08995 41.8885 8.00204 41.8856 7.90836L41.8323 5.96431C41.828 5.82019 41.9231 5.69338 42.0614 5.65447L54.321 2.24624C54.4132 2.21887 54.5126 2.23904 54.5905 2.29524C54.6683 2.35288 54.7144 2.44223 54.7173 2.53879L54.785 5.01317C54.7893 5.16161 54.6885 5.29275 54.5443 5.32589L42.2704 8.20379C42.2459 8.20956 42.2228 8.21244 42.1983 8.21244ZM42.4649 6.192L42.501 7.50774L54.1524 4.77539L54.1034 2.95527L42.4649 6.192Z" fill="white"/>
<path d="M20.4576 21.4175C20.3928 21.4175 20.3279 21.3974 20.2731 21.357C20.1708 21.2821 20.1233 21.1523 20.155 21.0284L20.4187 19.9807C20.436 19.9087 20.4807 19.8438 20.5412 19.8006L30.6218 12.719C30.7298 12.6426 30.8711 12.644 30.9792 12.7161C31.0872 12.791 31.1377 12.9236 31.1045 13.0504L30.5872 15.104C30.5684 15.1833 30.518 15.251 30.4488 15.2942L20.6219 21.3714C20.5715 21.4017 20.5138 21.4175 20.4576 21.4175ZM20.9966 20.2459L20.949 20.4332L30.0122 14.8287L30.2932 13.7133L20.9966 20.2459Z" fill="white"/>
<path d="M11.3037 36.088C11.2619 36.088 11.2187 36.0793 11.1783 36.062C11.0486 36.0044 10.9737 35.8689 10.9939 35.7291L12.0343 28.8276C12.0588 28.6691 12.1626 28.5365 12.3557 28.561C12.5142 28.5668 12.6439 28.6922 12.6555 28.8507L13.0402 33.9811C13.046 34.0603 13.0229 34.1381 12.9725 34.2001L11.5472 35.9712C11.4867 36.0462 11.3959 36.088 11.3037 36.088ZM12.2404 31.6623L11.785 34.6786L12.4076 33.9047L12.2404 31.6623Z" fill="white"/>
<path d="M12.3445 29.1865C12.2133 29.1865 12.0923 29.1029 12.049 28.9747C11.9986 28.8277 12.0649 28.6648 12.2047 28.5942L17.9778 25.6991C18.1017 25.6371 18.2516 25.663 18.3467 25.7653C18.4418 25.8677 18.4577 26.0204 18.3856 26.1386L17.1938 28.1316C17.1491 28.208 17.0727 28.2613 16.9863 28.2786L12.405 29.1808C12.3848 29.1851 12.3647 29.1865 12.3445 29.1865ZM17.299 26.7395L14.5393 28.123L16.7283 27.6921L17.299 26.7395Z" fill="white"/>
<path d="M54.4722 5.33473C54.393 5.33473 54.3166 5.30446 54.259 5.25114C54.1984 5.1935 54.1624 5.11424 54.1595 5.03065L54.0918 2.55627C54.0875 2.3891 54.2143 2.24931 54.38 2.23634L67.0502 1.24341C67.1353 1.229 67.2203 1.26503 67.2837 1.32268C67.3471 1.38032 67.3846 1.46102 67.3875 1.54605L67.4653 4.45133C67.4696 4.62137 67.337 4.76405 67.167 4.77269L54.4866 5.33473H54.4722ZM54.7244 2.83584L54.7763 4.69632L66.8312 4.16166L66.7707 1.89191L54.7244 2.83584Z" fill="white"/>
<path d="M79.7552 6.54381C79.7408 6.54381 79.7264 6.54236 79.7119 6.54093L67.1094 4.76981C66.9581 4.74819 66.8443 4.62136 66.8399 4.46861L66.7621 1.56333C66.7592 1.47255 66.7967 1.38464 66.863 1.32411C66.9307 1.26215 67.0071 1.24341 67.1109 1.24341L79.7033 2.68884C79.8575 2.70758 79.9757 2.83583 79.98 2.99148L80.0679 6.22245C80.0708 6.31468 80.0319 6.40257 79.9641 6.46453C79.9065 6.51642 79.8316 6.54381 79.7552 6.54381ZM67.4582 4.1876L79.4324 5.86937L79.3617 3.2797L67.3976 1.90634L67.4582 4.1876Z" fill="white"/>
<path d="M12.7293 34.3169C12.7004 34.3169 12.6702 34.3126 12.6414 34.3039C12.5174 34.2679 12.4266 34.1569 12.418 34.0272L12.0332 28.8969C12.0217 28.7513 12.1125 28.6173 12.2523 28.5755C12.3949 28.5294 12.5448 28.5914 12.6154 28.7182L14.4471 31.9102C14.509 32.0183 14.5018 32.1523 14.4269 32.2532L12.98 34.1915C12.9195 34.2722 12.8258 34.3169 12.7293 34.3169ZM12.7595 30.2256L12.9786 33.1482L13.8029 32.0428L12.7595 30.2256Z" fill="white"/>
<path d="M15.5969 30.3394C15.5623 30.3394 15.5263 30.3337 15.4932 30.3207L12.2406 29.1678C12.1065 29.1217 12.023 28.992 12.033 28.8508C12.0431 28.711 12.1455 28.5943 12.2838 28.5669L16.8651 27.6647C16.9876 27.6359 17.1144 27.6921 17.185 27.7959C17.2542 27.8996 17.2556 28.0366 17.1879 28.1418L15.8592 30.1968C15.8001 30.2876 15.7007 30.3394 15.5969 30.3394ZM13.5232 28.9603L15.4687 29.6492L16.2627 28.4213L13.5232 28.9603Z" fill="white"/>
<path d="M14.1761 32.3786H14.1617C14.055 32.3728 13.9585 32.3137 13.9051 32.2215L12.0735 29.0294C12.0086 28.9156 12.0202 28.7743 12.1038 28.6735C12.1888 28.5755 12.33 28.5337 12.4482 28.5798L15.7008 29.7327C15.793 29.7644 15.8651 29.8379 15.8953 29.9316C15.9241 30.0238 15.9097 30.1247 15.8535 30.2054L14.4326 32.2445C14.3735 32.3281 14.2784 32.3786 14.1761 32.3786ZM13.0362 29.4502L14.202 31.4822L15.1056 30.1838L13.0362 29.4502Z" fill="white"/>
<path d="M2.79993 64.8498C2.74372 64.8498 2.68896 64.8354 2.63852 64.8051C2.53764 64.7446 2.48 64.6322 2.48865 64.5154L3.35331 51.9677C3.35908 51.8683 3.41385 51.7775 3.49886 51.7241L5.1057 50.7197C5.20226 50.6577 5.32476 50.6548 5.42419 50.7125C5.52362 50.7687 5.5856 50.8739 5.58415 50.9877L5.44725 63.0815C5.4458 63.1882 5.39104 63.2876 5.30025 63.3438L2.96565 64.8022C2.91521 64.8339 2.85757 64.8498 2.79993 64.8498ZM3.96578 52.1694L3.15444 63.9476L4.82325 62.9043L4.95294 51.5527L3.96578 52.1694Z" fill="white"/>
<path d="M5.27148 51.2974C5.21672 51.2974 5.16195 51.283 5.11152 51.2542C4.99623 51.185 4.93857 51.051 4.96596 50.9199L7.40288 39.3693C7.4173 39.3031 7.45332 39.2411 7.5052 39.1964L8.54136 38.3073C8.63791 38.2251 8.7777 38.2092 8.89443 38.2698C9.00828 38.3317 9.07169 38.4586 9.05439 38.5868L7.61761 49.2784C7.60751 49.3548 7.57005 49.424 7.51096 49.4744L5.47468 51.2225C5.41703 51.2715 5.34498 51.2974 5.27148 51.2974ZM7.9923 39.6028L5.76722 50.146L7.01378 49.0767L8.32519 39.316L7.9923 39.6028Z" fill="white"/>
<path d="M19.9204 22.7922C19.844 22.7922 19.7691 22.7648 19.71 22.7115C19.6149 22.6236 19.5818 22.4867 19.6293 22.3656L20.1668 20.9908C20.1913 20.9274 20.236 20.8741 20.2937 20.838L30.1206 14.7609C30.2359 14.6931 30.3829 14.7018 30.4852 14.7868C30.589 14.8733 30.625 15.0159 30.576 15.1413L29.5211 17.8376C29.4937 17.9082 29.4404 17.9673 29.3727 18.0019L20.0631 22.7576C20.017 22.7807 19.9694 22.7922 19.9204 22.7922ZM20.7116 21.3151L20.5113 21.8266L28.9821 17.499L29.6522 15.7869L20.7116 21.3151Z" fill="white"/>
<path d="M30.2847 15.3403C30.2083 15.3403 30.1348 15.3129 30.0757 15.2611C29.9893 15.1832 29.9532 15.0636 29.9821 14.9512L30.4994 12.8976C30.5225 12.804 30.5873 12.7276 30.6752 12.6887L42.0715 7.61452C42.1782 7.56408 42.3079 7.58282 42.4001 7.66063C42.4909 7.73845 42.5313 7.86094 42.501 7.97624L41.7473 10.9593C41.7228 11.0588 41.6493 11.1409 41.5542 11.1755L30.3942 15.3201C30.3582 15.3331 30.3207 15.3403 30.2847 15.3403ZM31.0687 13.1974L30.7329 14.5275L41.1824 10.6466L41.7372 8.4475L31.0687 13.1974Z" fill="white"/>
<path d="M4.32876 77.4248C4.28265 77.4248 4.23654 77.4147 4.1933 77.3945C4.09819 77.3484 4.03188 77.2562 4.01892 77.1496L2.48991 64.5744C2.47406 64.4548 2.53169 64.3366 2.63402 64.2718L4.96862 62.8134C5.05797 62.7586 5.16893 62.7514 5.26116 62.7932C5.35627 62.835 5.424 62.9215 5.44274 63.0238L7.61161 75.1997C7.63323 75.3251 7.57702 75.4519 7.46894 75.5197L4.49449 77.3773C4.44405 77.409 4.3864 77.4248 4.32876 77.4248ZM3.13408 64.6969L4.57952 76.5861L6.95879 75.1017L4.90809 63.5887L3.13408 64.6969Z" fill="white"/>
<path d="M7.30771 49.5494C7.26159 49.5494 7.21403 49.5393 7.1708 49.5177C7.04975 49.4587 6.98057 49.329 6.99787 49.1949L8.43466 38.5033C8.4433 38.437 8.47358 38.3736 8.52112 38.3261L9.73886 37.0896C9.82965 36.9974 9.96799 36.9714 10.0847 37.0204C10.2029 37.0709 10.2778 37.189 10.275 37.3173L10.004 46.8229C10.0011 46.9021 9.96944 46.9771 9.91468 47.0333L7.53108 49.4558C7.47055 49.5177 7.38986 49.5494 7.30771 49.5494ZM9.03992 38.6907L7.74292 48.349L9.38291 46.6831L9.62646 38.0941L9.03992 38.6907Z" fill="white"/>
<path d="M19.1335 24.435C19.047 24.435 18.9634 24.399 18.9029 24.3327C18.8164 24.239 18.7962 24.1021 18.851 23.9868L19.6379 22.3439C19.6681 22.282 19.7171 22.2315 19.7776 22.2013L29.0872 17.4456C29.2083 17.3865 29.3524 17.4052 29.4475 17.5004C29.544 17.594 29.57 17.7381 29.5123 17.8592L27.9646 21.0887C27.9286 21.1622 27.8666 21.2184 27.7902 21.2458L19.2415 24.4148C19.207 24.4292 19.1695 24.435 19.1335 24.435ZM20.1567 22.71L19.7488 23.5602L27.4544 20.7039L28.5482 18.4227L20.1567 22.71Z" fill="white"/>
<path d="M8.19259 89.5389C8.15656 89.5389 8.11909 89.5331 8.0845 89.5202C7.99372 89.487 7.92454 89.4135 7.89428 89.3213L4.03066 77.2073C3.98742 77.0704 4.04219 76.9234 4.16324 76.847L7.13769 74.9894C7.2184 74.939 7.31496 74.9289 7.4043 74.9592C7.49364 74.9894 7.56427 75.0572 7.59597 75.1451L11.9784 86.9377C12.0303 87.0775 11.9769 87.2346 11.8516 87.3124L8.35831 89.4913C8.30787 89.523 8.25023 89.5389 8.19259 89.5389ZM4.70077 77.2491L8.3684 88.7477L11.3039 86.9175L7.14346 75.723L4.70077 77.2491Z" fill="white"/>
<path d="M41.4448 11.1956C41.3583 11.1956 41.2747 11.1596 41.2157 11.0947C41.1436 11.0169 41.1162 10.9088 41.1422 10.8065L41.8959 7.82337C41.9247 7.70952 42.014 7.62162 42.1264 7.59568L54.4004 4.71778C54.5114 4.69041 54.618 4.72498 54.6958 4.80281C54.7722 4.88062 54.8025 4.99303 54.7751 5.09823L53.8182 8.89844C53.7879 9.01805 53.6899 9.10887 53.5689 9.13049L41.4981 11.1913C41.4794 11.1941 41.4621 11.1956 41.4448 11.1956ZM42.455 8.16059L41.8656 10.4937L53.2619 8.54823L54.0444 5.44408L42.455 8.16059Z" fill="white"/>
<path d="M22.2405 110.569C22.1497 110.569 22.0589 110.529 21.9984 110.454L13.9974 100.617C13.9397 100.548 13.9166 100.457 13.9311 100.368C13.9455 100.28 13.9973 100.202 14.0737 100.154L17.9561 97.7317C18.0872 97.6496 18.2601 97.6741 18.3596 97.7937L26.5999 107.482C26.659 107.553 26.6849 107.644 26.6705 107.733C26.6575 107.824 26.6042 107.903 26.5278 107.951L22.4062 110.522C22.3543 110.553 22.2981 110.569 22.2405 110.569ZM14.7049 100.497L22.3097 109.846L25.8894 107.612L18.0584 98.4047L14.7049 100.497Z" fill="white"/>
<path d="M14.2394 100.732C14.2121 100.732 14.1861 100.729 14.1587 100.722C14.0766 100.699 14.006 100.644 13.9642 100.568L7.91729 89.3744C7.83947 89.2289 7.88702 89.0487 8.02681 88.9608L11.5201 86.7819C11.5921 86.7357 11.6786 86.7242 11.7607 86.7429C11.8429 86.7631 11.912 86.8164 11.9553 86.8885L18.3913 97.8381C18.4777 97.9836 18.4316 98.1724 18.2875 98.2617L14.4052 100.684C14.3547 100.716 14.2971 100.732 14.2394 100.732ZM8.60758 89.3355L14.3562 99.9781L17.6981 97.8928L11.5791 87.4822L8.60758 89.3355Z" fill="white"/>
<path d="M5.13464 63.3913C5.08997 63.3913 5.04528 63.3812 5.00206 63.3625C4.89109 63.3106 4.82048 63.1982 4.82192 63.0757L4.95883 50.9819C4.96027 50.8911 4.99917 50.8061 5.06835 50.747L7.10464 48.999C7.19543 48.9226 7.31792 48.9053 7.42889 48.9485C7.53697 48.9946 7.6119 49.097 7.61912 49.2151L8.40164 60.5249C8.40884 60.6229 8.36849 60.7195 8.29356 60.7843L5.33784 63.3164C5.2802 63.3654 5.20815 63.3913 5.13464 63.3913ZM5.58283 51.1304L5.45457 62.3926L7.76755 60.4111L7.03835 49.8795L5.58283 51.1304Z" fill="white"/>
<path d="M9.69158 47.1268C9.65267 47.1268 9.61377 47.1196 9.57773 47.1052C9.45524 47.0562 9.37598 46.9366 9.37886 46.8054L9.64979 37.2999C9.65267 37.2264 9.68006 37.1572 9.72761 37.1024L11.0693 35.5691C11.15 35.4754 11.2725 35.4394 11.395 35.4754C11.5131 35.5114 11.5982 35.6138 11.614 35.7363L12.6401 43.769C12.6516 43.8569 12.6242 43.9463 12.5652 44.014L9.92648 47.0202C9.86595 47.0894 9.77949 47.1268 9.69158 47.1268ZM10.2723 37.4296L10.0288 45.9566L12.0017 43.707L11.0823 36.5044L10.2723 37.4296Z" fill="white"/>
<path d="M18.1173 26.2914C18.0179 26.2914 17.9227 26.2438 17.8637 26.1617C17.793 26.0637 17.7858 25.934 17.8435 25.8288L18.8595 23.9726C18.8955 23.9064 18.9546 23.8559 19.0252 23.83L27.5739 20.661C27.6935 20.6105 27.8333 20.6494 27.9183 20.7489C28.0033 20.8469 28.0192 20.9881 27.9558 21.1034L25.9714 24.7408C25.9267 24.8229 25.846 24.882 25.7537 24.8978L18.1735 26.2856C18.1548 26.2899 18.136 26.2914 18.1173 26.2914ZM19.3509 24.3747L18.7067 25.5535L25.4943 24.3099L27.0075 21.5372L19.3509 24.3747Z" fill="white"/>
<path d="M29.23 18.0367C29.1421 18.0367 29.057 17.9993 28.998 17.933C28.9187 17.8451 28.8956 17.7197 28.9389 17.6102L29.9938 14.9139C30.0269 14.8303 30.0932 14.7654 30.1753 14.7352L41.3353 10.5905C41.4535 10.543 41.5817 10.5776 41.6682 10.664C41.7547 10.7519 41.7806 10.8816 41.7359 10.9969L40.2084 14.9081C40.1723 15.0003 40.0945 15.0695 39.9994 15.0955L29.3121 18.0252C29.2847 18.0324 29.2573 18.0367 29.23 18.0367ZM30.5255 15.2727L29.7488 17.2585L39.6838 14.5348L40.9001 11.4192L30.5255 15.2727Z" fill="white"/>
<path d="M66.0301 9.24014H66.0272L53.5126 9.13494C53.4175 9.13349 53.3267 9.08882 53.2676 9.01389C53.21 8.9375 53.1883 8.83952 53.2128 8.74584L54.1697 4.94563C54.2029 4.81161 54.3211 4.7165 54.458 4.70929L67.1383 4.14725C67.2493 4.14581 67.3328 4.18615 67.3948 4.26252C67.4568 4.33889 67.4798 4.43978 67.4553 4.53633L66.3327 9.00378C66.2981 9.14212 66.1727 9.24014 66.0301 9.24014ZM53.9161 8.51238L65.7865 8.61326L66.7478 4.79145L54.7188 5.32466L53.9161 8.51238Z" fill="white"/>
<path d="M12.33 44.1207C12.3012 44.1207 12.2738 44.1164 12.245 44.1092C12.124 44.0746 12.036 43.9723 12.0202 43.847L10.9941 35.8142C10.9826 35.7306 11.0071 35.6456 11.0604 35.5793L12.4857 33.8082C12.5563 33.7202 12.6644 33.6713 12.7782 33.6957C12.8892 33.713 12.9814 33.788 13.0218 33.8932L15.4155 40.224C15.4544 40.3278 15.4356 40.4445 15.3665 40.531L12.5736 44.004C12.5131 44.079 12.4237 44.1207 12.33 44.1207ZM11.6311 35.8675L12.5476 43.0399L14.767 40.2788L12.6298 34.6253L11.6311 35.8675Z" fill="white"/>
<path d="M78.5042 11.5041C78.4855 11.5041 78.4668 11.5027 78.448 11.4984L65.9738 9.23437C65.8887 9.21995 65.8138 9.16951 65.7677 9.09746C65.7201 9.02397 65.7057 8.93462 65.7273 8.85103L66.85 4.38359C66.8874 4.22939 67.0387 4.13861 67.1958 4.15015L79.7983 5.92128C79.8863 5.93425 79.9655 5.98324 80.0145 6.05674C80.0635 6.13025 80.0794 6.22103 80.0577 6.3075L78.8069 11.2678C78.7723 11.409 78.6455 11.5041 78.5042 11.5041ZM66.4147 8.67954L78.2722 10.8311L79.3675 6.49194L67.3875 4.80874L66.4147 8.67954Z" fill="white"/>
<path d="M23.3546 28.8119C23.346 28.8119 23.3374 28.8119 23.3287 28.8104L16.8999 28.283C16.7933 28.2743 16.6967 28.2109 16.6477 28.1144C16.5987 28.0193 16.6016 27.9039 16.6578 27.8117L17.8496 25.8187C17.8957 25.7408 17.9721 25.6875 18.0614 25.6717L25.6417 24.2839C25.7613 24.2565 25.8852 24.3113 25.9544 24.4121C26.025 24.5145 26.0293 24.6456 25.9659 24.7522L23.6227 28.6605C23.5665 28.7542 23.4642 28.8119 23.3546 28.8119ZM17.4519 27.7008L23.186 28.172L25.0739 25.0232L18.3136 26.2611L17.4519 27.7008Z" fill="white"/>
<path d="M15.1229 40.6476C15.1084 40.6476 15.094 40.6462 15.0796 40.6447C14.9658 40.6289 14.8707 40.5525 14.8303 40.4459L12.4366 34.1151C12.3992 34.0142 12.415 33.9032 12.4784 33.8167L13.9253 31.8784C13.9829 31.8021 14.0708 31.7559 14.166 31.7531C14.2251 31.743 14.3519 31.7905 14.4138 31.864L18.204 36.3257C18.2991 36.4367 18.3034 36.5981 18.2169 36.7148L15.3736 40.5222C15.3145 40.6015 15.2208 40.6476 15.1229 40.6476ZM13.0822 34.0531L15.2137 39.6907L17.567 36.5404L14.1919 32.5673L13.0822 34.0531Z" fill="white"/>
<path d="M20.746 32.844C20.6999 32.844 20.6538 32.8339 20.6091 32.8123L15.4601 30.3077C15.3793 30.2688 15.3203 30.1967 15.2958 30.1102C15.2713 30.0238 15.2857 29.9316 15.3347 29.8566L16.6634 27.8016C16.7253 27.705 16.8363 27.6387 16.9516 27.6604L23.3804 28.1878C23.4899 28.1964 23.5865 28.2627 23.6355 28.3607C23.683 28.4602 23.6773 28.5769 23.6167 28.6691L21.0083 32.7014C20.9492 32.7921 20.8484 32.844 20.746 32.844ZM16.0509 29.8998L20.6336 32.1292L22.8083 28.7686L17.0871 28.2988L16.0509 29.8998Z" fill="white"/>
<path d="M17.966 36.8403C17.8738 36.8403 17.7873 36.7999 17.7282 36.7293L13.9381 32.2676C13.8459 32.1596 13.8387 32.0039 13.9194 31.8872L15.3403 29.848C15.4297 29.7212 15.5954 29.678 15.7337 29.7457L20.8828 32.2503C20.965 32.2907 21.0255 32.3642 21.0485 32.4521C21.0716 32.5415 21.0543 32.6351 21.0024 32.7101L18.2225 36.7063C18.1678 36.7855 18.0784 36.8345 17.9804 36.8403L17.966 36.8403ZM14.5708 32.0472L17.9415 36.016L20.2804 32.6524L15.7006 30.4245L14.5708 32.0472Z" fill="white"/>
<path d="M7.30333 75.5673C7.26874 75.5673 7.23271 75.5616 7.19812 75.5486C7.09292 75.5111 7.01512 75.4203 6.99493 75.3094L4.82606 63.1334C4.80731 63.0239 4.84767 62.9129 4.93126 62.8409L7.88698 60.3088C7.96911 60.2382 8.08441 60.2151 8.18384 60.2483C8.2876 60.2814 8.36543 60.3636 8.39281 60.4688L11.3615 71.953C11.3918 72.0683 11.3528 72.1908 11.2621 72.2686L7.50652 75.4924C7.44888 75.5414 7.37683 75.5673 7.30333 75.5673ZM5.47311 63.1997L7.51517 74.6609L10.7072 71.9199L7.91292 61.1101L5.47311 63.1997Z" fill="white"/>
<path d="M8.09026 60.8592C8.05424 60.8592 8.01677 60.8534 7.98218 60.8404C7.86689 60.7972 7.7862 60.6906 7.77898 60.5681L6.99646 49.2582C6.98925 49.1689 7.0224 49.081 7.08436 49.0176L9.46796 46.5951C9.5501 46.5129 9.67116 46.4783 9.78356 46.5158C9.89454 46.5504 9.97812 46.6441 9.99829 46.7579L11.8544 56.9711C11.8732 57.0719 11.8415 57.1743 11.7709 57.2463L8.31363 60.7655C8.2531 60.826 8.17241 60.8592 8.09026 60.8592ZM7.6291 49.3548L8.35398 59.8317L11.2103 56.9235L9.49102 47.4626L7.6291 49.3548Z" fill="white"/>
<path d="M27.6821 21.2662C27.5841 21.2662 27.4905 21.2201 27.4299 21.1393C27.3622 21.0457 27.3507 20.9232 27.3997 20.818L28.9474 17.5884C28.9878 17.5077 29.0598 17.4458 29.1477 17.4227L39.835 14.4929C39.9561 14.4627 40.08 14.5001 40.1578 14.5938C40.2356 14.6875 40.2515 14.8186 40.1996 14.9296L37.9529 19.6161C37.9068 19.7098 37.8189 19.7746 37.7166 19.7905L27.7282 21.2633C27.7124 21.2647 27.6965 21.2662 27.6821 21.2662ZM29.4504 17.9876L28.2182 20.5586L37.4601 19.1953L39.3393 15.2769L29.4504 17.9876Z" fill="white"/>
<path d="M39.9172 15.107C39.8192 15.107 39.7255 15.0609 39.6664 14.9816C39.6015 14.8952 39.5871 14.7813 39.6261 14.6805L41.1536 10.7693C41.194 10.667 41.2833 10.5935 41.3914 10.5747L53.4622 8.51394C53.5832 8.49664 53.687 8.53698 53.7576 8.6249C53.8296 8.71281 53.8484 8.83098 53.8066 8.93618L51.8582 13.9109C51.815 14.0219 51.7127 14.0982 51.5945 14.1083L39.9445 15.1056C39.9344 15.107 39.9258 15.107 39.9172 15.107ZM41.671 11.1613L40.3913 14.4398L51.3466 13.5016L53.0226 9.22296L41.671 11.1613Z" fill="white"/>
<path d="M11.6857 87.3598C11.6597 87.3598 11.6338 87.357 11.6078 87.3497C11.5084 87.3238 11.4277 87.2517 11.3931 87.1566L7.0107 75.364C6.96458 75.2401 7.0006 75.1032 7.10005 75.0167L10.8556 71.7929C10.9291 71.7295 11.0372 71.7079 11.1265 71.7252C11.2231 71.7468 11.3038 71.8131 11.3441 71.9025L16.3952 83.1244C16.4514 83.2512 16.4183 83.3996 16.3131 83.4904L11.8889 87.2849C11.8312 87.3339 11.7592 87.3598 11.6857 87.3598ZM7.67217 75.3496L11.8226 86.5182L15.7294 83.1676L10.9449 72.5409L7.67217 75.3496Z" fill="white"/>
<path d="M11.5475 57.34C11.5201 57.34 11.4913 57.3356 11.4639 57.3284C11.3486 57.2967 11.2607 57.2016 11.2405 57.0834L9.38439 46.8703C9.36709 46.7766 9.39303 46.6801 9.45644 46.608L12.0951 43.6019C12.1686 43.5168 12.2824 43.4765 12.3905 43.501C12.5001 43.5226 12.5894 43.6004 12.6254 43.7056L15.6777 52.5612C15.7137 52.6679 15.6907 52.786 15.6172 52.8696L11.7824 57.2333C11.7219 57.3025 11.6354 57.34 11.5475 57.34ZM10.0257 46.9063L11.7392 56.3355L15.0278 52.5944L12.2104 44.419L10.0257 46.9063Z" fill="white"/>
<path d="M18.1218 98.3092C18.1045 98.3092 18.0872 98.3078 18.0699 98.3049C17.9791 98.2891 17.8998 98.2343 17.8523 98.155L11.4163 87.2055C11.3399 87.0743 11.3673 86.9086 11.4826 86.8092L15.9068 83.0147C15.9731 82.9571 16.0668 82.934 16.1532 82.9427C16.2426 82.9557 16.3218 83.0061 16.3708 83.081L23.2968 93.6098C23.3833 93.7409 23.3588 93.9167 23.2392 94.0191L18.325 98.2343C18.2688 98.2833 18.1953 98.3092 18.1218 98.3092ZM12.0878 87.1147L18.2025 97.5166L22.6238 93.7236L16.0437 83.7209L12.0878 87.1147Z" fill="white"/>
<path d="M26.3623 107.998C26.3536 107.998 26.3464 107.998 26.3378 107.997C26.2542 107.991 26.1778 107.952 26.1245 107.888L17.8842 98.1999C17.7718 98.0687 17.7877 97.8713 17.9188 97.7589L22.833 93.5437C22.9627 93.4356 23.1544 93.4471 23.2682 93.571L31.8111 102.997C31.8673 103.061 31.8961 103.143 31.8918 103.228C31.886 103.311 31.8471 103.389 31.7823 103.446L26.5655 107.923C26.5093 107.971 26.4372 107.998 26.3623 107.998ZM18.5615 98.0313L26.3969 107.243L31.1323 103.18L23.0088 94.2166L18.5615 98.0313Z" fill="white"/>
<path d="M34.7882 25.075H34.7824L25.6919 24.9035C25.5824 24.9007 25.483 24.843 25.4268 24.7479C25.372 24.6528 25.3705 24.5375 25.4239 24.4409L27.4083 20.8036C27.4544 20.7171 27.5394 20.658 27.636 20.6436L37.6243 19.1708C37.7497 19.1578 37.8592 19.2054 37.927 19.3019C37.9947 19.3985 38.0019 19.5267 37.9442 19.6305L35.062 24.9122C35.0073 25.0131 34.9021 25.075 34.7882 25.075ZM26.2194 24.2882L34.6052 24.4467L37.0954 19.8813L27.8824 21.2402L26.2194 24.2882Z" fill="white"/>
<path d="M63.7386 15.0925C63.73 15.0925 63.7213 15.0925 63.7141 15.0911L51.5425 14.1082C51.4431 14.101 51.3537 14.0463 51.3018 13.9627C51.2499 13.8791 51.2399 13.7753 51.2759 13.6831L53.2243 8.70839C53.2718 8.58879 53.3871 8.50952 53.5154 8.50952H53.5183L66.0329 8.61472C66.1352 8.61617 66.2317 8.66661 66.2894 8.75163C66.347 8.83809 66.3586 8.94618 66.3211 9.04129L64.0297 14.8936C63.9822 15.0147 63.8669 15.0925 63.7386 15.0925ZM52.0109 13.5188L63.5325 14.4498L65.5732 9.23584L53.7287 9.1364L52.0109 13.5188Z" fill="white"/>
<path d="M11.0589 72.3435C11.0316 72.3435 11.0042 72.3406 10.9782 72.3334C10.8687 72.3031 10.7851 72.2181 10.7563 72.1086L7.78762 60.6243C7.76025 60.5191 7.7905 60.4053 7.86688 60.3275L11.3241 56.8083C11.399 56.7319 11.5057 56.6987 11.6123 56.7218C11.7175 56.7434 11.8026 56.8184 11.84 56.9178L15.7584 67.4437C15.8016 67.5575 15.7743 67.6858 15.6892 67.7723L11.2823 72.2498C11.2218 72.3103 11.1411 72.3435 11.0589 72.3435ZM8.43756 60.6402L11.2232 71.4183L15.1041 67.4754L11.4264 57.5966L8.43756 60.6402Z" fill="white"/>
<path d="M15.3821 52.9763C15.3648 52.9763 15.3461 52.9749 15.3288 52.972C15.2164 52.9518 15.1242 52.8726 15.0867 52.7659L12.0344 43.9103C11.9998 43.808 12.0186 43.6956 12.0863 43.612L14.8792 40.1389C14.944 40.0596 15.0492 40.0077 15.1444 40.0236C15.2467 40.0308 15.3389 40.087 15.3922 40.1749L19.7112 47.4597C19.7775 47.5721 19.7674 47.7148 19.6853 47.8157L15.6257 52.8596C15.5651 52.9345 15.4758 52.9763 15.3821 52.9763ZM12.6815 43.87L15.4931 52.0266L19.0627 47.5923L15.0838 40.8825L12.6815 43.87Z" fill="white"/>
<path d="M75.9593 18.0106C75.9348 18.0106 75.9103 18.0077 75.8872 18.0019L63.6666 15.0837C63.5787 15.0621 63.5038 15.0044 63.462 14.9237C63.4202 14.8445 63.4144 14.7494 63.4476 14.6658L65.7389 8.81343C65.7937 8.67508 65.9421 8.58862 66.0862 8.62032L78.5605 10.8843C78.6527 10.9002 78.732 10.9578 78.7766 11.0385C78.8228 11.1206 78.83 11.2186 78.7954 11.3051L76.2504 17.8117C76.2028 17.9342 76.0861 18.0106 75.9593 18.0106ZM64.1609 14.5591L75.7676 17.3304L78.0748 11.4305L66.2275 9.28035L64.1609 14.5591Z" fill="white"/>
<path d="M31.3886 30.7515C31.3642 30.7515 31.3397 30.7487 31.3152 30.7429L23.281 28.8032C23.1844 28.7801 23.1051 28.7124 23.0662 28.6202C23.0273 28.5279 23.0345 28.4242 23.0864 28.3377L25.4297 24.4294C25.4859 24.3343 25.5637 24.304 25.7035 24.2781L34.794 24.4496C34.905 24.4524 35.0073 24.513 35.062 24.611C35.1154 24.709 35.1139 24.8272 35.0563 24.9223L31.6567 30.5988C31.5991 30.6954 31.4967 30.7515 31.3886 30.7515ZM23.8416 28.2945L31.2388 30.0814L34.2421 25.0649L25.8721 24.9064L23.8416 28.2945Z" fill="white"/>
<path d="M48.7094 20.0758H48.7008L37.6619 19.7934C37.5567 19.7905 37.4587 19.7343 37.4039 19.6435C37.3492 19.5527 37.3434 19.4418 37.3881 19.3452L39.6348 14.6587C39.6838 14.5593 39.7803 14.4915 39.8898 14.4829L51.5412 13.4856C51.6551 13.4712 51.7617 13.5274 51.8237 13.6197C51.8885 13.7119 51.8972 13.8315 51.8496 13.9324L48.9919 19.8986C48.94 20.0067 48.8291 20.0758 48.7094 20.0758ZM38.1605 19.1809L48.5149 19.4461L51.0484 14.1558L40.1219 15.091L38.1605 19.1809Z" fill="white"/>
<path d="M19.4418 47.9325H19.4259C19.3207 47.9267 19.2256 47.869 19.1723 47.7797L14.8533 40.4949C14.7899 40.3854 14.7971 40.2485 14.872 40.1476L17.7153 36.3402C17.7701 36.2681 17.8522 36.222 17.943 36.2162C18.0252 36.1932 18.1217 36.2422 18.1866 36.3056L23.7838 41.8712C23.8948 41.9807 23.9063 42.1551 23.8141 42.2804L19.6925 47.8071C19.6334 47.8864 19.5398 47.9325 19.4418 47.9325ZM15.4975 40.3551L19.472 47.0563L23.1512 42.1234L18.0007 37.0031L15.4975 40.3551Z" fill="white"/>
<path d="M27.5985 36.6025C27.5466 36.6025 27.4962 36.5895 27.4486 36.5636L20.5962 32.8051C20.5198 32.7633 20.4636 32.6927 20.4434 32.6077C20.4218 32.5241 20.4362 32.4348 20.4838 32.3613L23.0922 28.3291C23.1642 28.2166 23.2997 28.1648 23.4279 28.195L31.4621 30.1347C31.5601 30.1592 31.6408 30.2284 31.6783 30.3235C31.7172 30.4172 31.7057 30.5239 31.6509 30.6089L27.8608 36.4598C27.8017 36.552 27.7008 36.6025 27.5985 36.6025ZM21.1913 32.4189L27.4948 35.8761L30.8857 30.6392L23.4971 28.8551L21.1913 32.4189Z" fill="white"/>
<path d="M23.5635 42.4057C23.4814 42.4057 23.4021 42.3726 23.343 42.3149L17.7458 36.7494C17.6377 36.6427 17.6233 36.4741 17.7097 36.3488L20.4896 32.3526C20.5804 32.2214 20.7562 32.1811 20.896 32.2574L27.7485 36.0159C27.8263 36.0576 27.8825 36.1311 27.9027 36.2176C27.9229 36.3041 27.9056 36.3949 27.8552 36.4684L23.82 42.2717C23.7667 42.3481 23.6831 42.3957 23.5923 42.4043C23.5823 42.4057 23.5722 42.4057 23.5635 42.4057ZM18.3726 36.49L23.5203 41.6088L27.1432 36.3963L20.8427 32.9405L18.3726 36.49Z" fill="white"/>
<path d="M16.1099 83.5655C16.0912 83.5655 16.0739 83.564 16.0552 83.5611C15.9529 83.5424 15.8678 83.4747 15.8246 83.381L10.7735 72.1591C10.7202 72.0409 10.7461 71.904 10.8355 71.8118L15.2424 67.3342C15.3116 67.2636 15.4124 67.2348 15.5076 67.2434C15.6056 67.2564 15.6906 67.3155 15.7381 67.4005L21.5602 77.8342C21.628 77.9552 21.6078 78.1065 21.5112 78.206L16.3333 83.4718C16.2742 83.5323 16.1935 83.5655 16.1099 83.5655ZM11.4321 72.0971L16.2079 82.708L20.9002 77.935L15.3966 68.0692L11.4321 72.0971Z" fill="white"/>
<path d="M15.4657 67.866C15.447 67.866 15.4283 67.8646 15.4095 67.8602C15.3015 67.8415 15.2107 67.7651 15.1732 67.6628L11.2548 57.1369C11.2145 57.0289 11.2361 56.9078 11.3125 56.8213L15.1473 52.4577C15.215 52.3813 15.3144 52.3395 15.4182 52.3539C15.5205 52.3654 15.6099 52.426 15.6589 52.5167L20.6163 61.8537C20.6768 61.969 20.6609 62.1088 20.5745 62.2068L15.7007 67.7594C15.6401 67.8271 15.5551 67.866 15.4657 67.866ZM11.9062 57.0937L15.5767 66.9538L19.962 61.956L15.3188 53.2099L11.9062 57.0937Z" fill="white"/>
<path d="M60.3783 22.1064C60.361 22.1064 60.3423 22.1049 60.325 22.1021L48.6563 20.0715C48.5597 20.0542 48.4761 19.9937 48.4315 19.9058C48.3868 19.8193 48.3854 19.717 48.4271 19.6277L51.2849 13.6615C51.3425 13.5462 51.4722 13.4669 51.5918 13.4857L63.7634 14.4685C63.8672 14.4771 63.958 14.5348 64.0099 14.6241C64.0618 14.7135 64.0661 14.8216 64.0214 14.9153L60.6607 21.9291C60.6074 22.0387 60.4965 22.1064 60.3783 22.1064ZM49.1693 19.5253L60.1981 21.4449L63.2605 15.055L51.7561 14.1255L49.1693 19.5253Z" fill="white"/>
<path d="M45.0462 26.8001C45.0289 26.8001 45.0116 26.7987 44.9943 26.7958L34.7365 25.0708C34.637 25.0535 34.552 24.9901 34.5073 24.8993C34.4627 24.8085 34.4655 24.7019 34.5145 24.6125L37.3968 19.3308C37.453 19.2271 37.5481 19.155 37.6792 19.168L48.7181 19.4505C48.8262 19.4533 48.9256 19.5124 48.9804 19.6076C49.0352 19.7012 49.0366 19.8165 48.9833 19.9131L45.32 26.6373C45.2652 26.7382 45.1586 26.8001 45.0462 26.8001ZM35.2726 24.5275L44.8776 26.1415L48.1907 20.0629L37.8536 19.7978L35.2726 24.5275Z" fill="white"/>
<path d="M23.036 94.094C23.0259 94.094 23.0159 94.094 23.0058 94.0926C22.9121 94.084 22.8271 94.0321 22.7752 93.9528L15.8492 83.4241C15.7685 83.3016 15.7843 83.1387 15.8867 83.0335L21.0646 77.7677C21.128 77.7014 21.2173 77.6538 21.3081 77.6754C21.3989 77.6812 21.4825 77.7259 21.5373 77.798L29.0397 87.7431C29.1334 87.867 29.1218 88.0399 29.0138 88.1509L23.2594 94.0004C23.2003 94.0609 23.1196 94.094 23.036 94.094ZM16.5107 83.2915L23.085 93.2856L28.3782 87.9045L21.2563 78.4638L16.5107 83.2915Z" fill="white"/>
<path d="M41.4114 111.49C41.3423 111.49 41.2716 111.467 41.214 111.42L31.3813 103.451C31.3136 103.395 31.2718 103.313 31.266 103.225C31.2617 103.137 31.2934 103.05 31.3554 102.988L37.4657 96.7802C37.5795 96.6663 37.7597 96.6534 37.8822 96.7542L47.8273 104.6C47.8979 104.654 47.9411 104.737 47.9469 104.824C47.9512 104.914 47.9195 105 47.8575 105.064L41.6348 111.396C41.5728 111.458 41.4921 111.49 41.4114 111.49ZM32.0428 103.182L41.3869 110.755L47.1672 104.873L37.715 97.4186L32.0428 103.182Z" fill="white"/>
<path d="M31.5789 103.52C31.4852 103.515 31.406 103.481 31.3469 103.418L22.804 93.9918C22.693 93.8678 22.6973 93.6805 22.8126 93.5623L28.567 87.7128C28.6261 87.6523 28.7068 87.6191 28.7904 87.6191C28.8739 87.6191 28.9546 87.6537 29.0137 87.7128L37.9126 96.7803C38.0322 96.9028 38.0322 97.0973 37.9126 97.2184L31.8023 103.427C31.7432 103.487 31.6625 103.52 31.5789 103.52ZM23.4655 93.79L31.5876 102.752L37.2511 96.9994L28.7904 88.3786L23.4655 93.79Z" fill="white"/>
<path d="M20.3395 62.3134C20.3294 62.3134 20.3193 62.3134 20.3092 62.312C20.2055 62.3019 20.1133 62.2399 20.0628 62.1477L15.1054 52.8107C15.0478 52.6997 15.0607 52.5657 15.1385 52.4677L19.1981 47.4238C19.2572 47.3489 19.3178 47.2985 19.446 47.3071C19.5426 47.3086 19.6319 47.3532 19.691 47.431L25.7566 55.3903C25.8431 55.5041 25.8417 55.6627 25.7509 55.7751L20.5831 62.1966C20.524 62.2701 20.4332 62.3134 20.3395 62.3134ZM15.7553 52.6998L20.3928 61.4358L25.1096 55.5733L19.4345 48.1271L15.7553 52.6998Z" fill="white"/>
<path d="M72.2227 25.8027C72.1924 25.8027 72.1607 25.7983 72.129 25.7882L60.2845 22.0918C60.1981 22.0644 60.1274 22.001 60.0914 21.9189C60.0554 21.8353 60.0568 21.7402 60.0957 21.658L63.4564 14.6441C63.5213 14.5115 63.674 14.4438 63.8109 14.4755L76.0315 17.3937C76.1238 17.4154 76.2016 17.4773 76.2419 17.5638C76.2823 17.6488 76.2823 17.7483 76.2419 17.8333L72.5051 25.6254C72.4518 25.7363 72.3409 25.8027 72.2227 25.8027ZM60.8163 21.6033L72.0584 25.1109L75.5099 17.9126L63.9118 15.1428L60.8163 21.6033Z" fill="white"/>
<path d="M40.7185 34.0243C40.6839 34.0243 40.6493 34.0186 40.6147 34.007L31.285 30.7343C31.197 30.7026 31.1264 30.6334 31.0947 30.5455C31.063 30.4561 31.0717 30.3581 31.1207 30.2789L34.5202 24.6023C34.5851 24.4899 34.7134 24.4309 34.8402 24.4539L45.098 26.1789C45.2003 26.1962 45.2868 26.2625 45.33 26.3562C45.3733 26.4499 45.3675 26.5594 45.3142 26.6473L40.9865 33.8716C40.9289 33.9681 40.8265 34.0243 40.7185 34.0243ZM31.8542 30.2702L40.5816 33.3326L44.5432 26.7193L34.9468 25.1053L31.8542 30.2702Z" fill="white"/>
<path d="M21.2879 78.2997C21.2763 78.2997 21.2662 78.2997 21.2547 78.2982C21.1538 78.2867 21.0645 78.2276 21.0155 78.1397L15.1934 67.7061C15.1285 67.5908 15.143 67.4467 15.2309 67.3472L20.1047 61.7946C20.1681 61.7226 20.2863 61.688 20.3555 61.688C20.452 61.6938 20.5399 61.7427 20.5947 61.8205L27.2771 71.2757C27.3607 71.3939 27.352 71.5538 27.2569 71.6619L21.5228 78.193C21.4637 78.2608 21.3772 78.2997 21.2879 78.2997ZM15.8462 67.5937L21.3455 77.448L26.6243 71.4342L20.3137 62.5051L15.8462 67.5937Z" fill="white"/>
<path d="M25.5076 55.8918C25.4096 55.8918 25.3189 55.8457 25.2583 55.7678L19.1927 47.8086C19.1091 47.6976 19.1077 47.5449 19.1912 47.4325L23.3128 41.9058C23.3661 41.8352 23.4454 41.7905 23.5319 41.7819C23.6313 41.7704 23.7077 41.8021 23.7725 41.8611L30.9622 48.3116C31.0818 48.4182 31.1006 48.6012 31.004 48.7309L25.7584 55.7664C25.6993 55.8442 25.6056 55.8918 25.5076 55.8918ZM19.834 47.6184L25.5048 55.0603L30.3325 48.5853L23.6097 42.5543L19.834 47.6184Z" fill="white"/>
<path d="M35.8923 41.4735C35.8375 41.4735 35.7842 41.4591 35.7338 41.4303L27.4402 36.5593C27.3667 36.5161 27.3148 36.4455 27.2946 36.3619C27.2744 36.2783 27.2903 36.1918 27.3364 36.1198L31.1265 30.2689C31.2058 30.1478 31.3542 30.0988 31.4926 30.1435L40.8223 33.4162C40.9131 33.4479 40.9837 33.52 41.014 33.6108C41.0457 33.7016 41.0327 33.801 40.9808 33.8817L36.1546 41.3308C36.0955 41.4231 35.9946 41.4735 35.8923 41.4735ZM28.0382 36.1861L35.7928 40.74L40.2401 33.8745L31.5171 30.815L28.0382 36.1861Z" fill="white"/>
<path d="M30.7533 48.8561C30.6769 48.8561 30.6019 48.8273 30.5443 48.7754L23.3546 42.325C23.2379 42.2198 23.2163 42.044 23.307 41.9143L27.3422 36.1109C27.4373 35.9769 27.616 35.9409 27.7572 36.0201L36.0508 40.8911C36.1257 40.9357 36.179 41.0092 36.1978 41.0943C36.2165 41.1793 36.1992 41.2672 36.1488 41.3393L31.0098 48.7221C30.9593 48.7956 30.8786 48.8431 30.7893 48.8532C30.7778 48.8547 30.7648 48.8561 30.7533 48.8561ZM23.9786 42.0454L30.6985 48.075L35.4426 41.2586L27.6895 36.7061L23.9786 42.0454Z" fill="white"/>
<path d="M56.0647 30.0136C56.0359 30.0136 56.0056 30.0093 55.9768 30.0006L44.9581 26.7869C44.8673 26.761 44.7938 26.6947 44.7577 26.6068C44.7203 26.5203 44.726 26.4209 44.7722 26.3373L48.434 19.6131C48.4989 19.4964 48.6329 19.4315 48.7626 19.4546L60.4313 21.4851C60.5307 21.5024 60.6157 21.5673 60.659 21.6581C60.7036 21.7488 60.7008 21.854 60.6518 21.9434L56.3385 29.8508C56.2838 29.9531 56.1771 30.0136 56.0647 30.0136ZM45.5057 26.2955L55.9105 29.3305L59.8952 22.027L48.8764 20.1088L45.5057 26.2955Z" fill="white"/>
<path d="M28.7903 88.2447H28.7788C28.6851 88.2404 28.5972 88.1957 28.541 88.1208L21.0386 78.1757C20.9492 78.0575 20.955 77.8918 21.053 77.7808L26.7872 71.2497C26.8463 71.182 26.9313 71.1431 27.0221 71.1431C27.1114 71.1431 27.1965 71.182 27.257 71.2483L35.3993 80.4656C35.503 80.5838 35.503 80.7611 35.3993 80.8792L29.0252 88.1381C28.9661 88.2058 28.8797 88.2447 28.7903 88.2447ZM21.6914 78.0013L28.8091 87.4377L34.7479 80.6731L27.0221 71.9285L21.6914 78.0013Z" fill="white"/>
<path d="M58.2536 111.481C58.1988 111.481 58.1441 111.466 58.0936 111.436L47.4741 105.113C47.3948 105.065 47.3401 104.984 47.3257 104.894C47.3112 104.801 47.3372 104.708 47.3992 104.638L54.3006 96.7844C54.4015 96.6691 54.5701 96.6446 54.6998 96.7239L65.1825 103.196C65.2603 103.245 65.3136 103.326 65.328 103.416C65.341 103.507 65.3136 103.599 65.2531 103.669L58.4885 111.374C58.428 111.443 58.3415 111.481 58.2536 111.481ZM48.1168 104.768L58.1902 110.766L64.5397 103.535L54.5961 97.3954L48.1168 104.768Z" fill="white"/>
<path d="M27.0222 71.7683H27.0121C26.9141 71.7654 26.8233 71.7164 26.7671 71.6357L20.0847 62.1806C20.004 62.0668 20.0083 61.9126 20.0962 61.8045L25.2641 55.3829C25.3217 55.3123 25.4067 55.2691 25.4975 55.2662C25.6142 55.259 25.6762 55.3008 25.7382 55.3685L33.3242 63.6967C33.4279 63.8105 33.4337 63.9834 33.3372 64.1031L27.2658 71.6516C27.2067 71.7251 27.1173 71.7683 27.0222 71.7683ZM20.7318 62.012L27.0381 70.9368L32.6829 63.92L25.522 56.0588L20.7318 62.012Z" fill="white"/>
<path d="M47.6341 105.157C47.5664 105.157 47.4972 105.136 47.441 105.09L37.4959 97.2443C37.4282 97.191 37.3849 97.1131 37.3777 97.0281C37.3705 96.9416 37.3979 96.8581 37.4541 96.7932L44.2216 89.089C44.3325 88.9651 44.5155 88.9478 44.6467 89.0472L54.7258 96.7428C54.7935 96.7947 54.8382 96.8739 54.8469 96.9604C54.8555 97.0454 54.8281 97.1319 54.7705 97.1967L47.869 105.051C47.807 105.121 47.7206 105.157 47.6341 105.157ZM38.1415 96.9575L47.5952 104.415L54.0802 97.0353L44.4982 89.7202L38.1415 96.9575Z" fill="white"/>
<path d="M37.6891 97.3121C37.6055 97.3121 37.5248 97.2789 37.4658 97.2184L28.5669 88.1509C28.453 88.0342 28.4473 87.8483 28.5554 87.7258L34.9294 80.4669C34.9856 80.4035 35.0634 80.3646 35.1485 80.3603C35.2292 80.3559 35.3142 80.3862 35.3776 80.4439L44.6699 89.066C44.7938 89.1813 44.8039 89.3744 44.6915 89.5012L37.924 97.2054C37.8664 97.2702 37.7842 97.3091 37.6978 97.312L37.6891 97.3121ZM29.2168 87.9204L37.6762 96.5396L44.0214 89.3168L35.1874 81.1212L29.2168 87.9204Z" fill="white"/>
<path d="M67.4365 34.5877C67.3976 34.5877 67.3573 34.5805 67.3198 34.5647L55.948 29.9906C55.8659 29.9574 55.801 29.8912 55.7707 29.8061C55.7405 29.7225 55.7477 29.6289 55.7909 29.551L60.1042 21.6437C60.1733 21.514 60.3218 21.4462 60.4717 21.4952L72.3161 25.1917C72.4055 25.219 72.4776 25.2853 72.5121 25.3732C72.5467 25.4597 72.5424 25.5577 72.4963 25.6399L67.7104 34.4249C67.6541 34.5272 67.5475 34.5877 67.4365 34.5877ZM56.5072 29.5424L67.2953 33.8816L71.7656 25.6744L60.5293 22.1682L56.5072 29.5424Z" fill="white"/>
<path d="M50.9806 38.5061C50.9388 38.5061 50.8956 38.4975 50.8552 38.4802L40.5931 33.9983C40.511 33.9623 40.4475 33.8931 40.4202 33.8066C40.3928 33.7216 40.4043 33.628 40.4504 33.5516L44.7781 26.3273C44.8516 26.2048 44.9957 26.1443 45.134 26.1875L56.1528 29.4011C56.245 29.4285 56.3199 29.4963 56.356 29.5871C56.3906 29.6764 56.3833 29.7787 56.3329 29.8609L51.2487 38.3534C51.191 38.4514 51.0873 38.5061 50.9806 38.5061ZM41.1695 33.5674L50.8538 37.7971L55.5893 29.8883L45.1902 26.8547L41.1695 33.5674Z" fill="white"/>
<path d="M75.507 108.777C75.4608 108.777 75.4162 108.767 75.3729 108.747L64.8845 103.745C64.7981 103.703 64.7346 103.626 64.7145 103.532C64.6929 103.44 64.7145 103.342 64.775 103.267L71.9359 94.3621C72.031 94.2425 72.1967 94.2122 72.3293 94.2842L82.4012 99.8037C82.4834 99.8484 82.5396 99.9262 82.5583 100.017C82.5756 100.108 82.5525 100.201 82.4949 100.274L75.7505 108.661C75.69 108.736 75.5992 108.777 75.507 108.777ZM65.51 103.35L75.4176 108.076L81.7743 100.173L72.2587 94.9587L65.51 103.35Z" fill="white"/>
<path d="M33.0934 64.2199C33.0055 64.2199 32.9219 64.1824 32.8628 64.1175L25.2768 55.7894C25.1759 55.6784 25.1673 55.5127 25.2566 55.3916L30.5022 48.3561C30.5541 48.2884 30.6305 48.2437 30.717 48.2336C30.8049 48.225 30.8885 48.2495 30.9533 48.3028L39.4674 55.3945C39.5942 55.5012 39.6173 55.6885 39.5178 55.8225L33.3441 64.0945C33.2879 64.1694 33.2014 64.2156 33.1092 64.2199H33.0934ZM25.9123 55.5588L33.0689 63.4172L38.8391 55.6856L30.8063 48.9945L25.9123 55.5588Z" fill="white"/>
<path d="M45.3041 47.2667C45.2479 47.2667 45.1917 47.2522 45.1398 47.2205L35.7279 41.4273C35.6573 41.3826 35.6054 41.312 35.5867 41.2298C35.5694 41.1477 35.5838 41.0612 35.6299 40.9906L40.4562 33.5415C40.5383 33.4147 40.704 33.3657 40.8438 33.4248L51.106 37.9066C51.1896 37.9441 51.253 38.0162 51.2804 38.1041C51.3063 38.192 51.2933 38.2871 51.2429 38.3635L45.5664 47.124C45.5073 47.2162 45.4064 47.2667 45.3041 47.2667ZM36.3288 41.0627L45.2075 46.5274L50.518 38.3332L40.8366 34.105L36.3288 41.0627Z" fill="white"/>
<path d="M39.2669 55.9479C39.1949 55.9479 39.1228 55.9219 39.0666 55.8758L30.5525 48.7841C30.4286 48.6804 30.4041 48.4973 30.4963 48.3648L35.6353 40.9819C35.7304 40.8465 35.912 40.8061 36.0561 40.894L45.468 46.6873C45.5401 46.7334 45.592 46.8055 45.6093 46.8905C45.628 46.9741 45.6092 47.062 45.5603 47.1326L39.5234 55.8139C39.473 55.8859 39.3952 55.9335 39.3087 55.945C39.2943 55.9464 39.2813 55.9479 39.2669 55.9479ZM31.1736 48.4873L39.205 55.1769L44.8584 47.0461L35.9797 41.5814L31.1736 48.4873Z" fill="white"/>
<path d="M35.1647 80.9857C35.0753 80.9857 34.9903 80.9467 34.9298 80.8804L26.7875 71.6631C26.6866 71.5478 26.6837 71.3778 26.7788 71.2596L32.8502 63.7111C32.905 63.6433 32.9857 63.6015 33.0736 63.5958C33.1356 63.5727 33.2451 63.6203 33.3099 63.6808L42.1209 72.0609C42.2376 72.1733 42.2506 72.3563 42.1483 72.4831L35.4082 80.8689C35.3506 80.941 35.2641 80.9828 35.1719 80.9857H35.1647ZM27.4317 71.4455L35.1531 80.1873L41.481 72.3159L33.124 64.3682L27.4317 71.4455Z" fill="white"/>
<path d="M65.0185 103.775C64.9623 103.775 64.9046 103.76 64.8542 103.729L54.3716 97.2573C54.2952 97.2097 54.2433 97.1319 54.2275 97.044C54.213 96.9546 54.2361 96.8653 54.2923 96.7947L61.5901 87.7157C61.6881 87.5903 61.8653 87.5601 62.0023 87.648L72.348 94.2944C72.4229 94.3434 72.4734 94.4197 72.4878 94.5076C72.5022 94.5956 72.4791 94.6849 72.4229 94.7541L65.262 103.659C65.2015 103.735 65.1107 103.775 65.0185 103.775ZM55.0013 96.91L64.9479 103.052L71.7182 94.633L61.9014 88.3267L55.0013 96.91Z" fill="white"/>
<path d="M61.7804 44.0272C61.7329 44.0272 61.6839 44.0157 61.6378 43.9926L50.8381 38.4717C50.7617 38.4328 50.704 38.3636 50.6795 38.28C50.6565 38.1965 50.668 38.1071 50.7127 38.0336L55.7969 29.5411C55.8762 29.4071 56.0419 29.3538 56.1817 29.4114L67.5535 33.9855C67.6385 34.0187 67.7034 34.0893 67.7337 34.1758C67.7625 34.2622 67.7524 34.3574 67.7048 34.4366L62.0485 43.8759C61.9908 43.9725 61.8871 44.0272 61.7804 44.0272ZM51.4203 38.0668L61.6623 43.3038L66.9799 34.428L56.1961 30.0902L51.4203 38.0668Z" fill="white"/>
<path d="M54.5358 97.3035C54.4695 97.3035 54.4032 97.2819 54.3456 97.2387L44.2665 89.5431C44.2002 89.4927 44.1569 89.4163 44.1468 89.3327C44.1368 89.2492 44.1598 89.1656 44.2131 89.0993L51.3726 80.1947C51.4792 80.0621 51.6651 80.0405 51.802 80.1385L62.0195 87.6596C62.0872 87.71 62.1319 87.7864 62.1434 87.8714C62.155 87.9564 62.1305 88.0415 62.0771 88.1078L54.7794 97.1868C54.7174 97.2632 54.6266 97.3035 54.5358 97.3035ZM44.9005 89.2419L54.4825 96.557L61.3854 87.9709L51.6723 80.8201L44.9005 89.2419Z" fill="white"/>
<path d="M44.4565 89.6079C44.3773 89.6079 44.3023 89.5777 44.2432 89.5243L34.9509 80.9022C34.8313 80.7912 34.8184 80.6053 34.9207 80.477L41.6608 72.0912C41.7126 72.0264 41.7905 71.9846 41.874 71.9759C41.9533 71.9586 42.0412 71.9932 42.1046 72.0465L51.8163 80.1499C51.9474 80.2594 51.9661 80.454 51.8595 80.5866L44.7001 89.4912C44.6453 89.5589 44.566 89.6007 44.4796 89.6065C44.4724 89.6079 44.4637 89.6079 44.4565 89.6079ZM35.5908 80.6413L44.4234 88.8384L51.1793 80.4338L41.949 72.7311L35.5908 80.6413Z" fill="white"/>
<path d="M72.711 50.3722C72.6577 50.3722 72.6029 50.3592 72.5539 50.3304L61.6231 43.9852C61.551 43.9419 61.4977 43.8728 61.4776 43.7921C61.4559 43.7114 61.4689 43.6249 61.5121 43.5528L67.1685 34.1136C67.2506 33.9738 67.4293 33.9205 67.5792 33.9968L78.8574 39.7613C78.9337 39.8002 78.9914 39.8694 79.0159 39.953C79.0389 40.0365 79.0274 40.1259 78.9827 40.1994L72.9791 50.2209C72.92 50.3174 72.8176 50.3722 72.711 50.3722ZM62.2111 43.6033L72.6015 49.6343L78.2751 40.1662L67.5547 34.6857L62.2111 43.6033Z" fill="white"/>
<path d="M41.9045 72.6C41.8253 72.6 41.7475 72.5697 41.6884 72.5135L32.8774 64.1335C32.7636 64.024 32.7477 63.8467 32.8428 63.7199L39.0166 55.4479C39.067 55.3802 39.1419 55.3369 39.2255 55.3254C39.3091 55.3153 39.3941 55.3369 39.4604 55.3888L48.9617 62.8451C49.0957 62.9503 49.1202 63.142 49.0193 63.2789L42.1553 72.4746C42.102 72.5452 42.0198 72.5914 41.9305 72.5986C41.9218 72.6 41.9132 72.6 41.9045 72.6ZM33.5101 63.8712L41.8642 71.8175L48.3348 63.1492L39.3264 56.0791L33.5101 63.8712Z" fill="white"/>
<path d="M55.4795 53.7575C55.4219 53.7575 55.3628 53.7416 55.3109 53.7085L45.1352 47.2177C45.066 47.1731 45.0156 47.1025 44.9983 47.0203C44.981 46.9396 44.9969 46.8546 45.0415 46.784L50.7181 38.0234C50.8045 37.8894 50.9775 37.8419 51.123 37.9154L61.9227 43.4363C62.0005 43.4766 62.0596 43.5487 62.0827 43.6337C62.1043 43.7187 62.0899 43.8095 62.0423 43.8844L55.7418 53.6148C55.6827 53.7071 55.5818 53.7575 55.4795 53.7575ZM45.7376 46.8603L55.3858 53.0139L61.329 43.8354L51.0899 38.5999L45.7376 46.8603Z" fill="white"/>
<path d="M48.7685 63.4042C48.6993 63.4042 48.6316 63.3812 48.5754 63.3379L39.0741 55.8816C38.9444 55.7793 38.9156 55.5934 39.0107 55.4565L45.0475 46.7752C45.1441 46.6398 45.3329 46.6009 45.4727 46.6902L55.6483 53.181C55.7189 53.2271 55.7694 53.3006 55.7867 53.3827C55.8025 53.4663 55.7852 53.5528 55.7362 53.6234L49.025 63.2702C48.976 63.3408 48.8996 63.3884 48.8146 63.4013C48.7987 63.4028 48.7843 63.4042 48.7685 63.4042ZM39.6924 55.5718L48.7007 62.6404L55.0373 53.5326L45.3891 47.3791L39.6924 55.5718Z" fill="white"/>
<path d="M72.1793 94.8708C72.1217 94.8708 72.0626 94.855 72.0107 94.8219L61.665 88.1754C61.5915 88.1279 61.5411 88.0529 61.5266 87.9679C61.5108 87.8829 61.531 87.795 61.5828 87.7244L69.0074 77.7721C69.1083 77.6366 69.2942 77.6078 69.4326 77.7L79.6371 84.5395C79.7077 84.5871 79.7567 84.662 79.7711 84.7456C79.7855 84.8306 79.7639 84.9171 79.7135 84.9863L72.4301 94.7455C72.3681 94.8276 72.2744 94.8708 72.1793 94.8708ZM62.2847 87.8296L72.103 94.1373L79.016 84.8753L69.3317 78.3845L62.2847 87.8296Z" fill="white"/>
<path d="M61.8335 88.2245C61.7686 88.2245 61.7038 88.2044 61.6475 88.164L51.4301 80.6429C51.3638 80.5924 51.3191 80.5189 51.3061 80.4368C51.2946 80.3546 51.3162 80.2711 51.3652 80.2033L58.6428 70.4441C58.7466 70.3072 58.9368 70.2798 59.0737 70.3764L69.4382 77.7044C69.5074 77.7534 69.5535 77.8269 69.5665 77.9105C69.5794 77.9941 69.5592 78.0791 69.5088 78.1469L62.0842 88.0992C62.0222 88.1813 61.9286 88.2245 61.8335 88.2245ZM52.0541 80.3258L61.7686 87.4766L68.8156 78.0301L58.9613 71.0624L52.0541 80.3258Z" fill="white"/>
<path d="M51.6162 80.7032C51.5427 80.7032 51.4721 80.6773 51.4159 80.6312L41.7042 72.5278C41.5774 72.4212 41.5543 72.2338 41.6538 72.0998L48.5178 62.9041C48.623 62.7657 48.8175 62.7369 48.9559 62.8407L59.0811 70.3806C59.1474 70.4296 59.1906 70.5045 59.2036 70.5866C59.2151 70.6688 59.1935 70.7524 59.1445 70.8187L51.8669 80.5779C51.815 80.6456 51.7387 80.6903 51.6522 80.7004C51.6407 80.7018 51.6277 80.7032 51.6162 80.7032ZM42.3325 72.2367L51.5628 79.9395L58.4557 70.6948L48.8319 63.5281L42.3325 72.2367Z" fill="white"/>
<path d="M76.5269 67.8327C76.4649 67.8327 76.4029 67.8139 76.3511 67.7779L65.8439 60.6458C65.7041 60.5507 65.6652 60.3605 65.7575 60.2178L72.4485 49.8894C72.4932 49.8202 72.5653 49.7712 72.646 49.7539C72.7281 49.7366 72.8131 49.7525 72.8809 49.7972L83.5148 56.7231C83.6604 56.8168 83.7007 57.0099 83.607 57.1555L76.7892 67.69C76.743 67.7606 76.671 67.8096 76.5888 67.8269C76.5687 67.8312 76.547 67.8327 76.5269 67.8327ZM66.4492 60.3014L76.4375 67.0818L82.9124 57.0776L72.803 50.4918L66.4492 60.3014Z" fill="white"/>
<path d="M69.2583 78.2722C69.1935 78.2722 69.1315 78.252 69.0782 78.2146L58.7137 70.8865C58.5725 70.7871 58.5394 70.594 58.6374 70.4527L65.7637 60.2093C65.8617 60.0695 66.0562 60.032 66.196 60.13L76.7031 67.2621C76.7723 67.3082 76.8198 67.3803 76.8343 67.4639C76.8501 67.546 76.8314 67.6296 76.7838 67.6988L69.5149 78.1382C69.4673 78.2059 69.3938 78.2535 69.3117 78.2679C69.2944 78.2707 69.2756 78.2722 69.2583 78.2722ZM59.3277 70.555L69.182 77.5228L76.0907 67.6008L66.1009 60.8203L59.3277 70.555Z" fill="white"/>
<path d="M66.0202 60.7007C65.9596 60.7007 65.8991 60.6834 65.8487 60.6488L55.3084 53.7055C55.1643 53.6119 55.1239 53.4187 55.2176 53.2746L61.5181 43.5443C61.6075 43.4045 61.7948 43.3627 61.9375 43.4434L72.8683 49.7886C72.9418 49.8318 72.9951 49.9039 73.0153 49.986C73.0355 50.0696 73.0196 50.1575 72.9735 50.2296L66.2824 60.558C66.2378 60.6272 66.1657 60.6762 66.085 60.6935C66.0634 60.6978 66.0418 60.7007 66.0202 60.7007ZM55.9108 53.3539L65.9294 59.9542L72.2703 50.1647L61.8813 44.1337L55.9108 53.3539Z" fill="white"/>
<path d="M58.8937 70.9442C58.8274 70.9442 58.7611 70.9226 58.7063 70.8823L48.5811 63.3424C48.4471 63.2415 48.4154 63.0513 48.5119 62.9129L55.2232 53.2661C55.3197 53.1278 55.5128 53.0903 55.6512 53.184L66.1915 60.1273C66.2621 60.1734 66.3111 60.2469 66.3269 60.329C66.3428 60.4112 66.324 60.4976 66.2765 60.5668L59.1502 70.8102C59.1026 70.8794 59.0277 70.9269 58.9441 70.9399C58.9268 70.9428 58.911 70.9442 58.8937 70.9442ZM49.1979 63.021L58.8216 70.1877L65.5804 60.4731L55.5618 53.8743L49.1979 63.021Z" fill="white"/>
</svg>
