<svg width="1029" height="264" viewBox="0 0 1029 264" fill="none" xmlns="http://www.w3.org/2000/svg">
<line x1="24" y1="235" x2="866" y2="235" stroke="#FF9000" stroke-width="16"/>
<path d="M43.0625 233L43.0625 139.909H83.2443C90.1534 139.909 96.1989 141.167 101.381 143.682C106.563 146.197 110.593 149.818 113.472 154.545C116.35 159.273 117.79 164.939 117.79 171.545C117.79 178.212 116.305 183.833 113.335 188.409C110.396 192.985 106.259 196.439 100.926 198.773C95.6231 201.106 89.4261 202.273 82.3352 202.273H58.3352V182.636H77.2443C80.214 182.636 82.7443 182.273 84.8352 181.545C86.9564 180.788 88.5777 179.591 89.6989 177.955C90.8504 176.318 91.4261 174.182 91.4261 171.545C91.4261 168.879 90.8504 166.712 89.6989 165.045C88.5777 163.348 86.9564 162.106 84.8352 161.318C82.7443 160.5 80.214 160.091 77.2443 160.091H68.3352L68.3352 233H43.0625ZM97.608 190.273L120.881 233H93.4261L70.6989 190.273H97.608ZM128.562 233V139.909L195.653 139.909V160.273H153.835V176.273L192.199 176.273V196.636L153.835 196.636V212.636L195.472 212.636V233L128.562 233ZM154.017 131.182L162.744 110.818L184.199 110.818L170.562 131.182H154.017ZM232.369 233H205.097L235.824 139.909H270.369L301.097 233H273.824L253.46 165.545H252.733L232.369 233ZM227.278 196.273L278.551 196.273V215.182L227.278 215.182L227.278 196.273ZM310.062 233V139.909H335.335V212.636H372.972V233H310.062ZM408.46 139.909V233H383.188V139.909H408.46ZM470.619 169C470.377 165.97 469.241 163.606 467.21 161.909C465.21 160.212 462.165 159.364 458.074 159.364C455.468 159.364 453.331 159.682 451.665 160.318C450.028 160.924 448.816 161.758 448.028 162.818C447.241 163.879 446.831 165.091 446.801 166.455C446.741 167.576 446.938 168.591 447.392 169.5C447.877 170.379 448.634 171.182 449.665 171.909C450.695 172.606 452.013 173.242 453.619 173.818C455.225 174.394 457.134 174.909 459.347 175.364L466.983 177C472.134 178.091 476.544 179.53 480.21 181.318C483.877 183.106 486.877 185.212 489.21 187.636C491.544 190.03 493.256 192.727 494.347 195.727C495.468 198.727 496.044 202 496.074 205.545C496.044 211.667 494.513 216.848 491.483 221.091C488.453 225.333 484.119 228.561 478.483 230.773C472.877 232.985 466.134 234.091 458.256 234.091C450.165 234.091 443.104 232.894 437.074 230.5C431.074 228.106 426.407 224.424 423.074 219.455C419.771 214.455 418.104 208.061 418.074 200.273H442.074C442.225 203.121 442.938 205.515 444.21 207.455C445.483 209.394 447.271 210.864 449.574 211.864C451.907 212.864 454.68 213.364 457.892 213.364C460.589 213.364 462.847 213.03 464.665 212.364C466.483 211.697 467.862 210.773 468.801 209.591C469.741 208.409 470.225 207.061 470.256 205.545C470.225 204.121 469.756 202.879 468.847 201.818C467.968 200.727 466.513 199.758 464.483 198.909C462.453 198.03 459.71 197.212 456.256 196.455L446.983 194.455C438.741 192.667 432.241 189.682 427.483 185.5C422.756 181.288 420.407 175.545 420.438 168.273C420.407 162.364 421.983 157.197 425.165 152.773C428.377 148.318 432.816 144.848 438.483 142.364C444.18 139.879 450.71 138.636 458.074 138.636C465.589 138.636 472.089 139.894 477.574 142.409C483.059 144.924 487.286 148.47 490.256 153.045C493.256 157.591 494.771 162.909 494.801 169H470.619ZM526.244 233L498.972 233L529.699 139.909H564.244L594.972 233H567.699L547.335 165.545H546.608L526.244 233ZM521.153 196.273L572.426 196.273V215.182L521.153 215.182V196.273ZM589.642 160.273V139.909L670.551 139.909V160.273H642.551V233H617.642V160.273H589.642ZM705.335 139.909V233H680.062V139.909H705.335ZM807.494 186.455C807.494 196.818 805.479 205.561 801.449 212.682C797.419 219.773 791.979 225.152 785.131 228.818C778.282 232.455 770.646 234.273 762.222 234.273C753.737 234.273 746.07 232.439 739.222 228.773C732.403 225.076 726.979 219.682 722.949 212.591C718.949 205.47 716.949 196.758 716.949 186.455C716.949 176.091 718.949 167.364 722.949 160.273C726.979 153.152 732.403 147.773 739.222 144.136C746.07 140.47 753.737 138.636 762.222 138.636C770.646 138.636 778.282 140.47 785.131 144.136C791.979 147.773 797.419 153.152 801.449 160.273C805.479 167.364 807.494 176.091 807.494 186.455ZM781.494 186.455C781.494 180.879 780.752 176.182 779.267 172.364C777.812 168.515 775.646 165.606 772.767 163.636C769.919 161.636 766.403 160.636 762.222 160.636C758.04 160.636 754.509 161.636 751.631 163.636C748.782 165.606 746.616 168.515 745.131 172.364C743.676 176.182 742.949 180.879 742.949 186.455C742.949 192.03 743.676 196.742 745.131 200.591C746.616 204.409 748.782 207.318 751.631 209.318C754.509 211.288 758.04 212.273 762.222 212.273C766.403 212.273 769.919 211.288 772.767 209.318C775.646 207.318 777.812 204.409 779.267 200.591C780.752 196.742 781.494 192.03 781.494 186.455ZM899.733 139.909V233H878.642L845.006 184.091H844.46V233H819.188V139.909H840.642L873.733 188.636H874.46V139.909H899.733ZM961.869 169C961.627 165.97 960.491 163.606 958.46 161.909C956.46 160.212 953.415 159.364 949.324 159.364C946.718 159.364 944.581 159.682 942.915 160.318C941.278 160.924 940.066 161.758 939.278 162.818C938.491 163.879 938.081 165.091 938.051 166.455C937.991 167.576 938.188 168.591 938.642 169.5C939.127 170.379 939.884 171.182 940.915 171.909C941.945 172.606 943.263 173.242 944.869 173.818C946.475 174.394 948.384 174.909 950.597 175.364L958.233 177C963.384 178.091 967.794 179.53 971.46 181.318C975.127 183.106 978.127 185.212 980.46 187.636C982.794 190.03 984.506 192.727 985.597 195.727C986.718 198.727 987.294 202 987.324 205.545C987.294 211.667 985.763 216.848 982.733 221.091C979.703 225.333 975.369 228.561 969.733 230.773C964.127 232.985 957.384 234.091 949.506 234.091C941.415 234.091 934.354 232.894 928.324 230.5C922.324 228.106 917.657 224.424 914.324 219.455C911.021 214.455 909.354 208.061 909.324 200.273H933.324C933.475 203.121 934.188 205.515 935.46 207.455C936.733 209.394 938.521 210.864 940.824 211.864C943.157 212.864 945.93 213.364 949.142 213.364C951.839 213.364 954.097 213.03 955.915 212.364C957.733 211.697 959.112 210.773 960.051 209.591C960.991 208.409 961.475 207.061 961.506 205.545C961.475 204.121 961.006 202.879 960.097 201.818C959.218 200.727 957.763 199.758 955.733 198.909C953.703 198.03 950.96 197.212 947.506 196.455L938.233 194.455C929.991 192.667 923.491 189.682 918.733 185.5C914.006 181.288 911.657 175.545 911.688 168.273C911.657 162.364 913.233 157.197 916.415 152.773C919.627 148.318 924.066 144.848 929.733 142.364C935.43 139.879 941.96 138.636 949.324 138.636C956.839 138.636 963.339 139.894 968.824 142.409C974.309 144.924 978.536 148.47 981.506 153.045C984.506 157.591 986.021 162.909 986.051 169H961.869Z" fill="white"/>
<line x1="289" y1="121" x2="905" y2="121" stroke="white" stroke-width="16"/>
<path d="M6.3125 30.9091L37.767 30.9091L59.4034 83.6364H60.4943L82.1307 30.9091L113.585 30.9091L113.585 124H88.858V70.1818H88.1307L67.4034 123.273H52.4943L31.767 69.8182H31.0398L31.0398 124H6.3125L6.3125 30.9091ZM125.562 124L125.562 30.9091L192.653 30.9091V51.2727L150.835 51.2727V67.2727H189.199V87.6364H150.835L150.835 103.636H192.472V124L125.562 124ZM255.369 60C255.127 56.9697 253.991 54.6061 251.96 52.9091C249.96 51.2121 246.915 50.3636 242.824 50.3636C240.218 50.3636 238.081 50.6818 236.415 51.3182C234.778 51.9242 233.566 52.7576 232.778 53.8182C231.991 54.8788 231.581 56.0909 231.551 57.4545C231.491 58.5758 231.688 59.5909 232.142 60.5C232.627 61.3788 233.384 62.1818 234.415 62.9091C235.445 63.6061 236.763 64.2424 238.369 64.8182C239.975 65.3939 241.884 65.9091 244.097 66.3636L251.733 68C256.884 69.0909 261.294 70.5303 264.96 72.3182C268.627 74.1061 271.627 76.2121 273.96 78.6364C276.294 81.0303 278.006 83.7273 279.097 86.7273C280.218 89.7273 280.794 93 280.824 96.5455C280.794 102.667 279.263 107.848 276.233 112.091C273.203 116.333 268.869 119.561 263.233 121.773C257.627 123.985 250.884 125.091 243.006 125.091C234.915 125.091 227.854 123.894 221.824 121.5C215.824 119.106 211.157 115.424 207.824 110.455C204.521 105.455 202.854 99.0606 202.824 91.2727L226.824 91.2727C226.975 94.1212 227.688 96.5152 228.96 98.4545C230.233 100.394 232.021 101.864 234.324 102.864C236.657 103.864 239.43 104.364 242.642 104.364C245.339 104.364 247.597 104.03 249.415 103.364C251.233 102.697 252.612 101.773 253.551 100.591C254.491 99.4091 254.975 98.0606 255.006 96.5455C254.975 95.1212 254.506 93.8788 253.597 92.8182C252.718 91.7273 251.263 90.7576 249.233 89.9091C247.203 89.0303 244.46 88.2121 241.006 87.4545L231.733 85.4545C223.491 83.6667 216.991 80.6818 212.233 76.5C207.506 72.2879 205.157 66.5455 205.188 59.2727C205.157 53.3636 206.733 48.197 209.915 43.7727C213.127 39.3182 217.566 35.8485 223.233 33.3636C228.93 30.8788 235.46 29.6364 242.824 29.6364C250.339 29.6364 256.839 30.8939 262.324 33.4091C267.809 35.9242 272.036 39.4697 275.006 44.0455C278.006 48.5909 279.521 53.9091 279.551 60H255.369Z" fill="white"/>
<path d="M351.756 124H315.938V30.9091L351.392 30.9091C360.968 30.9091 369.241 32.7727 376.21 36.5C383.21 40.197 388.604 45.5303 392.392 52.5C396.21 59.4394 398.119 67.7576 398.119 77.4545C398.119 87.1515 396.225 95.4848 392.438 102.455C388.65 109.394 383.286 114.727 376.347 118.455C369.407 122.152 361.21 124 351.756 124ZM341.21 102.545H350.847C355.453 102.545 359.377 101.803 362.619 100.318C365.892 98.8333 368.377 96.2727 370.074 92.6364C371.801 89 372.665 83.9394 372.665 77.4545C372.665 70.9697 371.786 65.9091 370.028 62.2727C368.301 58.6364 365.756 56.0758 362.392 54.5909C359.059 53.1061 354.968 52.3636 350.119 52.3636H341.21V102.545ZM409.812 124V30.9091L476.903 30.9091V51.2727L435.085 51.2727V67.2727H473.449V87.6364H435.085V103.636H476.722V124H409.812ZM489.438 124V30.9091L529.619 30.9091C536.528 30.9091 542.574 32.1667 547.756 34.6818C552.938 37.197 556.968 40.8182 559.847 45.5455C562.725 50.2727 564.165 55.9394 564.165 62.5455C564.165 69.2121 562.68 74.8333 559.71 79.4091C556.771 83.9848 552.634 87.4394 547.301 89.7727C541.998 92.1061 535.801 93.2727 528.71 93.2727H504.71V73.6364H523.619C526.589 73.6364 529.119 73.2727 531.21 72.5455C533.331 71.7879 534.953 70.5909 536.074 68.9545C537.225 67.3182 537.801 65.1818 537.801 62.5455C537.801 59.8788 537.225 57.7121 536.074 56.0455C534.953 54.3485 533.331 53.1061 531.21 52.3182C529.119 51.5 526.589 51.0909 523.619 51.0909H514.71V124H489.438ZM543.983 81.2727L567.256 124H539.801L517.074 81.2727H543.983ZM655.483 30.9091V124H634.392L600.756 75.0909H600.21V124H574.938V30.9091L596.392 30.9091L629.483 79.6364H630.21V30.9091L655.483 30.9091ZM692.71 30.9091V124H667.438V30.9091L692.71 30.9091ZM704.688 124V30.9091L771.778 30.9091V51.2727H729.96V67.2727L768.324 67.2727V87.6364L729.96 87.6364V103.636L771.597 103.636V124L704.688 124ZM730.324 22.1818L716.688 1.81818L738.142 1.81818L746.869 22.1818L730.324 22.1818ZM784.312 124V30.9091L824.494 30.9091C831.403 30.9091 837.449 32.1667 842.631 34.6818C847.813 37.197 851.843 40.8182 854.722 45.5455C857.6 50.2727 859.04 55.9394 859.04 62.5455C859.04 69.2121 857.555 74.8333 854.585 79.4091C851.646 83.9848 847.509 87.4394 842.176 89.7727C836.873 92.1061 830.676 93.2727 823.585 93.2727H799.585V73.6364H818.494C821.464 73.6364 823.994 73.2727 826.085 72.5455C828.206 71.7879 829.828 70.5909 830.949 68.9545C832.1 67.3182 832.676 65.1818 832.676 62.5455C832.676 59.8788 832.1 57.7121 830.949 56.0455C829.828 54.3485 828.206 53.1061 826.085 52.3182C823.994 51.5 821.464 51.0909 818.494 51.0909L809.585 51.0909V124H784.312ZM838.858 81.2727L862.131 124L834.676 124L811.949 81.2727H838.858ZM869.812 124V30.9091L936.903 30.9091V51.2727L895.085 51.2727V67.2727L933.449 67.2727V87.6364L895.085 87.6364V103.636L936.722 103.636V124L869.812 124ZM999.619 60C999.377 56.9697 998.241 54.6061 996.21 52.9091C994.21 51.2121 991.165 50.3636 987.074 50.3636C984.468 50.3636 982.331 50.6818 980.665 51.3182C979.028 51.9242 977.816 52.7576 977.028 53.8182C976.241 54.8788 975.831 56.0909 975.801 57.4545C975.741 58.5758 975.938 59.5909 976.392 60.5C976.877 61.3788 977.634 62.1818 978.665 62.9091C979.695 63.6061 981.013 64.2424 982.619 64.8182C984.225 65.3939 986.134 65.9091 988.347 66.3636L995.983 68C1001.13 69.0909 1005.54 70.5303 1009.21 72.3182C1012.88 74.1061 1015.88 76.2121 1018.21 78.6364C1020.54 81.0303 1022.26 83.7273 1023.35 86.7273C1024.47 89.7273 1025.04 93 1025.07 96.5455C1025.04 102.667 1023.51 107.848 1020.48 112.091C1017.45 116.333 1013.12 119.561 1007.48 121.773C1001.88 123.985 995.134 125.091 987.256 125.091C979.165 125.091 972.104 123.894 966.074 121.5C960.074 119.106 955.407 115.424 952.074 110.455C948.771 105.455 947.104 99.0606 947.074 91.2727H971.074C971.225 94.1212 971.938 96.5152 973.21 98.4545C974.483 100.394 976.271 101.864 978.574 102.864C980.907 103.864 983.68 104.364 986.892 104.364C989.589 104.364 991.847 104.03 993.665 103.364C995.483 102.697 996.862 101.773 997.801 100.591C998.741 99.4091 999.225 98.0606 999.256 96.5455C999.225 95.1212 998.756 93.8788 997.847 92.8182C996.968 91.7273 995.513 90.7576 993.483 89.9091C991.453 89.0303 988.71 88.2121 985.256 87.4545L975.983 85.4545C967.741 83.6667 961.241 80.6818 956.483 76.5C951.756 72.2879 949.407 66.5455 949.438 59.2727C949.407 53.3636 950.983 48.197 954.165 43.7727C957.377 39.3182 961.816 35.8485 967.483 33.3636C973.18 30.8788 979.71 29.6364 987.074 29.6364C994.589 29.6364 1001.09 30.8939 1006.57 33.4091C1012.06 35.9242 1016.29 39.4697 1019.26 44.0455C1022.26 48.5909 1023.77 53.9091 1023.8 60H999.619Z" fill="#FF9000"/>
</svg>