<svg width="18" height="18" viewBox="0 0 18 18" fill="none" xmlns="http://www.w3.org/2000/svg">
<path d="M9.00005 17C9.00005 16.4477 9.44777 16 10 16L16 16L16 2L10 2C9.44776 2 9.00005 1.55229 9.00005 1C9.00005 0.447718 9.44776 2.65501e-06 10 2.60673e-06L16 2.08219e-06C17.1046 1.98563e-06 18 0.895433 18 2L18 16C18 17.1046 17.1046 18 16 18L10.0001 18C9.44777 18 9.00005 17.5523 9.00005 17Z" fill="white"/>
<path d="M5.99997 5.41415L3.41421 7.99991L12 7.99991C12.5523 7.99991 13 8.44762 13 8.99991C13 9.55219 12.5523 9.99991 12 9.99991L3.41421 9.99991L6.00003 12.5857C6.39055 12.9762 6.39055 13.6094 6.00003 13.9999C5.60951 14.3905 4.97634 14.3905 4.58582 13.9999L0.292894 9.70701C0.105357 9.51948 -7.63627e-07 9.26512 -7.86813e-07 8.99991C-8.09999e-07 8.73469 0.105357 8.48034 0.292894 8.2928L4.58576 3.99994C4.97628 3.60941 5.60945 3.60941 5.99997 3.99994C6.3905 4.39046 6.3905 5.02362 5.99997 5.41415Z" fill="white"/>
</svg>
