<svg width="17" height="10" viewBox="0 0 17 10" fill="none" xmlns="http://www.w3.org/2000/svg">
<path d="M7.14333 9.99811L1.39934 9.99902C0.652909 10.0001 0.0152924 10.0001 0.00818791 9.05322L0.00842571 1.61465C0.0082544 1.32284 -0.0172036 1.00519 0.0214307 0.716061C0.136334 -0.143814 1.03958 0.0107368 1.65073 0.0108802L9.88847 0.0111667L15.6397 0.010498C15.8642 0.0101157 16.1077 -0.0101951 16.3293 0.0216805C17.1083 0.133651 16.9942 0.997446 16.9942 1.55386L16.9949 8.70952C16.9974 10.0954 16.4185 9.99873 15.2568 9.99844L7.14333 9.99811ZM0.739937 0.510854C0.77859 0.572741 2.30322 1.51682 2.52277 1.65484L7.62137 4.93334C7.90888 5.11962 8.19501 5.32019 8.4917 5.4907C8.70251 5.36306 8.90574 5.22203 9.11245 5.08774L10.1902 4.3926C11.1952 3.74424 12.2071 3.10424 13.204 2.44327C14.0249 1.90487 14.8573 1.38043 15.6891 0.858808C15.8776 0.740577 16.0651 0.612693 16.2629 0.510854H0.739937ZM16.4956 0.982774C16.2011 1.08705 15.8229 1.37226 15.5515 1.54659L12.3312 3.60933C11.9718 3.84106 11.597 4.05898 11.2537 4.31437C11.5061 4.51384 11.7364 4.74949 11.9751 4.96579L13.7965 6.63579L15.5549 8.25618C15.8675 8.54326 16.1968 8.82411 16.4956 9.12495L16.4954 2.24145C16.4954 2.08552 16.508 0.99974 16.4956 0.982774ZM0.510153 3.17282V9.12495C1.42204 8.28118 2.32496 7.42355 3.25244 6.59741L4.97222 5.02447C5.23293 4.78705 5.50388 4.55914 5.75775 4.31437C5.25221 4.01435 0.494873 1.0105 0.494873 1.0105L0.510153 3.17282ZM6.18449 4.58968L1.38435 8.99941C1.20895 9.16113 1.02778 9.31883 0.858657 9.487H12.2706H16.1503L11.5431 5.25071C11.3034 5.02834 11.0658 4.79661 10.8128 4.58968L9.28538 5.5729C8.98164 5.76784 8.62299 6.15828 8.30274 5.96803C7.64421 5.57682 6.80329 5.03565 6.18449 4.58968Z" fill="white"/>
</svg>
