<svg width="988" height="264" viewBox="0 0 988 264" fill="none" xmlns="http://www.w3.org/2000/svg">
<line x1="4" y1="235" x2="846" y2="235" stroke="#FF9000" stroke-width="16"/>
<path d="M23.0625 233L23.0625 139.909H63.2443C70.1534 139.909 76.1989 141.167 81.3807 143.682C86.5625 146.197 90.5928 149.818 93.4716 154.545C96.3504 159.273 97.7898 164.939 97.7898 171.545C97.7898 178.212 96.3049 183.833 93.3352 188.409C90.3958 192.985 86.2595 196.439 80.9261 198.773C75.6231 201.106 69.4261 202.273 62.3352 202.273H38.3352V182.636H57.2443C60.214 182.636 62.7443 182.273 64.8352 181.545C66.9564 180.788 68.5777 179.591 69.6989 177.955C70.8504 176.318 71.4261 174.182 71.4261 171.545C71.4261 168.879 70.8504 166.712 69.6989 165.045C68.5777 163.348 66.9564 162.106 64.8352 161.318C62.7443 160.5 60.214 160.091 57.2443 160.091H48.3352L48.3352 233H23.0625ZM77.608 190.273L100.881 233H73.4261L50.6989 190.273H77.608ZM108.562 233L108.562 139.909L175.653 139.909V160.273H133.835V176.273L172.199 176.273V196.636L133.835 196.636V212.636L175.472 212.636V233L108.562 233ZM134.017 131.182L142.744 110.818L164.199 110.818L150.562 131.182H134.017ZM212.369 233H185.097L215.824 139.909H250.369L281.097 233H253.824L233.46 165.545H232.733L212.369 233ZM207.278 196.273L258.551 196.273V215.182L207.278 215.182L207.278 196.273ZM290.062 233V139.909H315.335V212.636H352.972V233H290.062ZM388.46 139.909V233H363.188V139.909H388.46ZM450.619 169C450.377 165.97 449.241 163.606 447.21 161.909C445.21 160.212 442.165 159.364 438.074 159.364C435.468 159.364 433.331 159.682 431.665 160.318C430.028 160.924 428.816 161.758 428.028 162.818C427.241 163.879 426.831 165.091 426.801 166.455C426.741 167.576 426.938 168.591 427.392 169.5C427.877 170.379 428.634 171.182 429.665 171.909C430.695 172.606 432.013 173.242 433.619 173.818C435.225 174.394 437.134 174.909 439.347 175.364L446.983 177C452.134 178.091 456.544 179.53 460.21 181.318C463.877 183.106 466.877 185.212 469.21 187.636C471.544 190.03 473.256 192.727 474.347 195.727C475.468 198.727 476.044 202 476.074 205.545C476.044 211.667 474.513 216.848 471.483 221.091C468.453 225.333 464.119 228.561 458.483 230.773C452.877 232.985 446.134 234.091 438.256 234.091C430.165 234.091 423.104 232.894 417.074 230.5C411.074 228.106 406.407 224.424 403.074 219.455C399.771 214.455 398.104 208.061 398.074 200.273H422.074C422.225 203.121 422.938 205.515 424.21 207.455C425.483 209.394 427.271 210.864 429.574 211.864C431.907 212.864 434.68 213.364 437.892 213.364C440.589 213.364 442.847 213.03 444.665 212.364C446.483 211.697 447.862 210.773 448.801 209.591C449.741 208.409 450.225 207.061 450.256 205.545C450.225 204.121 449.756 202.879 448.847 201.818C447.968 200.727 446.513 199.758 444.483 198.909C442.453 198.03 439.71 197.212 436.256 196.455L426.983 194.455C418.741 192.667 412.241 189.682 407.483 185.5C402.756 181.288 400.407 175.545 400.438 168.273C400.407 162.364 401.983 157.197 405.165 152.773C408.377 148.318 412.816 144.848 418.483 142.364C424.18 139.879 430.71 138.636 438.074 138.636C445.589 138.636 452.089 139.894 457.574 142.409C463.059 144.924 467.286 148.47 470.256 153.045C473.256 157.591 474.771 162.909 474.801 169H450.619ZM506.244 233L478.972 233L509.699 139.909H544.244L574.972 233H547.699L527.335 165.545H526.608L506.244 233ZM501.153 196.273L552.426 196.273V215.182L501.153 215.182V196.273ZM569.642 160.273V139.909L650.551 139.909V160.273H622.551V233H597.642V160.273H569.642ZM685.335 139.909V233H660.062V139.909H685.335ZM787.494 186.455C787.494 196.818 785.479 205.561 781.449 212.682C777.419 219.773 771.979 225.152 765.131 228.818C758.282 232.455 750.646 234.273 742.222 234.273C733.737 234.273 726.07 232.439 719.222 228.773C712.403 225.076 706.979 219.682 702.949 212.591C698.949 205.47 696.949 196.758 696.949 186.455C696.949 176.091 698.949 167.364 702.949 160.273C706.979 153.152 712.403 147.773 719.222 144.136C726.07 140.47 733.737 138.636 742.222 138.636C750.646 138.636 758.282 140.47 765.131 144.136C771.979 147.773 777.419 153.152 781.449 160.273C785.479 167.364 787.494 176.091 787.494 186.455ZM761.494 186.455C761.494 180.879 760.752 176.182 759.267 172.364C757.812 168.515 755.646 165.606 752.767 163.636C749.919 161.636 746.403 160.636 742.222 160.636C738.04 160.636 734.509 161.636 731.631 163.636C728.782 165.606 726.616 168.515 725.131 172.364C723.676 176.182 722.949 180.879 722.949 186.455C722.949 192.03 723.676 196.742 725.131 200.591C726.616 204.409 728.782 207.318 731.631 209.318C734.509 211.288 738.04 212.273 742.222 212.273C746.403 212.273 749.919 211.288 752.767 209.318C755.646 207.318 757.812 204.409 759.267 200.591C760.752 196.742 761.494 192.03 761.494 186.455ZM879.733 139.909V233H858.642L825.006 184.091H824.46V233H799.188V139.909H820.642L853.733 188.636H854.46V139.909H879.733ZM941.869 169C941.627 165.97 940.491 163.606 938.46 161.909C936.46 160.212 933.415 159.364 929.324 159.364C926.718 159.364 924.581 159.682 922.915 160.318C921.278 160.924 920.066 161.758 919.278 162.818C918.491 163.879 918.081 165.091 918.051 166.455C917.991 167.576 918.188 168.591 918.642 169.5C919.127 170.379 919.884 171.182 920.915 171.909C921.945 172.606 923.263 173.242 924.869 173.818C926.475 174.394 928.384 174.909 930.597 175.364L938.233 177C943.384 178.091 947.794 179.53 951.46 181.318C955.127 183.106 958.127 185.212 960.46 187.636C962.794 190.03 964.506 192.727 965.597 195.727C966.718 198.727 967.294 202 967.324 205.545C967.294 211.667 965.763 216.848 962.733 221.091C959.703 225.333 955.369 228.561 949.733 230.773C944.127 232.985 937.384 234.091 929.506 234.091C921.415 234.091 914.354 232.894 908.324 230.5C902.324 228.106 897.657 224.424 894.324 219.455C891.021 214.455 889.354 208.061 889.324 200.273H913.324C913.475 203.121 914.188 205.515 915.46 207.455C916.733 209.394 918.521 210.864 920.824 211.864C923.157 212.864 925.93 213.364 929.142 213.364C931.839 213.364 934.097 213.03 935.915 212.364C937.733 211.697 939.112 210.773 940.051 209.591C940.991 208.409 941.475 207.061 941.506 205.545C941.475 204.121 941.006 202.879 940.097 201.818C939.218 200.727 937.763 199.758 935.733 198.909C933.703 198.03 930.96 197.212 927.506 196.455L918.233 194.455C909.991 192.667 903.491 189.682 898.733 185.5C894.006 181.288 891.657 175.545 891.688 168.273C891.657 162.364 893.233 157.197 896.415 152.773C899.627 148.318 904.066 144.848 909.733 142.364C915.43 139.879 921.96 138.636 929.324 138.636C936.839 138.636 943.339 139.894 948.824 142.409C954.309 144.924 958.536 148.47 961.506 153.045C964.506 157.591 966.021 162.909 966.051 169H941.869Z" fill="white"/>
<line x1="17" y1="121" x2="885" y2="121" stroke="white" stroke-width="16"/>
<path d="M31.517 30.9091L50.608 96.5455H51.3352L70.4261 30.9091L98.9716 30.9091L68.2443 124L33.6989 124L2.97159 30.9091L31.517 30.9091ZM192.244 77.4545C192.244 87.8182 190.229 96.5606 186.199 103.682C182.169 110.773 176.729 116.152 169.881 119.818C163.032 123.455 155.396 125.273 146.972 125.273C138.487 125.273 130.82 123.439 123.972 119.773C117.153 116.076 111.729 110.682 107.699 103.591C103.699 96.4697 101.699 87.7576 101.699 77.4545C101.699 67.0909 103.699 58.3636 107.699 51.2727C111.729 44.1515 117.153 38.7727 123.972 35.1364C130.82 31.4697 138.487 29.6364 146.972 29.6364C155.396 29.6364 163.032 31.4697 169.881 35.1364C176.729 38.7727 182.169 44.1515 186.199 51.2727C190.229 58.3636 192.244 67.0909 192.244 77.4545ZM166.244 77.4545C166.244 71.8788 165.502 67.1818 164.017 63.3636C162.562 59.5151 160.396 56.6061 157.517 54.6364C154.669 52.6364 151.153 51.6364 146.972 51.6364C142.79 51.6364 139.259 52.6364 136.381 54.6364C133.532 56.6061 131.366 59.5151 129.881 63.3636C128.426 67.1818 127.699 71.8788 127.699 77.4545C127.699 83.0303 128.426 87.7424 129.881 91.5909C131.366 95.4091 133.532 98.3182 136.381 100.318C139.259 102.288 142.79 103.273 146.972 103.273C151.153 103.273 154.669 102.288 157.517 100.318C160.396 98.3182 162.562 95.4091 164.017 91.5909C165.502 87.7424 166.244 83.0303 166.244 77.4545ZM229.21 30.9091L229.21 124L203.937 124L203.938 30.9091L229.21 30.9091ZM241.187 124L241.188 30.9091L281.369 30.9091C288.278 30.9091 294.324 32.1667 299.506 34.6818C304.688 37.197 308.718 40.8182 311.597 45.5455C314.475 50.2727 315.915 55.9394 315.915 62.5455C315.915 69.2121 314.43 74.8333 311.46 79.4091C308.521 83.9848 304.384 87.4394 299.051 89.7727C293.748 92.1061 287.551 93.2727 280.46 93.2727H256.46V73.6364H275.369C278.339 73.6364 280.869 73.2727 282.96 72.5455C285.081 71.7879 286.703 70.5909 287.824 68.9545C288.975 67.3182 289.551 65.1818 289.551 62.5455C289.551 59.8788 288.975 57.7121 287.824 56.0455C286.703 54.3485 285.081 53.1061 282.96 52.3182C280.869 51.5 278.339 51.0909 275.369 51.0909H266.46V124H241.187ZM295.733 81.2727L319.006 124L291.551 124L268.824 81.2727H295.733Z" fill="white"/>
<path d="M388.006 124H352.188V30.9091L387.642 30.9091C397.218 30.9091 405.491 32.7727 412.46 36.5C419.46 40.197 424.854 45.5303 428.642 52.5C432.46 59.4394 434.369 67.7576 434.369 77.4545C434.369 87.1515 432.475 95.4848 428.688 102.455C424.9 109.394 419.536 114.727 412.597 118.455C405.657 122.152 397.46 124 388.006 124ZM377.46 102.545H387.097C391.703 102.545 395.627 101.803 398.869 100.318C402.142 98.8333 404.627 96.2727 406.324 92.6364C408.051 89 408.915 83.9394 408.915 77.4545C408.915 70.9697 408.036 65.9091 406.278 62.2727C404.551 58.6364 402.006 56.0758 398.642 54.5909C395.309 53.1061 391.218 52.3636 386.369 52.3636H377.46V102.545ZM467.153 30.9091V41.8182C467.153 44.7879 466.547 47.7576 465.335 50.7273C464.153 53.6667 462.638 56.4091 460.79 58.9545C458.972 61.4697 457.093 63.5758 455.153 65.2727L444.79 60C446.063 57.8182 447.199 55.2879 448.199 52.4091C449.199 49.5303 449.699 46 449.699 41.8182V30.9091L467.153 30.9091ZM485.619 124H458.347L489.074 30.9091L523.619 30.9091L554.347 124H527.074L506.71 56.5455H505.983L485.619 124ZM480.528 87.2727L531.801 87.2727V106.182L480.528 106.182V87.2727ZM618.403 30.9091L643.676 30.9091V90.5455C643.676 97.6364 641.979 103.773 638.585 108.955C635.222 114.106 630.525 118.091 624.494 120.909C618.464 123.697 611.464 125.091 603.494 125.091C595.464 125.091 588.434 123.697 582.403 120.909C576.373 118.091 571.676 114.106 568.312 108.955C564.979 103.773 563.312 97.6364 563.312 90.5455V30.9091L588.585 30.9091V88.3636C588.585 91.2424 589.222 93.8182 590.494 96.0909C591.767 98.3333 593.525 100.091 595.767 101.364C598.04 102.636 600.616 103.273 603.494 103.273C606.403 103.273 608.979 102.636 611.222 101.364C613.464 100.091 615.222 98.3333 616.494 96.0909C617.767 93.8182 618.403 91.2424 618.403 88.3636V30.9091ZM653.142 51.2727V30.9091L734.051 30.9091V51.2727L706.051 51.2727V124H681.142V51.2727H653.142ZM743.562 124V30.9091L783.744 30.9091C790.653 30.9091 796.699 32.1667 801.881 34.6818C807.063 37.197 811.093 40.8182 813.972 45.5455C816.85 50.2727 818.29 55.9394 818.29 62.5455C818.29 69.2121 816.805 74.8333 813.835 79.4091C810.896 83.9848 806.759 87.4394 801.426 89.7727C796.123 92.1061 789.926 93.2727 782.835 93.2727H758.835V73.6364H777.744C780.714 73.6364 783.244 73.2727 785.335 72.5455C787.456 71.7879 789.078 70.5909 790.199 68.9545C791.35 67.3182 791.926 65.1818 791.926 62.5455C791.926 59.8788 791.35 57.7121 790.199 56.0455C789.078 54.3485 787.456 53.1061 785.335 52.3182C783.244 51.5 780.714 51.0909 777.744 51.0909L768.835 51.0909V124L743.562 124ZM798.108 81.2727L821.381 124H793.926L771.199 81.2727H798.108ZM829.062 124V30.9091L896.153 30.9091V51.2727L854.335 51.2727V67.2727H892.699V87.6364H854.335V103.636H895.972V124L829.062 124ZM958.869 60C958.627 56.9697 957.491 54.6061 955.46 52.9091C953.46 51.2121 950.415 50.3636 946.324 50.3636C943.718 50.3636 941.581 50.6818 939.915 51.3182C938.278 51.9242 937.066 52.7576 936.278 53.8182C935.491 54.8788 935.081 56.0909 935.051 57.4545C934.991 58.5758 935.188 59.5909 935.642 60.5C936.127 61.3788 936.884 62.1818 937.915 62.9091C938.945 63.6061 940.263 64.2424 941.869 64.8182C943.475 65.3939 945.384 65.9091 947.597 66.3636L955.233 68C960.384 69.0909 964.794 70.5303 968.46 72.3182C972.127 74.1061 975.127 76.2121 977.46 78.6364C979.794 81.0303 981.506 83.7273 982.597 86.7273C983.718 89.7273 984.294 93 984.324 96.5455C984.294 102.667 982.763 107.848 979.733 112.091C976.703 116.333 972.369 119.561 966.733 121.773C961.127 123.985 954.384 125.091 946.506 125.091C938.415 125.091 931.354 123.894 925.324 121.5C919.324 119.106 914.657 115.424 911.324 110.455C908.021 105.455 906.354 99.0606 906.324 91.2727L930.324 91.2727C930.475 94.1212 931.188 96.5152 932.46 98.4545C933.733 100.394 935.521 101.864 937.824 102.864C940.157 103.864 942.93 104.364 946.142 104.364C948.839 104.364 951.097 104.03 952.915 103.364C954.733 102.697 956.112 101.773 957.051 100.591C957.991 99.4091 958.475 98.0606 958.506 96.5455C958.475 95.1212 958.006 93.8788 957.097 92.8182C956.218 91.7273 954.763 90.7576 952.733 89.9091C950.703 89.0303 947.96 88.2121 944.506 87.4545L935.233 85.4545C926.991 83.6667 920.491 80.6818 915.733 76.5C911.006 72.2879 908.657 66.5455 908.688 59.2727C908.657 53.3636 910.233 48.197 913.415 43.7727C916.627 39.3182 921.066 35.8485 926.733 33.3636C932.43 30.8788 938.96 29.6364 946.324 29.6364C953.839 29.6364 960.339 30.8939 965.824 33.4091C971.309 35.9242 975.536 39.4697 978.506 44.0455C981.506 48.5909 983.021 53.9091 983.051 60H958.869Z" fill="#FF9000"/>
</svg>
