<svg width="25" height="25" viewBox="0 0 25 25" fill="none" xmlns="http://www.w3.org/2000/svg">
<path d="M13.6528 21.3505C16.2261 22.6456 19.2764 23.5631 22.8775 23.9141C23.4524 23.9701 23.9408 23.511 23.9408 22.9334V19.0308C23.9408 18.5719 23.6285 18.1719 23.1833 18.0606L18.7401 16.9498C18.3993 16.8646 18.0388 16.9645 17.7904 17.2129L13.6528 21.3505ZM13.6528 21.3505C9.17406 19.0963 6.14031 15.6984 4.16247 12.1533M4.16247 12.1533C2.17486 8.59071 1.25364 4.87945 1.00391 2.03101C0.954539 1.46782 1.40934 1 1.97468 1H5.87099C6.34767 1 6.75809 1.33646 6.85157 1.80388L8.02334 7.66271C8.08891 7.99057 7.98629 8.32951 7.74986 8.56593L4.16247 12.1533Z" stroke="white" stroke-width="2"/>
</svg>
