<svg width="908" height="507" viewBox="0 0 908 507" fill="none" xmlns="http://www.w3.org/2000/svg">
<path d="M0.330111 133.752C5.60746 129.949 11.275 126.706 17.0111 123.626C18.4472 122.861 19.8918 122.109 21.3494 121.374C22.8113 120.656 24.2647 119.913 25.7394 119.225C27.2099 118.524 28.6804 117.819 30.168 117.153C31.6513 116.474 33.1347 115.798 34.6309 115.153C40.607 112.547 46.6816 110.154 52.8035 107.898C58.9297 105.647 65.1416 103.647 71.3793 101.72C96.3727 94.1452 122.104 89.0951 148.027 86.006C160.97 84.4807 173.887 83.1649 186.821 81.8105L225.606 77.7687C232.066 77.068 238.527 76.363 244.983 75.6067C248.211 75.235 251.435 74.8291 254.659 74.4318C257.883 74.0387 261.107 73.6242 264.326 73.1799L269.153 72.5177L278.799 71.1035L283.609 70.3301C290.023 69.2919 296.41 68.0998 302.772 66.7967C309.113 65.4124 315.381 63.6863 321.618 61.8748C327.856 60.0589 334.046 58.0808 340.228 56.077L349.484 53.0221L358.714 49.8818L377.144 43.52C389.431 39.2688 401.705 34.9878 414.034 30.852C420.199 28.7798 426.372 26.7418 432.58 24.785C438.783 22.8324 444.999 20.9013 451.258 19.1239C457.517 17.3422 463.811 15.6545 470.152 14.1549C476.496 12.6766 482.88 11.3692 489.285 10.1985C502.099 7.88279 514.998 6.04557 527.932 4.61C553.813 1.83285 579.831 0.324681 605.845 0.371679C592.842 0.640849 579.853 1.30311 566.889 2.20461C553.92 3.0933 540.978 4.30244 528.078 5.85337C515.174 7.3573 502.317 9.2586 489.555 11.6384C483.175 12.839 476.826 14.1891 470.512 15.6716C464.201 17.1585 457.929 18.8376 451.683 20.6064C439.19 24.1484 426.797 28.0492 414.424 32.0355C402.06 36.0345 389.731 40.1533 377.41 44.3019L358.916 50.4928L349.655 53.5476L340.387 56.5811C334.201 58.585 327.993 60.5246 321.764 62.3917C315.531 64.2417 309.263 65.9977 302.905 67.4248C296.548 68.8219 290.169 70.1123 283.764 71.2445L278.962 72.1203L274.156 72.9578L269.346 73.7866L264.532 74.5727L259.718 75.3717L254.899 76.1451C251.688 76.6578 248.473 77.1748 245.257 77.6576C238.827 78.6616 232.392 79.6229 225.957 80.5671C213.079 82.4427 200.188 84.203 187.275 85.8052C180.819 86.5956 174.367 87.4074 167.902 88.138L148.533 90.3384C122.811 93.3292 97.2644 97.982 72.2924 104.865C66.0547 106.595 59.86 108.484 53.6952 110.475C47.5433 112.491 41.4429 114.679 35.4024 117.029C29.3577 119.366 23.39 121.904 17.5168 124.647C14.5759 126.014 11.6736 127.458 8.79702 128.958C5.92899 130.457 3.08239 132.021 0.330111 133.752Z" fill="#494949"/>
<path d="M8.11963 143.284C9.68441 142.801 11.1679 142.113 12.6598 141.442C14.1474 140.767 15.6262 140.066 17.1053 139.37L26.0053 135.221C31.96 132.491 37.9747 129.885 44.0366 127.385C50.1071 124.907 56.2374 122.57 62.415 120.349C68.5926 118.127 74.8303 116.085 81.098 114.128C93.6376 110.218 106.374 106.95 119.206 104.104C120.805 103.733 122.417 103.417 124.028 103.083C125.64 102.759 127.244 102.413 128.86 102.109C132.092 101.511 135.312 100.857 138.553 100.323L143.41 99.4815L148.28 98.7125C151.525 98.1827 154.779 97.7384 158.033 97.2855C183.996 93.8632 209.962 90.6715 235.92 87.2792C248.897 85.5701 261.861 83.7714 274.791 81.7462C287.712 79.6912 300.629 77.5251 313.391 74.6582L318.142 73.4619C318.93 73.2568 319.728 73.0774 320.512 72.8466L328.735 70.3985L329.901 70.0139L336.889 67.7153C338.445 67.2112 339.975 66.6344 341.519 66.1003C344.597 64.998 347.692 63.9384 350.753 62.7848C363.044 58.2986 375.206 53.4621 387.403 48.7238L405.696 41.5973L414.861 38.0682C417.914 36.8889 420.988 35.761 424.053 34.6032L428.653 32.8813L437.896 29.5445L440.206 28.7156L451.833 24.7422L461.204 21.7514C467.485 19.8587 473.783 17.9958 480.183 16.4705L482.575 15.8724C483.373 15.663 484.174 15.4964 484.98 15.3383L489.816 14.3898L494.652 13.4499C495.458 13.2833 496.268 13.1636 497.078 13.0312L504.371 11.8648C505.991 11.6084 507.607 11.3306 509.236 11.1384L518.994 9.86517L528.777 8.83125L531.22 8.57913L538.573 7.98102C551.644 6.96416 564.741 6.40443 577.842 6.24635C590.939 6.10535 604.044 6.29331 617.116 7.07091C604.032 6.5283 590.935 6.58384 577.855 6.95983C564.775 7.3529 551.712 8.15195 538.697 9.4038L531.379 10.1344L528.944 10.4334L519.217 11.6383L509.524 13.0824C507.907 13.3046 506.3 13.608 504.697 13.8942L497.468 15.1887C496.667 15.334 495.861 15.4665 495.063 15.6502L490.279 16.6714C487.09 17.3635 483.887 17.9788 480.732 18.782C474.378 20.2133 468.094 21.9821 461.822 23.7894L452.45 26.6477L440.807 30.463L433.853 32.86L429.214 34.4536L424.593 36.0986C412.268 40.4737 400.003 45.0367 387.759 49.6639L369.384 56.5811L360.18 59.9948L350.959 63.3701C347.894 64.5151 344.79 65.5662 341.703 66.6557C338.621 67.7623 335.508 68.7706 332.4 69.8045L330.068 70.5779L328.902 70.9667L327.727 71.3213L320.667 73.4405C319.882 73.6712 319.08 73.8549 318.287 74.0642L313.52 75.2777C312.727 75.4913 311.925 75.6537 311.128 75.8288L308.727 76.3544C307.124 76.6962 305.529 77.0721 303.926 77.384C300.715 78.0206 297.512 78.7256 294.297 79.328C287.871 80.5842 281.44 81.8318 274.997 82.9982C262.114 85.3652 249.214 87.6423 236.298 89.8427C210.472 94.2477 184.553 98.1656 158.586 101.515C145.661 103.207 132.787 105.356 120.02 108.001C116.826 108.663 113.632 109.317 110.456 110.047C107.27 110.74 104.102 111.517 100.93 112.265L96.1884 113.457L93.8176 114.059L91.4555 114.688C89.8779 115.106 88.2959 115.504 86.7268 115.939L82.0111 117.242C75.7305 119.016 69.4929 120.93 63.281 122.921C57.0648 124.912 50.8914 127.035 44.7567 129.278C38.6091 131.491 32.5216 133.858 26.4426 136.277L17.3412 139.947C15.8193 140.553 14.3016 141.164 12.7711 141.75C11.2578 142.318 9.7187 142.912 8.11963 143.284Z" fill="#494949"/>
<path d="M15.9092 152.816L18.2756 152.094L19.4546 151.73C19.849 151.611 20.2348 151.461 20.6249 151.325C22.1768 150.765 23.7373 150.248 25.2764 149.658L29.9107 147.932L34.5321 146.168C40.6925 143.809 46.8661 141.481 53.0566 139.186C59.2556 136.918 65.4846 134.713 71.7351 132.577C74.869 131.526 77.9986 130.47 81.1453 129.462L90.6023 126.484L100.111 123.66L102.49 122.963L114.46 119.716L124.089 117.319C125.696 116.926 127.295 116.499 128.911 116.157L138.604 114.012C139.415 113.837 140.221 113.649 141.031 113.487L154.437 110.889L155.663 110.684L167.911 108.65C193.98 104.681 220.071 100.763 246.149 96.7301C259.186 94.6964 272.21 92.5814 285.196 90.2742C291.686 89.1036 298.177 87.9286 304.65 86.6511C307.887 86.0145 311.115 85.3523 314.343 84.6858L319.175 83.6348C320.787 83.2845 322.399 82.9469 323.989 82.5325C330.372 80.9388 336.631 78.8495 342.831 76.615C349.03 74.3762 355.147 71.9195 361.248 69.4286C367.348 66.9378 373.414 64.3443 379.468 61.7338C385.525 59.1276 391.566 56.4829 397.606 53.8339C409.696 48.5573 421.785 43.2636 433.994 38.2349C440.095 35.7055 446.234 33.2701 452.416 30.9245C458.594 28.5746 464.823 26.3401 471.112 24.2636C477.401 22.1914 483.754 20.2688 490.198 18.6282L495.051 17.4703C496.676 17.1413 498.309 16.8551 499.942 16.556L507.286 15.2272L519.59 13.484L529.467 12.4287C530.29 12.3475 531.113 12.2408 531.936 12.1767L539.362 11.6127C541.012 11.4973 542.658 11.335 544.313 11.2623L549.269 11.023C562.482 10.3864 575.711 10.3267 588.911 10.7796C592.212 10.9078 595.513 11.0103 598.81 11.2154L603.753 11.4931L608.691 11.8434C615.276 12.339 621.853 12.9329 628.395 13.7746C621.831 13.1038 615.247 12.6808 608.657 12.3561L603.714 12.1339L598.771 11.9844C595.479 11.8647 592.178 11.8434 588.885 11.8049C575.703 11.6939 562.52 12.0955 549.389 13.0739L544.467 13.4414C542.826 13.5567 541.192 13.7617 539.554 13.9155L532.193 14.6675C531.375 14.753 530.564 14.8769 529.746 14.9837L519.971 16.2868L510.253 17.919L507.826 18.3291L500.598 19.833C498.99 20.1663 497.387 20.4996 495.775 20.8115L490.987 21.8753C484.612 23.3707 478.293 25.1523 472.021 27.0921C465.744 29.0318 459.511 31.1381 453.32 33.3641C447.13 35.5944 440.952 37.8803 434.813 40.2686C422.527 45.0239 410.317 50.0099 398.133 55.0643L379.858 62.6524C373.762 65.1731 367.657 67.6726 361.535 70.1293C355.409 72.586 349.253 74.953 343.041 77.2003C336.829 79.4306 330.552 81.5156 324.13 83.1093C322.527 83.5195 320.915 83.874 319.303 84.2286L314.472 85.3053L304.787 87.3647L295.094 89.3771C291.862 90.0308 288.629 90.71 285.393 91.3466C272.454 93.9529 259.503 96.5122 246.539 99.0074C220.616 104.002 194.615 108.638 168.494 112.547C162.012 113.619 155.5 114.538 149.052 115.828L141.785 117.191C140.979 117.345 140.178 117.529 139.372 117.7L129.722 119.746C128.11 120.067 126.515 120.464 124.912 120.831L115.3 123.074L110.52 124.292C104.136 125.877 97.7918 127.633 91.4384 129.359L81.9512 132.102C78.7916 133.03 75.6535 134.025 72.4939 134.961C66.1963 136.888 59.9201 138.896 53.6567 140.947C50.5186 141.955 47.3934 143.006 44.2595 144.036L34.8666 147.155L30.1636 148.697L25.4436 150.197C23.8703 150.696 22.2713 151.128 20.6894 151.594C20.2907 151.705 19.9004 151.833 19.4975 151.931L18.2928 152.226L15.9092 152.816Z" fill="#494949"/>
<path d="M23.6989 162.352L28.5047 161.002C30.1037 160.54 31.6898 160.036 33.2803 159.558C34.875 159.083 36.4613 158.584 38.0475 158.079L42.8018 156.575L61.7977 150.444L71.3106 147.415C74.483 146.407 77.6555 145.407 80.8365 144.42C84.0132 143.42 87.1984 142.45 90.388 141.498C93.5775 140.541 96.7629 139.571 99.9653 138.652C112.745 134.884 125.619 131.415 138.583 128.266C151.551 125.147 164.614 122.387 177.762 120.058L217.066 113.137L256.374 106.151C269.471 103.793 282.559 101.366 295.617 98.7809C302.142 97.4692 308.667 96.1703 315.175 94.786C318.424 94.0811 321.683 93.3932 324.928 92.6669C328.169 91.9192 331.436 91.2484 334.634 90.3853C335.44 90.1931 336.228 89.9325 337.026 89.7018L339.409 88.9882C340.983 88.4584 342.565 87.9585 344.13 87.3988C347.259 86.288 350.367 85.113 353.454 83.8783C359.627 81.4173 365.711 78.7299 371.764 75.9869C377.821 73.2439 383.832 70.3984 389.834 67.5358C395.836 64.6775 401.825 61.7722 407.814 58.8754C419.8 53.0989 431.795 47.314 443.949 41.8409C450.02 39.0936 456.146 36.4489 462.319 33.911C468.488 31.3603 474.734 28.972 481.049 26.7417C487.364 24.52 493.756 22.4564 500.272 20.7644C503.53 19.9227 506.819 19.1025 510.124 18.5684L512.602 18.124C513.429 17.9788 514.257 17.8592 515.088 17.7267C516.747 17.4746 518.398 17.1884 520.061 16.9705C526.698 16.0177 533.368 15.3383 540.039 14.8171C546.71 14.3044 553.393 13.9882 560.076 13.8772C573.439 13.6379 586.798 14.0908 600.087 15.1718C606.732 15.7144 613.364 16.415 619.971 17.2909C626.573 18.1711 633.162 19.1794 639.691 20.491C633.119 19.4229 626.508 18.6581 619.889 18.0258C613.27 17.3934 606.634 16.9534 599.997 16.6286C586.72 16.0049 573.426 16.0048 560.179 16.697C553.556 17.0345 546.95 17.5728 540.369 18.3034C533.788 19.0426 527.233 19.9356 520.726 21.0977C514.222 22.247 507.766 23.6954 501.366 25.0968C494.961 26.5879 488.62 28.455 482.331 30.493C469.744 34.5604 457.385 39.4269 445.115 44.5026C432.854 49.6083 420.692 54.9917 408.572 60.4733L390.391 68.7065C384.325 71.4452 378.25 74.1625 372.154 76.8371C366.058 79.516 359.914 82.0795 353.715 84.5191C350.616 85.7325 347.491 86.8947 344.344 87.9885C342.771 88.5354 341.176 89.031 339.594 89.5522L337.193 90.2572C336.391 90.4837 335.598 90.74 334.784 90.9279C331.551 91.7782 328.298 92.4618 325.052 93.2095L315.303 95.3757L295.797 99.6397L256.755 108.061C230.712 113.615 204.621 118.947 178.358 123.476C165.278 125.724 152.276 128.415 139.337 131.414C136.105 132.179 132.868 132.914 129.64 133.7L119.969 136.11C113.538 137.785 107.103 139.447 100.69 141.19C97.4788 142.04 94.2763 142.946 91.0739 143.835L81.471 146.531C78.2686 147.428 75.0704 148.338 71.8722 149.257L62.2823 152.017C55.8817 153.837 49.4853 155.687 43.0676 157.464C36.6456 159.207 30.2109 160.955 23.6989 162.352Z" fill="#494949"/>
<path d="M31.4926 171.884C44.4866 168.462 57.4206 164.83 70.3546 161.207L89.7706 155.802C96.2441 154.003 102.731 152.243 109.217 150.487C122.185 146.962 135.205 143.604 148.254 140.365C161.313 137.161 174.435 134.162 187.631 131.504L266.624 115.495C279.79 112.808 292.947 110.078 306.078 107.232C312.637 105.788 319.209 104.378 325.755 102.874L335.573 100.614L340.481 99.473C341.304 99.2936 342.106 99.0629 342.916 98.8535C343.722 98.6356 344.541 98.4433 345.339 98.1913C351.752 96.2515 357.985 93.7393 364.129 91.0562C370.276 88.373 376.308 85.4336 382.323 82.4556C388.333 79.4691 394.284 76.3672 400.23 73.2525C406.18 70.1464 412.109 66.989 418.042 63.8487C429.922 57.5766 441.818 51.3088 453.921 45.3999C466.023 39.4953 478.314 33.894 491.008 29.1387C497.348 26.746 503.805 24.6055 510.398 22.811C511.221 22.5888 512.04 22.3453 512.867 22.1316L515.363 21.5164C516.194 21.3156 517.03 21.1191 517.866 20.944C518.702 20.7731 519.543 20.6534 520.383 20.5039C522.063 20.2304 523.731 19.9227 525.416 19.6792L530.462 18.9657C537.196 18.0984 543.957 17.4789 550.718 17.0859C557.478 16.6885 564.252 16.5774 571.008 16.6372C584.525 16.7782 598.008 17.7566 611.375 19.4912C618.059 20.3543 624.708 21.4267 631.319 22.6914C637.925 23.9731 644.506 25.3959 650.983 27.1904C644.428 25.7078 637.801 24.6012 631.16 23.6441C624.515 22.6956 617.844 21.9693 611.169 21.3839C597.815 20.2389 584.405 19.8545 571.051 20.3031C564.376 20.5338 557.706 20.9354 551.074 21.619C544.442 22.294 537.84 23.1956 531.289 24.3321L526.389 25.2463C524.755 25.554 523.139 25.93 521.515 26.2675C520.704 26.4427 519.89 26.605 519.084 26.793C518.282 26.9896 517.476 27.1562 516.67 27.3228L514.248 27.8056C513.442 27.9765 512.64 28.1859 511.839 28.3781C505.412 29.9162 499.042 31.809 492.74 33.9624C480.123 38.2221 467.742 43.3277 455.49 48.741C443.246 54.1799 431.122 59.935 419.054 65.8226L400.954 74.6752C394.918 77.6233 388.869 80.55 382.803 83.4425C376.728 86.3222 370.606 89.0951 364.42 91.7313C358.23 94.346 351.949 96.7942 345.48 98.6741C344.674 98.9176 343.851 99.1014 343.036 99.3235C342.222 99.5286 341.407 99.7636 340.588 99.9388L335.68 101.071L306.211 107.83L266.937 116.931C240.756 123.01 214.545 128.958 188.18 134.247C175.019 136.845 161.93 139.789 148.868 142.899C135.801 145.971 122.781 149.265 109.753 152.538L70.6933 162.484C57.6607 165.744 44.6238 169.034 31.4926 171.884Z" fill="#494949"/>
<path d="M39.2821 181.416L49.1553 178.934L78.7958 171.589L118.352 161.946L138.137 157.156L157.93 152.393L197.534 142.95L217.349 138.289L237.181 133.7L296.723 120.114C303.338 118.601 309.958 117.097 316.56 115.542C323.17 114 329.777 112.466 336.379 110.885L346.282 108.531C347.932 108.134 349.587 107.758 351.229 107.343C352.871 106.937 354.491 106.446 356.103 105.933C362.542 103.84 368.746 101.075 374.85 98.1486C380.947 95.192 386.94 92.0346 392.869 88.7533C404.736 82.2035 416.396 75.2862 428.108 68.4203C439.829 61.5672 451.602 54.7696 463.648 48.3907C475.699 42.0289 488.024 36.0601 500.86 31.1082C504.066 29.8607 507.312 28.7071 510.587 27.6176C513.862 26.5238 517.172 25.507 520.529 24.6226C523.877 23.7339 527.285 22.9306 530.689 22.2769C534.076 21.6232 537.479 21.0635 540.892 20.5679C542.598 20.3159 544.305 20.0936 546.015 19.88C547.726 19.6877 549.44 19.4913 551.155 19.3332C554.585 19.0085 558.014 18.7308 561.453 18.5513C568.325 18.2095 575.206 18.1112 582.069 18.3462C595.796 18.7735 609.463 20.2988 622.899 22.8495C629.617 24.127 636.279 25.6565 642.859 27.468C649.431 29.2924 655.948 31.3432 662.254 33.9068C658.953 33.0822 655.639 32.3687 652.312 31.7022C648.99 31.0357 645.659 30.4161 642.323 29.8521C635.653 28.7199 628.965 27.7757 622.26 27.0152C608.859 25.5027 595.406 24.7294 581.987 24.8234C568.573 24.9259 555.189 25.8829 541.985 27.8996C538.684 28.4037 535.392 28.9634 532.121 29.6171C528.862 30.2495 525.656 30.9759 522.445 31.8175C516.036 33.5266 509.674 35.5388 503.389 37.8332C490.802 42.3963 478.443 47.7883 466.207 53.5006C453.968 59.213 441.853 65.2757 429.776 71.4496C417.691 77.602 405.67 83.9211 393.538 90.0222C390.503 91.5433 387.459 93.0472 384.406 94.5341C381.354 96.0166 378.272 97.4521 375.185 98.8621C372.094 100.268 368.977 101.622 365.822 102.887C362.667 104.147 359.486 105.356 356.241 106.365C353 107.403 349.668 108.121 346.372 108.907L336.464 111.244C329.858 112.791 323.26 114.38 316.662 115.969C310.06 117.542 303.471 119.161 296.882 120.78L237.571 135.341L217.786 140.135L197.984 144.856L158.351 154.179L138.523 158.797L118.691 163.386L79.0101 172.508L49.2238 179.237L39.2821 181.416Z" fill="#494949"/>
<path d="M46.8916 190.734C59.9971 187.214 73.0213 183.433 86.0067 179.51L95.7426 176.567L105.466 173.58L124.907 167.577L134.626 164.565L144.358 161.587C150.848 159.609 157.343 157.639 163.851 155.708C170.359 153.781 176.888 151.914 183.43 150.09L193.264 147.419L198.203 146.15C199.849 145.732 201.491 145.287 203.154 144.92C229.644 138.631 256.464 134.367 283.219 129.812L303.291 126.437C309.975 125.279 316.663 124.13 323.337 122.912C336.674 120.443 350.028 117.939 363.151 114.564C363.974 114.363 364.772 114.081 365.582 113.837C366.388 113.581 367.198 113.337 368.004 113.073C369.599 112.504 371.207 111.974 372.793 111.372C374.37 110.757 375.969 110.193 377.53 109.539C379.095 108.885 380.672 108.274 382.224 107.591C388.458 104.938 394.597 102.067 400.697 99.1099C406.789 96.1362 412.838 93.0856 418.865 89.9795L436.94 80.6398C442.963 77.5165 448.995 74.4061 455.057 71.347C461.119 68.2879 467.206 65.2629 473.358 62.3619C479.506 59.4523 485.701 56.6238 491.981 53.9577C495.115 52.6119 498.283 51.3473 501.456 50.0783L506.248 48.2582C507.847 47.6515 509.468 47.1003 511.076 46.5193C517.545 44.2719 524.104 42.2254 530.817 40.6232C537.548 39.0039 544.283 37.8802 551.069 36.9104C557.852 35.9533 564.655 35.2483 571.471 34.7399C578.288 34.2614 585.113 33.9581 591.933 33.847C605.579 33.612 619.212 34.0862 632.785 35.1543C639.571 35.6756 646.34 36.4105 653.088 37.2308C659.832 38.0981 666.567 39.0723 673.237 40.3712L673.22 40.478C669.838 40.1703 666.455 39.9139 663.073 39.679C659.69 39.4311 656.304 39.2432 652.921 39.0552C646.156 38.6664 639.387 38.4229 632.617 38.2434C619.088 37.9059 605.558 37.9486 592.071 38.551C585.327 38.8587 578.597 39.2773 571.887 39.8797C565.174 40.4736 558.49 41.2726 551.837 42.2382C548.506 42.7039 545.2 43.285 541.891 43.8661L536.948 44.8188C535.306 45.1478 533.694 45.5366 532.065 45.8912C525.579 47.4379 519.144 49.3349 512.769 51.4626C506.39 53.569 500.075 55.9231 493.795 58.3927C487.514 60.8536 481.263 63.4215 475.06 66.1174C462.632 71.4581 450.315 77.1192 438.024 82.8486L419.599 91.4834C413.447 94.346 407.299 97.2214 401.122 100.024C394.948 102.84 388.728 105.566 382.447 108.138C376.15 110.667 369.805 113.124 363.25 114.931C356.678 116.683 350.033 118.033 343.397 119.451L333.425 121.498L323.44 123.476L303.458 127.364L283.472 131.222C270.144 133.781 256.824 136.358 243.53 139.037C240.203 139.686 236.881 140.361 233.562 141.045L228.581 142.066L223.612 143.121C221.957 143.472 220.294 143.805 218.639 144.168L213.679 145.262C210.365 145.967 207.086 146.783 203.793 147.556C190.636 150.718 177.591 154.414 164.562 158.161C158.046 160.028 151.534 161.929 145.031 163.839L125.508 169.572L105.963 175.251L96.1713 178.028L86.3668 180.762C73.2741 184.33 60.1386 187.778 46.8916 190.734Z" fill="#494949"/>
<path d="M54.5055 200.053C80.7379 192.751 106.156 183.095 131.565 173.409L141.091 169.765L150.642 166.163C157.013 163.775 163.401 161.416 169.818 159.126C171.417 158.541 173.029 157.99 174.646 157.443L179.486 155.789C181.093 155.225 182.722 154.713 184.343 154.187L190.431 152.222L199.013 149.65C200.655 149.175 202.31 148.744 203.956 148.291C205.607 147.847 207.249 147.377 208.912 146.971L213.915 145.813C215.583 145.433 217.246 145.018 218.922 144.706L226.459 143.198C227.299 143.036 228.139 142.899 228.98 142.75C235.702 141.553 242.441 140.528 249.189 139.558C252.563 139.097 255.941 138.635 259.319 138.208L269.458 136.956L279.601 135.794L289.748 134.67C303.278 133.192 316.804 131.744 330.295 129.996C343.77 128.202 357.261 126.258 370.465 123.019C377.041 121.319 383.472 119.093 389.842 116.726C396.213 114.359 402.498 111.769 408.757 109.116C415.016 106.467 421.245 103.741 427.448 100.96L446.054 92.59C452.253 89.7872 458.456 86.9973 464.681 84.25C470.906 81.5028 477.144 78.7684 483.433 76.1536C489.722 73.5388 496.032 70.9582 502.416 68.5442C508.803 66.143 515.243 63.8615 521.759 61.785C528.284 59.7299 534.903 57.897 541.625 56.4743L551.7 54.5046L561.826 52.8939C563.51 52.6076 565.204 52.4068 566.897 52.1804L571.973 51.5096C575.355 51.0353 578.747 50.6892 582.142 50.3261L587.231 49.792L592.328 49.3477C595.727 49.07 599.119 48.7281 602.523 48.5145C616.121 47.5147 629.741 46.9124 643.361 46.6389C656.981 46.3612 670.605 46.3655 684.216 46.8525V47.0405C670.614 47.4549 657.019 48.0232 643.447 48.7752L633.269 49.3819L623.1 50.0527L612.94 50.8303L602.793 51.7062C599.406 51.9711 596.036 52.3598 592.658 52.6888L587.595 53.2057L582.545 53.8125C579.18 54.2227 575.801 54.5602 572.449 55.0601L567.411 55.7523C565.735 55.9873 564.05 56.1923 562.383 56.4871L552.36 58.1363L542.401 60.0546C535.803 61.409 529.295 63.2077 522.826 65.1731C516.353 67.1299 509.935 69.3004 503.552 71.5862C497.168 73.8677 490.819 76.2646 484.492 78.7341C471.836 83.6604 459.275 88.8687 446.727 94.1111L427.911 102.007C421.631 104.617 415.354 107.245 409.048 109.8C402.742 112.351 396.402 114.829 390.018 117.183C383.626 119.516 377.165 121.686 370.563 123.378L369.329 123.703L368.081 123.985L363.1 125.104C362.268 125.292 361.441 125.484 360.6 125.634L353.081 127.082L350.564 127.509C347.208 128.069 343.864 128.701 340.494 129.201C337.133 129.731 333.772 130.274 330.402 130.748C323.672 131.752 316.933 132.718 310.193 133.649L279.871 137.875L269.775 139.323L259.688 140.814L249.617 142.386C247.937 142.634 246.265 142.92 244.589 143.202L237.061 144.467L234.561 144.933L229.558 145.856C228.727 146.009 227.886 146.15 227.059 146.313L219.595 147.838C217.932 148.154 216.294 148.573 214.648 148.958L209.714 150.124C196.591 153.418 183.67 157.592 170.839 162.023C164.417 164.228 158.016 166.505 151.624 168.816L132.444 175.763C126.043 178.071 119.643 180.378 113.212 182.612C109.988 183.71 106.782 184.838 103.549 185.915C100.317 186.979 97.0929 188.077 93.8519 189.115C80.8793 193.251 67.7868 197.071 54.5055 200.053Z" fill="#494949"/>
<path d="M62.1192 209.367C75.2633 205.569 88.1631 201.04 100.806 195.904L103.185 194.964L105.547 193.977L110.263 191.99C113.418 190.692 116.522 189.273 119.647 187.902C122.772 186.534 125.88 185.112 128.989 183.71C132.101 182.313 135.2 180.869 138.304 179.442L147.611 175.14L156.953 170.888C163.191 168.069 169.462 165.309 175.79 162.66C188.463 157.413 201.41 152.683 214.738 149.154C215.15 149.03 215.57 148.928 215.99 148.838L219.771 147.966L224.817 146.808L234.973 144.941L245.176 143.467L255.405 142.275C258.817 141.934 262.234 141.643 265.647 141.327C269.063 141.036 272.48 140.801 275.893 140.536C282.726 140.066 289.56 139.661 296.393 139.289C310.06 138.541 323.719 137.892 337.352 136.858L342.462 136.452C344.164 136.315 345.866 136.131 347.563 135.973L352.665 135.478C354.363 135.285 356.056 135.072 357.754 134.858C359.447 134.632 361.145 134.448 362.834 134.192L370.422 132.961C371.262 132.82 372.094 132.619 372.93 132.449L377.941 131.393C378.782 131.239 379.596 130.979 380.424 130.765L385.371 129.432C385.782 129.317 386.198 129.214 386.605 129.095L395.184 126.467L397.615 125.659C404.118 123.549 410.557 121.259 416.984 118.93C429.845 114.286 442.573 109.296 455.344 104.408C468.111 99.5072 480.882 94.6109 493.734 89.9154L503.402 86.4589C505.009 85.8736 506.63 85.3267 508.25 84.7756L513.112 83.1263C516.344 82.0026 519.628 81.0115 522.891 79.9689L525.339 79.1956C526.153 78.935 526.972 78.6743 527.799 78.4479L532.742 77.0209L535.216 76.3116C536.039 76.0809 536.862 75.8288 537.698 75.6365L542.697 74.3933C546.019 73.5131 549.385 72.8509 552.737 72.1331C556.085 71.3939 559.455 70.7702 562.82 70.1421L567.87 69.2022L572.933 68.3391C576.307 67.7623 579.681 67.177 583.064 66.6601C586.446 66.1345 589.824 65.5662 593.211 65.0791L603.371 63.6051L613.545 62.2166C640.682 58.6191 667.896 55.671 695.161 53.3553L695.187 53.5946L674.819 56.0684L654.469 58.6532C640.904 60.4092 627.353 62.2251 613.819 64.1691L603.671 65.6431L593.541 67.1983C590.163 67.711 586.793 68.275 583.419 68.8133C580.041 69.3388 576.68 69.937 573.315 70.5223C559.866 72.9192 546.431 75.3845 533.321 79.0931C507.054 86.4589 481.358 95.9354 455.683 105.318L436.421 112.376L417.125 119.34C410.677 121.622 404.212 123.856 397.713 125.984L395.278 126.792L392.826 127.544L387.917 129.043L386.691 129.419C386.28 129.539 385.864 129.646 385.452 129.757L378.64 131.59L378.014 131.726L372.999 132.829C372.163 133.004 371.331 133.213 370.486 133.363L362.894 134.666C361.205 134.939 359.503 135.14 357.809 135.379L352.725 136.08L347.628 136.67C345.926 136.862 344.228 137.076 342.526 137.247L332.306 138.251L322.081 139.169L296.518 141.323C289.701 141.895 282.898 142.51 276.099 143.172C272.703 143.519 269.299 143.835 265.908 144.211L255.743 145.386L245.609 146.727L235.526 148.329L225.511 150.218L216.856 152.247C216.444 152.341 216.033 152.444 215.626 152.564C202.494 156.007 189.667 160.609 177.046 165.74C170.727 168.291 164.451 170.961 158.192 173.691L139.419 181.929C136.281 183.292 133.156 184.676 130.005 186.009C126.854 187.346 123.724 188.726 120.543 189.999C117.366 191.286 114.215 192.619 111.013 193.836L106.224 195.695L103.828 196.618L101.41 197.494C88.5574 202.206 75.4605 206.316 62.1192 209.367Z" fill="#494949"/>
<path d="M69.7287 218.685C82.9585 214.801 95.8925 210.042 108.411 204.377C114.683 201.569 120.86 198.562 126.961 195.404C133.07 192.255 139.123 189 145.155 185.684L154.201 180.698C157.223 179.049 160.25 177.395 163.293 175.768C169.372 172.508 175.507 169.316 181.745 166.308C194.224 160.327 207.18 155.157 220.598 151.47C227.32 149.628 234.163 148.257 241.022 147.201C247.89 146.172 254.792 145.475 261.694 144.954C268.6 144.45 275.507 144.168 282.413 143.976C289.32 143.801 296.222 143.749 303.12 143.736C316.915 143.715 330.698 143.882 344.473 143.583C351.357 143.412 358.242 143.147 365.106 142.591C371.961 142.006 378.816 141.203 385.538 139.72C386.378 139.532 387.219 139.349 388.055 139.152L395.553 137.204C398.871 136.285 402.193 135.371 405.507 134.427C408.812 133.457 412.126 132.517 415.427 131.521L425.318 128.522C438.496 124.497 451.614 120.272 464.75 116.098C477.881 111.919 491.012 107.732 504.182 103.669C517.352 99.6055 530.564 95.6535 543.919 92.1884L551.447 90.2956L553.967 89.7103C557.328 88.9413 560.685 88.138 564.051 87.4117C570.777 85.9035 577.525 84.4893 584.273 83.0836C597.772 80.2894 611.294 77.6105 624.824 74.9616C638.354 72.3254 651.901 69.7832 665.452 67.2496C679.003 64.7245 692.572 62.2849 706.14 59.8624L706.188 60.1273L665.589 67.9716C652.055 70.5864 638.534 73.2526 625.017 75.9357C611.495 78.6146 597.982 81.3234 584.495 84.1518C577.756 85.5745 571.013 87.0058 564.286 88.4755C560.917 89.1933 557.564 89.9795 554.208 90.74L551.691 91.3168L544.176 93.1796C540.841 94.0384 537.522 94.9484 534.195 95.8285L524.25 98.6228L514.325 101.498L504.418 104.438C491.222 108.398 478.057 112.479 464.9 116.576C451.743 120.678 438.582 124.766 425.403 128.795L415.504 131.773L405.589 134.687C402.275 135.636 398.956 136.559 395.634 137.486L388.132 139.451L385.611 140.037C378.88 141.587 372.017 142.455 365.153 143.108C358.285 143.766 351.396 144.185 344.502 144.484C337.613 144.792 330.715 145.018 323.826 145.206L303.158 145.813C296.273 146.031 289.393 146.3 282.525 146.672C275.657 147.026 268.798 147.501 261.964 148.137C255.131 148.757 248.319 149.573 241.571 150.667C234.814 151.735 228.126 153.11 221.563 154.943C214.978 156.755 208.479 158.878 202.091 161.318C195.699 163.745 189.419 166.479 183.215 169.389C177.003 172.286 170.873 175.375 164.773 178.545L146.484 188.145C140.371 191.332 134.24 194.503 128.015 197.498C121.791 200.493 115.497 203.347 109.11 205.983C96.3214 211.221 83.16 215.562 69.7287 218.685Z" fill="#494949"/>
<path d="M77.3426 227.999C90.701 224.086 103.725 219.125 116.162 212.986C128.633 206.906 140.474 199.664 152.143 192.144C163.804 184.603 175.421 176.874 187.695 170.124C199.956 163.369 212.959 157.815 226.463 153.914C233.215 151.94 240.143 150.534 247.088 149.517C254.037 148.483 261.034 147.924 268.022 147.573C275.014 147.219 282.006 147.189 288.985 147.283C295.965 147.372 302.935 147.659 309.893 147.992C323.813 148.671 337.699 149.645 351.606 150.12C358.56 150.329 365.518 150.41 372.467 150.18C379.412 149.919 386.361 149.329 393.186 148.013C394.892 147.676 396.582 147.296 398.266 146.86L717.111 66.3823L717.179 66.6472L398.335 147.12C396.65 147.552 394.952 147.958 393.246 148.304C386.404 149.675 379.442 150.295 372.484 150.628C365.522 150.983 358.551 151.017 351.585 150.936C344.618 150.88 337.656 150.688 330.694 150.496C323.732 150.312 316.778 150.115 309.82 149.983C295.913 149.731 282.01 149.727 268.189 150.619C254.385 151.547 240.619 153.315 227.406 157.178C220.779 159.071 214.262 161.348 207.896 163.993C201.525 166.629 195.318 169.662 189.217 172.909C177.012 179.412 165.39 187.026 153.532 194.328C147.603 197.981 141.64 201.604 135.531 204.979C129.426 208.359 123.21 211.55 116.852 214.438C104.141 220.219 90.8897 224.782 77.3426 227.999Z" fill="#494949"/>
<path d="M84.9563 237.318C98.4005 233.618 111.382 228.457 123.981 222.565C136.59 216.673 148.842 210.059 161.09 203.432C173.338 196.806 185.603 190.153 198.233 184.172C204.548 181.181 210.953 178.361 217.473 175.798C220.731 174.52 224.019 173.298 227.338 172.162C228.988 171.564 230.664 171.059 232.332 170.508C233.995 169.953 235.684 169.466 237.378 169.008C244.164 167.158 251.066 165.77 257.994 164.706C264.922 163.642 271.884 162.882 278.855 162.313C292.796 161.19 306.755 160.805 320.697 160.587C334.638 160.335 348.579 160.288 362.499 159.805C369.457 159.541 376.415 159.177 383.347 158.541C390.271 157.879 397.19 157.007 403.968 155.46L406.506 154.871L728.094 72.9407L728.146 73.1329L404.109 156.063C397.302 157.652 390.361 158.562 383.42 159.263C376.475 159.955 369.509 160.399 362.542 160.728C348.609 161.408 334.664 161.69 320.74 162.16C306.815 162.647 292.899 163.313 279.074 164.689C265.257 166.073 251.487 168.137 238.227 171.995C234.904 172.943 231.577 173.896 228.285 174.973C224.988 176.033 221.722 177.178 218.472 178.382C211.977 180.792 205.572 183.471 199.24 186.325C186.576 192.029 174.213 198.433 161.84 204.829C149.468 211.225 137.065 217.621 124.316 223.287C111.575 228.952 98.4648 233.87 84.9563 237.318Z" fill="#494949"/>
<path d="M92.5658 246.632L100.09 244.363C100.926 244.115 101.74 243.799 102.568 243.521C105.864 242.368 109.174 241.266 112.419 239.971L117.306 238.095C118.931 237.459 120.539 236.775 122.155 236.121L126.995 234.135L131.805 232.067C144.628 226.551 157.313 220.715 170.041 214.955C182.765 209.196 195.523 203.488 208.466 198.173L218.219 194.289C221.49 193.037 224.778 191.841 228.058 190.61C228.877 190.299 229.704 190.012 230.536 189.735L239.251 186.774L243.032 185.633C244.713 185.129 246.394 184.612 248.083 184.133C248.507 184.018 248.923 183.885 249.352 183.779L258.333 181.655C261.775 180.955 265.227 180.322 268.669 179.651L279.057 178.006L289.47 176.626C303.373 174.943 317.31 173.76 331.243 172.653C345.176 171.534 359.108 170.534 373.007 169.188C376.48 168.838 379.956 168.509 383.416 168.073L388.612 167.458C390.344 167.257 392.067 166.979 393.795 166.74L398.974 166.001L406.695 164.633C407.123 164.552 407.556 164.492 407.981 164.394L414.351 162.963L657.911 100.434L739.073 79.4818L739.108 79.6143L657.958 100.605L414.566 163.83L409.447 165.018L408.165 165.313C407.741 165.415 407.308 165.479 406.875 165.561L399.128 166.983L393.941 167.761C392.209 168.009 390.485 168.304 388.749 168.513L383.545 169.162C380.076 169.624 376.6 169.974 373.123 170.35C359.22 171.846 345.291 173.029 331.38 174.311C317.473 175.605 303.574 176.977 289.753 178.84C275.944 180.728 262.174 183.048 248.824 186.829C235.414 190.452 222.253 195.084 209.259 200.134C196.269 205.205 183.43 210.691 170.616 216.229C157.797 221.766 145.009 227.388 132.079 232.691L127.231 234.677L122.348 236.583C120.719 237.211 119.098 237.869 117.461 238.476L112.535 240.27C109.268 241.509 105.933 242.556 102.615 243.654C101.783 243.919 100.96 244.218 100.12 244.453L97.5989 245.166L92.5658 246.632Z" fill="#494949"/>
<path d="M100.18 255.95L105.217 254.446C106.893 253.938 108.544 253.353 110.211 252.806L112.702 251.973L115.18 251.097L120.132 249.341L129.996 245.718L139.83 242.013L179.104 226.983C192.205 221.997 205.332 217.066 218.545 212.345L228.474 208.858L238.45 205.496C241.781 204.394 245.142 203.36 248.486 202.287L249.742 201.89L251.006 201.518L253.536 200.779L258.603 199.309C260.301 198.852 262.02 198.459 263.726 198.032C265.437 197.617 267.143 197.177 268.858 196.788C272.296 196.058 275.73 195.285 279.172 194.592C282.623 193.939 286.07 193.247 289.526 192.623L299.9 190.82C313.747 188.508 327.637 186.526 341.519 184.552C355.4 182.57 369.286 180.638 383.133 178.481L388.325 177.673L398.691 175.939L403.857 174.99C405.576 174.665 407.303 174.375 409.018 174.02L416.731 172.431C417.584 172.243 418.433 172.029 419.281 171.833L424.383 170.619L668.65 107.258L750.048 86.0359L750.07 86.1128L668.701 107.437L424.662 171.687L419.543 172.943C418.69 173.149 417.837 173.367 416.984 173.563L409.258 175.216C407.544 175.584 405.811 175.887 404.092 176.225L398.922 177.216L388.556 179.032L383.365 179.882C369.518 182.147 355.64 184.18 341.776 186.265C327.916 188.367 314.056 190.482 300.269 192.922L289.941 194.819C286.503 195.473 283.082 196.195 279.652 196.878C276.231 197.596 272.832 198.399 269.419 199.155C267.722 199.557 266.037 200.01 264.343 200.437C262.654 200.877 260.957 201.283 259.276 201.753C245.785 205.368 232.443 209.657 219.184 214.156C205.924 218.668 192.728 223.394 179.558 228.179L140.062 242.611L130.167 246.166L120.243 249.64L115.261 251.323L112.771 252.161L110.263 252.955C108.587 253.472 106.928 254.036 105.243 254.519L100.18 255.95Z" fill="#494949"/>
<path d="M107.793 265.269C114.554 263.303 121.246 261.107 127.951 258.958L188.231 239.416C201.637 235.1 215.055 230.819 228.499 226.619L238.591 223.492L248.7 220.42L258.835 217.416C262.217 216.425 265.617 215.481 269.008 214.524C282.662 210.935 296.423 207.88 310.198 204.911C323.976 201.954 337.776 199.134 351.58 196.327C365.38 193.512 379.18 190.709 392.955 187.795C406.725 184.868 420.486 181.877 434.106 178.374L761.027 92.59L761.036 92.6241L434.423 179.579C420.782 183.168 407.029 186.235 393.263 189.243C379.498 192.234 365.706 195.114 351.923 198.006C338.141 200.903 324.362 203.808 310.618 206.85C296.878 209.905 283.155 213.046 269.591 216.703C256.005 220.305 242.484 224.24 228.988 228.251C215.497 232.268 202.023 236.369 188.566 240.501L128.028 259.227C121.302 261.287 114.58 263.393 107.793 265.269Z" fill="#494949"/>
<path d="M115.403 274.583L125.623 271.699L156.318 263.154L197.281 251.908L238.274 240.783L279.301 229.768L689.845 120.733L772.011 99.127L690.021 121.383L279.811 231.674L238.758 242.586L197.68 253.395L156.567 264.085L125.7 271.985L115.403 274.583Z" fill="#494949"/>
<path d="M123.017 283.901C177.942 268.46 232.984 253.434 288.008 238.365C301.718 234.562 315.256 230.089 328.765 225.547C342.273 220.997 355.752 216.335 369.235 211.691C382.722 207.055 396.23 202.467 409.803 198.053C423.38 193.657 437.013 189.397 450.847 185.791C452.57 185.312 454.311 184.919 456.043 184.488L461.247 183.215L471.682 180.822L482.138 178.532L492.611 176.319C506.583 173.409 520.576 170.645 534.569 167.868C548.561 165.091 562.55 162.318 576.513 159.404C590.467 156.469 604.409 153.448 618.192 149.812C625.068 147.945 631.889 145.873 638.701 143.771C645.513 141.664 652.308 139.507 659.103 137.341C672.689 133.008 686.266 128.637 699.886 124.39C706.693 122.271 713.51 120.169 720.352 118.144C727.194 116.132 734.058 114.175 740.951 112.333C747.845 110.492 754.777 108.787 761.773 107.364C765.271 106.655 768.791 106.044 772.337 105.617C774.111 105.412 775.891 105.258 777.674 105.211C779.453 105.173 781.258 105.224 782.994 105.651C781.254 105.254 779.453 105.232 777.678 105.297C775.899 105.373 774.124 105.553 772.358 105.788C768.83 106.275 765.323 106.937 761.838 107.676C754.867 109.163 747.969 110.975 741.088 112.842C734.212 114.722 727.37 116.721 720.541 118.776C713.711 120.819 706.891 122.908 700.087 125.031C686.471 129.278 672.899 133.649 659.309 137.981C652.514 140.148 645.714 142.301 638.902 144.412C632.086 146.518 625.257 148.582 618.372 150.466C604.589 154.191 590.656 157.293 576.71 160.314C562.76 163.313 548.784 166.172 534.809 169.03C520.833 171.888 506.857 174.738 492.916 177.725L482.464 179.997L472.033 182.343L461.629 184.796L456.446 186.09C454.722 186.53 452.982 186.928 451.271 187.41C437.51 191.051 423.92 195.353 410.377 199.796C396.839 204.253 383.36 208.901 369.886 213.571C356.403 218.22 342.938 222.915 329.408 227.452C315.869 231.96 302.301 236.403 288.505 240.185C233.37 254.869 178.251 269.588 123.017 283.901Z" fill="#494949"/>
<path d="M130.63 293.219L172.219 281.564L213.829 269.977L297.066 246.901L302.211 245.35C303.068 245.085 303.93 244.85 304.779 244.555L312.414 241.936C314.107 241.342 315.779 240.689 317.464 240.065L322.51 238.172L327.522 236.185L332.529 234.19L337.515 232.135C350.804 226.645 364 220.903 377.243 215.25C390.49 209.61 403.779 204.052 417.245 198.903C430.711 193.768 444.339 188.966 458.332 185.308C465.32 183.467 472.389 181.997 479.467 180.604C481.234 180.232 483.013 179.938 484.783 179.613L490.108 178.66C491.882 178.331 493.662 178.058 495.441 177.763L500.778 176.896C515.015 174.64 529.304 172.798 543.584 170.94C557.864 169.09 572.149 167.291 586.386 165.18L591.724 164.373L597.048 163.493C598.823 163.194 600.602 162.92 602.368 162.6L607.671 161.617C611.217 161.002 614.719 160.203 618.243 159.468C620.009 159.122 621.741 158.652 623.49 158.229C625.231 157.789 626.984 157.383 628.716 156.917C635.635 154.986 642.435 152.619 649.204 150.192C655.973 147.761 662.687 145.172 669.4 142.579L689.545 134.803C696.267 132.226 703.007 129.688 709.797 127.279C716.584 124.865 723.4 122.532 730.281 120.374C737.166 118.238 744.102 116.26 751.128 114.615C754.64 113.786 758.172 113.047 761.726 112.427C765.28 111.808 768.86 111.299 772.452 110.962C774.249 110.791 776.054 110.676 777.854 110.603C779.659 110.56 781.464 110.535 783.269 110.624C785.073 110.684 786.874 110.851 788.662 111.082C790.449 111.325 792.216 111.701 793.956 112.158C790.445 111.351 786.852 111 783.26 110.97C779.667 110.932 776.079 111.175 772.512 111.573C765.375 112.376 758.331 113.867 751.356 115.572C744.385 117.307 737.479 119.31 730.628 121.485C723.773 123.651 716.961 125.954 710.183 128.364C703.409 130.782 696.649 133.243 689.905 135.755L669.692 143.348C662.953 145.877 656.205 148.389 649.431 150.833C642.649 153.26 635.833 155.601 628.888 157.545C627.152 158.028 625.398 158.443 623.653 158.895C621.904 159.331 620.164 159.814 618.397 160.169C614.873 160.925 611.362 161.749 607.817 162.386L602.51 163.403C600.739 163.736 598.96 164.018 597.185 164.33L591.861 165.244L586.523 166.082C572.294 168.346 558.023 170.303 543.764 172.303C529.506 174.294 515.256 176.349 501.061 178.664C486.871 181.001 472.724 183.65 458.838 187.248C444.969 190.88 431.401 195.673 417.978 200.8C404.555 205.94 391.296 211.52 378.049 217.134C364.789 222.727 351.563 228.414 338.222 233.853L333.219 235.891L328.186 237.869L323.153 239.839L318.081 241.714C316.388 242.329 314.703 242.979 313.001 243.568L305.306 246.17C304.453 246.461 303.578 246.696 302.712 246.961L297.512 248.503C241.914 263.525 186.306 278.484 130.63 293.219Z" fill="#494949"/>
<path d="M138.24 302.534L306.451 255.395C313.383 253.323 320.139 250.648 326.788 247.738C333.438 244.829 339.993 241.689 346.5 238.463C359.52 231.998 372.373 225.184 385.332 218.549C398.296 211.926 411.346 205.428 424.709 199.549C431.392 196.622 438.157 193.866 445.016 191.35C451.88 188.837 458.842 186.569 465.929 184.71C473.02 182.847 480.187 181.412 487.39 180.177C494.592 178.942 501.833 177.968 509.082 177.156C516.332 176.332 523.598 175.691 530.865 175.144C538.131 174.593 545.406 174.136 552.673 173.704C567.214 172.832 581.752 172.106 596.255 170.888C603.5 170.256 610.741 169.5 617.93 168.436C619.726 168.158 621.527 167.893 623.31 167.569L625.994 167.094L628.669 166.569L630.007 166.304L633.994 165.407L636.635 164.736C637.513 164.514 638.396 164.292 639.262 164.022L641.873 163.249C642.739 162.98 643.597 162.677 644.458 162.39C646.186 161.835 647.884 161.185 649.59 160.562C651.296 159.938 652.977 159.246 654.67 158.588L659.699 156.486C666.386 153.627 672.972 150.547 679.565 147.462C692.743 141.301 705.905 135.033 719.477 129.667C733.037 124.318 747.005 119.742 761.448 117.277C763.257 117.003 765.061 116.708 766.875 116.456L772.337 115.88L777.815 115.551L783.303 115.516C790.617 115.657 797.93 116.636 804.927 118.682C797.819 117.072 790.544 116.418 783.303 116.512L777.875 116.726L772.465 117.187L767.081 117.892C765.293 118.174 763.51 118.494 761.726 118.793C754.61 120.144 747.583 121.955 740.66 124.1C738.923 124.613 737.2 125.189 735.481 125.753C734.619 126.04 733.757 126.313 732.9 126.608L727.764 128.419L725.213 129.372C723.511 130.005 721.805 130.624 720.12 131.295C713.351 133.918 706.633 136.695 699.958 139.579C693.283 142.463 686.647 145.445 680.002 148.411C673.357 151.376 666.7 154.324 659.982 157.144C653.251 159.929 646.46 162.6 639.447 164.633C638.577 164.907 637.693 165.138 636.81 165.364L634.161 166.048L631.494 166.659L630.161 166.962L628.819 167.235L626.14 167.778L623.448 168.265C621.656 168.603 619.855 168.876 618.055 169.162C610.852 170.295 603.607 171.128 596.353 171.833C581.85 173.268 567.309 174.221 552.793 175.306C538.277 176.379 523.774 177.601 509.352 179.357C494.943 181.147 480.573 183.445 466.559 187.073C452.562 190.756 438.989 195.985 425.682 201.753C412.358 207.513 399.308 213.926 386.31 220.45C373.307 226.97 360.39 233.673 347.285 240.044C340.73 243.222 334.128 246.32 327.419 249.187C320.71 252.054 313.885 254.694 306.85 256.732L138.24 302.534Z" fill="#494949"/>
<path d="M145.854 311.852L188.454 299.915L310.871 265.397C311.758 265.145 312.65 264.905 313.529 264.641L316.152 263.825C317.031 263.568 317.893 263.248 318.755 262.936L321.34 261.996L323.891 260.962C324.739 260.62 325.592 260.278 326.428 259.894C328.105 259.146 329.794 258.42 331.44 257.608L333.926 256.42L336.387 255.177C342.942 251.853 349.351 248.234 355.705 244.517C368.394 237.053 380.852 229.179 393.495 221.582C406.142 213.99 418.973 206.654 432.241 200.091C445.531 193.601 459.305 187.914 473.688 184.078C480.882 182.159 488.17 180.745 495.501 179.621L501.005 178.84C502.84 178.592 504.684 178.391 506.523 178.173C510.205 177.78 513.896 177.442 517.588 177.173C524.97 176.618 532.365 176.332 539.756 176.203C547.147 176.067 554.533 176.079 561.911 176.152C576.672 176.289 591.415 176.725 606.149 176.481C613.515 176.319 620.88 176.007 628.198 175.225C630.028 175.02 631.854 174.819 633.676 174.541C634.585 174.405 635.499 174.298 636.407 174.14L639.125 173.666C640.034 173.52 640.93 173.324 641.83 173.136C642.731 172.944 643.631 172.764 644.527 172.559L647.198 171.884C647.644 171.768 648.094 171.67 648.531 171.534L649.847 171.132C656.882 168.996 663.622 165.971 670.159 162.6C676.714 159.254 683.11 155.593 689.515 151.953C695.911 148.295 702.325 144.642 708.854 141.186C715.392 137.742 722.045 134.486 728.896 131.645C729.745 131.269 730.611 130.94 731.473 130.598L734.062 129.577C734.924 129.231 735.798 128.924 736.673 128.616L740.612 127.227L741.941 126.809L744.599 125.976C746.361 125.39 748.166 124.937 749.963 124.454C757.156 122.583 764.5 121.237 771.916 120.618L776.088 120.297L777.481 120.255L780.268 120.199L781.661 120.169C782.124 120.161 782.591 120.144 783.054 120.169L788.623 120.34C790.475 120.464 792.323 120.66 794.171 120.819C801.549 121.613 808.824 123.113 815.897 125.215C808.661 123.737 801.373 122.686 794.055 122.229C792.22 122.156 790.394 122.058 788.563 122.006L783.071 122.023C779.414 122.173 775.762 122.357 772.126 122.775C757.576 124.356 743.39 128.377 729.8 133.837C716.185 139.285 703.109 146.086 690.107 153.016C683.603 156.481 677.1 159.972 670.485 163.241C667.175 164.877 663.814 166.407 660.432 167.881L657.864 168.919L656.578 169.436C656.145 169.602 655.708 169.748 655.275 169.906L652.664 170.841C651.785 171.132 650.897 171.388 650.014 171.666L648.69 172.076C648.248 172.213 647.798 172.311 647.348 172.435L644.664 173.127C643.764 173.341 642.859 173.525 641.955 173.721C641.05 173.918 640.15 174.118 639.237 174.268L636.51 174.759C635.601 174.922 634.684 175.037 633.771 175.178C631.944 175.469 630.11 175.678 628.275 175.896C620.935 176.763 613.553 177.178 606.175 177.43C591.415 177.964 576.65 177.827 561.911 177.981C554.542 178.053 547.177 178.186 539.82 178.468C532.464 178.754 525.12 179.181 517.802 179.801C514.141 180.113 510.488 180.493 506.844 180.929C505.027 181.168 503.2 181.365 501.383 181.625L495.938 182.424L490.515 183.339L485.117 184.385L479.75 185.556C477.967 185.958 476.205 186.44 474.43 186.876C467.365 188.748 460.424 191.102 453.591 193.742C446.757 196.383 440.044 199.348 433.42 202.518C420.173 208.863 407.312 216.023 394.588 223.428C381.855 230.828 369.264 238.488 356.45 245.807C350.041 249.46 343.568 253.019 336.94 256.288L334.454 257.51L331.937 258.676C330.27 259.475 328.559 260.184 326.866 260.919C326.021 261.295 325.159 261.628 324.298 261.966L321.713 262.979L319.089 263.897C318.214 264.205 317.344 264.517 316.448 264.764L145.854 311.852Z" fill="#494949"/>
<path d="M153.468 321.166L320.859 273.835C321.764 273.587 322.652 273.31 323.543 273.04C324.426 272.75 325.314 272.464 326.193 272.143C333.21 269.61 339.86 266.145 346.307 262.398C352.742 258.612 358.976 254.489 365.136 250.272C377.427 241.778 389.439 232.879 401.752 224.359C414.047 215.827 426.634 207.624 439.872 200.48C446.495 196.921 453.278 193.631 460.235 190.722C467.193 187.816 474.348 185.342 481.649 183.364C482.567 183.125 483.476 182.873 484.393 182.647L487.154 181.98L489.919 181.382L492.693 180.822C496.397 180.1 500.118 179.481 503.852 178.959C511.32 177.891 518.839 177.297 526.359 176.994C541.406 176.387 556.437 177.148 571.369 178.357C586.309 179.553 601.181 181.241 616.112 182.018C619.846 182.198 623.581 182.317 627.315 182.343C631.049 182.369 634.787 182.296 638.512 182.044C642.238 181.805 645.955 181.407 649.637 180.796C650.559 180.66 651.472 180.468 652.389 180.305C653.303 180.109 654.22 179.938 655.124 179.716C656.946 179.31 658.743 178.805 660.518 178.25C667.621 175.96 674.249 172.405 680.568 168.462C682.154 167.479 683.719 166.466 685.28 165.445C686.832 164.407 688.375 163.36 689.914 162.301C692.992 160.186 696.053 158.041 699.114 155.892C705.244 151.607 711.448 147.377 717.904 143.514C721.136 141.587 724.429 139.755 727.794 138.041C731.164 136.336 734.598 134.751 738.109 133.333C745.118 130.483 752.415 128.27 759.861 126.822C763.582 126.091 767.338 125.548 771.111 125.177C774.883 124.801 778.668 124.613 782.45 124.608C790.016 124.574 797.566 125.219 804.991 126.463C805.921 126.604 806.847 126.775 807.773 126.945C808.699 127.121 809.625 127.274 810.543 127.475C812.382 127.877 814.221 128.253 816.043 128.71C819.696 129.573 823.301 130.624 826.876 131.743C819.52 130.312 812.15 129.073 804.742 128.317C797.334 127.574 789.905 127.236 782.506 127.497C775.106 127.719 767.745 128.599 760.509 130.035C753.272 131.487 746.177 133.602 739.275 136.251C735.828 137.584 732.424 139.041 729.072 140.618C725.715 142.186 722.41 143.878 719.156 145.668C712.631 149.227 706.286 153.157 699.988 157.178L690.544 163.236C687.385 165.24 684.208 167.227 680.984 169.137C679.372 170.094 677.739 171.008 676.092 171.91C674.438 172.79 672.779 173.661 671.085 174.473C667.711 176.114 664.234 177.541 660.663 178.699C653.491 180.946 646.023 182.095 638.551 182.621C631.07 183.155 623.559 183.155 616.074 182.907C608.584 182.655 601.104 182.219 593.636 181.724C586.163 181.245 578.699 180.745 571.236 180.352C556.308 179.557 541.372 179.22 526.509 180.049C519.08 180.45 511.676 181.194 504.328 182.249C496.988 183.322 489.675 184.757 482.532 186.637C475.382 188.538 468.359 190.948 461.492 193.755C454.611 196.532 447.88 199.694 441.282 203.133C434.672 206.543 428.194 210.226 421.815 214.084C415.427 217.925 409.138 221.945 402.905 226.055C390.434 234.271 378.207 242.889 365.719 251.135C359.481 255.267 353.167 259.3 346.655 263C340.151 266.704 333.451 270.135 326.364 272.63C325.481 272.946 324.585 273.228 323.693 273.515C322.793 273.78 321.893 274.049 320.992 274.297L153.468 321.166Z" fill="#494949"/>
<path d="M161.081 330.485L329.871 282.055L332.52 281.235C339.581 279.013 346.389 276.035 353.077 272.852C359.764 269.652 366.328 266.187 372.84 262.628C385.86 255.493 398.686 248.003 411.68 240.774C424.666 233.537 437.819 226.547 451.353 220.305C464.874 214.05 478.85 208.658 493.31 204.761C495.119 204.291 496.924 203.774 498.75 203.394C500.572 202.988 502.39 202.552 504.225 202.21C506.06 201.86 507.886 201.463 509.725 201.146C511.564 200.826 513.399 200.484 515.238 200.185C522.603 198.967 530.003 198.01 537.415 197.237C552.244 195.686 567.12 194.917 581.983 194.298C596.846 193.67 611.705 193.238 626.526 192.225C633.934 191.696 641.329 191.003 648.668 189.944C655.999 188.863 663.313 187.483 670.374 185.278C677.426 183.057 684.174 179.933 690.75 176.52C697.339 173.123 703.765 169.406 710.217 165.723C716.665 162.036 723.13 158.349 729.71 154.854C736.295 151.372 743.005 148.077 749.902 145.193C750.756 144.813 751.626 144.476 752.496 144.13L755.103 143.096L756.41 142.587L760.376 141.177C762.129 140.519 763.93 140.002 765.713 139.421C767.488 138.827 769.301 138.349 771.111 137.857C778.351 135.931 785.751 134.529 793.223 133.858L796.027 133.632C796.961 133.555 797.896 133.47 798.83 133.461C800.704 133.423 802.577 133.354 804.451 133.346L810.067 133.504C810.534 133.504 811.001 133.555 811.469 133.594L812.866 133.717L815.661 133.961C823.104 134.734 830.443 136.23 837.573 138.353C830.28 136.862 822.928 135.824 815.55 135.401C813.702 135.337 811.859 135.23 810.011 135.204L804.477 135.247C802.633 135.324 800.794 135.461 798.955 135.559C798.033 135.589 797.116 135.696 796.203 135.794L793.454 136.08C778.806 137.789 764.543 141.955 750.884 147.548C737.204 153.136 724.06 160.049 711.002 167.12C704.464 170.645 697.918 174.183 691.264 177.519C689.605 178.365 687.92 179.156 686.236 179.955L684.975 180.557L681.147 182.27C680.294 182.646 679.423 182.984 678.562 183.339C677.696 183.68 676.843 184.065 675.96 184.368L673.327 185.325C672.457 185.663 671.548 185.902 670.665 186.193C663.531 188.436 656.188 189.837 648.823 190.939C641.453 192.046 634.041 192.794 626.62 193.37C611.778 194.558 596.911 195.148 582.073 195.972C567.236 196.784 552.411 197.81 537.677 199.502C530.312 200.348 522.968 201.381 515.676 202.672C508.383 203.949 501.142 205.526 493.975 207.282C486.807 209.046 479.759 211.315 472.809 213.84C465.86 216.374 459.009 219.202 452.257 222.253C438.745 228.341 425.575 235.194 412.542 242.308C399.505 249.413 386.61 256.792 373.504 263.825C366.95 267.332 360.339 270.75 353.591 273.908C346.843 277.048 339.971 279.983 332.825 282.162L161.081 330.485Z" fill="#494949"/>
<path d="M168.691 339.803L339.504 290.109C343.024 288.985 346.569 287.96 350.037 286.665L355.263 284.811L360.442 282.82C362.165 282.145 363.901 281.509 365.612 280.804L370.752 278.706C374.186 277.326 377.59 275.864 380.998 274.425C394.627 268.627 408.161 262.585 421.772 256.706C435.384 250.827 449.059 245.072 462.932 239.787C476.796 234.485 490.901 229.755 505.297 225.996L506.643 225.624L507.993 225.29L510.703 224.637L516.126 223.359C517.931 222.919 519.753 222.569 521.566 222.167L527.011 221.005C528.824 220.604 530.646 220.266 532.468 219.903L537.93 218.826C539.747 218.459 541.574 218.126 543.4 217.792L548.874 216.784C563.476 214.139 578.121 211.772 592.761 209.431C607.401 207.085 622.046 204.778 636.63 202.168L642.096 201.172L647.549 200.117C651.189 199.437 654.807 198.651 658.43 197.887L661.143 197.31L669.246 195.4C671.042 194.96 672.821 194.46 674.609 193.99C676.393 193.507 678.189 193.059 679.946 192.512C686.986 190.324 693.849 187.543 700.619 184.569C707.392 181.6 714.084 178.421 720.776 175.246C727.468 172.063 734.161 168.876 740.904 165.783C747.648 162.689 754.438 159.682 761.332 156.904C775.106 151.359 789.288 146.565 803.971 143.886C807.636 143.211 811.332 142.694 815.044 142.348C818.757 141.998 822.486 141.818 826.212 141.861C833.663 141.929 841.122 142.873 848.243 144.958C841.002 143.326 833.59 142.724 826.216 142.908C822.529 143.006 818.851 143.292 815.19 143.736C811.533 144.189 807.893 144.792 804.279 145.518C797.056 146.996 789.926 148.94 782.909 151.213C775.882 153.469 768.958 156.058 762.099 158.81C755.244 161.574 748.445 164.492 741.688 167.509C734.932 170.529 728.21 173.644 721.475 176.737C714.74 179.835 707.997 182.92 701.18 185.859C694.355 188.778 687.462 191.584 680.332 193.772C678.549 194.327 676.753 194.78 674.956 195.272C673.16 195.746 671.372 196.254 669.568 196.699L661.439 198.63L658.717 199.215C655.086 199.989 651.459 200.788 647.815 201.471L642.353 202.539L636.879 203.543C622.286 206.231 607.646 208.611 593.018 211.029C563.772 215.87 534.5 220.745 505.777 227.884L500.418 229.29L497.739 229.999L496.401 230.358C495.955 230.482 495.518 230.627 495.076 230.759C491.544 231.853 488.003 232.913 484.483 234.036L473.98 237.608L463.558 241.432C449.711 246.666 436.044 252.374 422.428 258.215C408.808 264.047 395.252 270.037 381.585 275.796C378.164 277.227 374.752 278.68 371.305 280.052L366.148 282.137C364.429 282.833 362.684 283.47 360.952 284.14L355.747 286.123L350.492 287.969C347.006 289.255 343.426 290.28 339.881 291.399L254.299 315.655L168.691 339.803Z" fill="#494949"/>
<path d="M176.305 349.117C233.189 332.147 290.173 315.514 347.148 298.855C361.376 294.689 375.524 290.22 389.666 285.73L432.108 272.293C460.424 263.402 488.796 254.622 517.528 247.064L560.544 235.592C574.875 231.734 589.194 227.837 603.504 223.911C617.814 219.984 632.116 216.024 646.405 212.024C660.689 208.021 674.982 203.992 689.215 199.852C696.293 197.733 703.255 195.191 710.187 192.584C717.119 189.965 724.013 187.235 730.902 184.492L751.587 176.276C758.494 173.559 765.417 170.876 772.388 168.312C779.359 165.749 786.355 163.258 793.42 160.951C800.49 158.665 807.619 156.537 814.83 154.713C818.435 153.798 822.062 152.974 825.719 152.277C829.371 151.577 833.054 150.996 836.754 150.59C840.453 150.18 844.179 149.957 847.9 150.064C849.76 150.094 851.617 150.256 853.464 150.47C855.308 150.714 857.134 151.077 858.926 151.56C857.117 151.145 855.282 150.867 853.439 150.679C851.596 150.526 849.743 150.419 847.896 150.453C844.196 150.466 840.505 150.808 836.835 151.282C829.496 152.252 822.272 153.944 815.117 155.828C807.966 157.742 800.892 159.955 793.875 162.331C786.857 164.698 779.882 167.206 772.941 169.812C766.009 172.431 759.09 175.101 752.192 177.819L731.507 186.022C724.609 188.752 717.702 191.474 710.749 194.084C703.791 196.686 696.799 199.22 689.657 201.352C675.389 205.492 661.109 209.508 646.812 213.507C632.519 217.498 618.209 221.45 603.894 225.372C589.58 229.29 575.257 233.182 560.921 237.027L539.413 242.77C532.241 244.671 525.064 246.572 517.871 248.401C514.278 249.332 510.698 250.276 507.119 251.246L496.41 254.25L485.726 257.356L475.064 260.539C460.861 264.829 446.71 269.272 432.567 273.767C404.277 282.731 376.09 292.023 347.576 300.368C290.52 316.714 233.464 333.082 176.305 349.117Z" fill="#494949"/>
<path d="M183.919 358.435C240.996 341.145 298.207 324.319 355.417 307.468C369.792 303.358 384.342 300.021 398.909 296.8C413.49 293.638 428.104 290.665 442.714 287.682C457.325 284.704 471.939 281.752 486.502 278.573L497.413 276.146C501.04 275.3 504.679 274.484 508.298 273.609L516.439 271.618L519.144 270.917L524.545 269.494C526.35 269.033 528.125 268.469 529.913 267.952C544.189 263.718 558.255 258.779 572.247 253.664C586.24 248.537 600.156 243.205 614.067 237.848C627.979 232.494 641.89 227.136 655.866 221.924C659.356 220.608 662.863 219.339 666.365 218.061C669.863 216.767 673.387 215.541 676.907 214.306C680.418 213.041 683.972 211.9 687.509 210.708C689.275 210.102 691.063 209.563 692.846 209.008L698.201 207.354C705.334 205.261 712.425 202.971 719.503 200.647C726.577 198.314 733.642 195.934 740.698 193.541L751.287 189.948L761.885 186.385C768.954 184.014 776.023 181.651 783.106 179.322C797.27 174.665 811.477 170.107 825.817 165.992C832.985 163.933 840.2 162.014 847.48 160.378C851.12 159.562 854.789 158.848 858.485 158.323C860.333 158.071 862.193 157.866 864.058 157.78C865.919 157.708 867.809 157.72 869.623 158.165C867.796 157.759 865.914 157.784 864.062 157.896C862.206 158.019 860.358 158.259 858.519 158.545C854.845 159.143 851.201 159.929 847.578 160.792C840.333 162.523 833.17 164.586 826.032 166.706C818.894 168.842 811.79 171.093 804.708 173.405C797.621 175.708 790.552 178.07 783.496 180.463C776.439 182.856 769.391 185.278 762.348 187.714L741.208 194.998C734.156 197.412 727.1 199.818 720.022 202.176C712.944 204.526 705.853 206.846 698.685 208.965L693.352 210.597C691.573 211.144 689.794 211.674 688.032 212.276C684.504 213.456 680.958 214.584 677.447 215.835C673.932 217.062 670.412 218.275 666.914 219.557C663.411 220.821 659.905 222.078 656.415 223.385C642.435 228.546 628.519 233.883 614.582 239.172C600.641 244.457 586.69 249.717 572.659 254.771L567.399 256.668L556.835 260.359L551.533 262.141L546.225 263.914C544.45 264.491 542.667 265.038 540.892 265.602L535.55 267.272L530.17 268.815C515.817 272.912 501.297 276.36 486.742 279.624C472.188 282.88 457.599 285.978 443.006 289.062C428.417 292.143 413.824 295.198 399.274 298.436C384.728 301.658 370.195 304.999 355.897 309.096C298.605 325.669 241.331 342.294 183.919 358.435Z" fill="#494949"/>
<path d="M191.532 367.754C249.03 350.138 306.674 333.048 364.334 315.954C378.91 311.861 393.859 309.69 408.778 307.776C423.719 305.93 438.693 304.512 453.655 303.034C461.136 302.299 468.617 301.555 476.089 300.748C483.561 299.94 491.029 299.077 498.472 298.048C505.914 297.022 513.339 295.856 520.7 294.369C524.383 293.643 528.039 292.788 531.679 291.869C535.302 290.891 538.903 289.84 542.44 288.58C549.535 286.131 556.505 283.316 563.403 280.355C570.301 277.381 577.135 274.262 583.934 271.075C597.528 264.675 610.994 258.018 624.481 251.387C637.968 244.765 651.455 238.121 665.113 231.819C671.947 228.679 678.815 225.607 685.777 222.736C692.743 219.877 699.787 217.177 707.019 214.964C764.736 198.057 822.435 181.151 880.297 164.766C822.808 182.39 765.134 199.442 707.512 216.583C700.366 218.762 693.356 221.441 686.416 224.282C679.479 227.132 672.603 230.144 665.769 233.246C652.094 239.445 638.538 245.927 624.991 252.43C611.439 258.928 597.901 265.452 584.234 271.72C577.405 274.861 570.55 277.945 563.626 280.876C556.703 283.807 549.723 286.627 542.603 289.062C539.053 290.314 535.435 291.361 531.804 292.357C528.155 293.284 524.494 294.151 520.803 294.886C513.429 296.381 506 297.599 498.557 298.68C483.664 300.82 468.715 302.487 453.766 304.119C438.817 305.755 423.864 307.332 408.975 309.323C401.529 310.305 394.099 311.391 386.717 312.702C379.335 314.01 371.991 315.539 364.806 317.586C307.098 334.441 249.394 351.386 191.532 367.754Z" fill="#494949"/>
<path d="M199.133 377.034C256.802 359.286 314.605 341.986 372.407 324.674C379.695 322.615 387.03 320.769 394.425 319.209L399.964 318.017L405.52 316.915L411.076 315.821L416.645 314.792C431.5 312.087 446.397 309.677 461.286 307.238C476.175 304.802 491.064 302.384 505.888 299.624L516.987 297.475C520.67 296.685 524.365 295.933 528.039 295.112L536.283 293.16C537.196 292.938 538.101 292.673 539.01 292.433L544.459 290.947C545.372 290.712 546.255 290.391 547.155 290.113L553.865 287.934L563.172 284.606L571.09 281.577C578.112 278.847 585.096 276.014 592.054 273.113C605.969 267.32 619.808 261.334 633.655 255.356C647.502 249.388 661.354 243.415 675.316 237.689C678.798 236.241 682.313 234.865 685.82 233.468C689.318 232.054 692.855 230.73 696.387 229.388C703.444 226.701 710.595 224.235 717.822 221.988C775.698 204.915 833.56 187.833 891.559 171.175L891.581 171.247C833.911 188.987 776.101 206.269 718.315 223.616C711.143 225.846 704.027 228.298 696.987 230.977C693.468 232.31 689.94 233.631 686.45 235.045C682.952 236.438 679.445 237.809 675.964 239.258C662.001 244.927 648.124 250.823 634.247 256.728C620.365 262.615 606.484 268.52 592.516 274.228C585.537 277.086 578.524 279.876 571.476 282.568L566.177 284.559L563.528 285.55L554.173 288.832L552.823 289.259L550.118 290.109C535.705 294.694 520.906 297.86 506.094 300.735C491.269 303.598 476.389 306.118 461.517 308.652C446.641 311.177 431.77 313.681 416.949 316.454L411.389 317.483L405.846 318.577L400.303 319.679L394.781 320.871C387.412 322.431 380.115 324.268 372.887 326.319C315.012 343.362 257.15 360.473 199.15 377.106L199.133 377.034Z" fill="#494949"/>
<path d="M206.73 386.301C264.644 368.463 322.656 350.941 380.66 333.394C395.218 329.092 409.944 325.456 424.679 321.91C439.426 318.402 454.204 315.052 468.977 311.694C483.754 308.34 498.527 304.986 513.258 301.47C516.945 300.598 520.614 299.684 524.297 298.791C527.975 297.894 531.636 296.937 535.306 296.014C538.967 295.061 542.62 294.074 546.276 293.091L551.73 291.523L554.452 290.729L557.157 289.874C571.591 285.35 585.863 280.278 600.1 275.121C614.333 269.951 628.523 264.658 642.722 259.373C656.921 254.092 671.119 248.807 685.374 243.667C688.932 242.372 692.512 241.12 696.083 239.856C699.65 238.582 703.238 237.36 706.822 236.126C713.99 233.66 721.205 231.323 728.463 229.102C786.552 211.836 844.633 194.554 902.804 177.562L902.856 177.733C844.933 195.554 786.925 213.08 728.926 230.635C721.702 232.861 714.509 235.207 707.358 237.685C703.783 238.92 700.203 240.146 696.64 241.428C693.073 242.697 689.507 243.953 685.948 245.256C671.702 250.387 657.5 255.647 643.297 260.911C629.089 266.166 614.882 271.425 600.628 276.561C597.065 277.847 593.498 279.129 589.923 280.385C586.352 281.65 582.781 282.914 579.188 284.132L573.812 285.978L568.415 287.764C566.614 288.353 564.818 288.96 563.009 289.532L557.568 291.207C543.044 295.616 528.327 299.291 513.601 302.871C498.866 306.435 484.097 309.831 469.333 313.224C454.568 316.62 439.799 320.004 425.073 323.533C410.347 327.058 395.634 330.673 381.127 334.937C323.037 352.198 264.961 369.493 206.781 386.468L206.73 386.301Z" fill="#494949"/>
<path d="M214.322 395.555L389.096 342.127C403.672 337.705 418.287 333.398 432.897 329.109L520.614 303.495L542.525 297.039C549.822 294.869 557.127 292.715 564.394 290.451C622.663 272.728 680.641 254.019 738.949 236.327L914.041 183.941L914.131 184.236L739.356 237.66C681.125 255.527 623.233 274.493 564.972 292.344C535.76 301.017 506.497 309.464 477.229 317.91C447.966 326.366 418.681 334.749 389.504 343.473L214.412 395.854L214.322 395.555Z" fill="#494949"/>
<path d="M221.915 404.801L265.878 391.368L397.713 350.869C412.328 346.306 426.818 341.328 441.291 336.308C455.76 331.271 470.199 326.152 484.637 321.021C499.072 315.885 513.511 310.746 527.979 305.691C542.448 300.632 556.951 295.672 571.579 290.998C573.401 290.4 575.248 289.874 577.088 289.332L582.618 287.725C586.313 286.7 590 285.64 593.704 284.64C601.103 282.619 608.512 280.65 615.928 278.71C630.761 274.831 645.616 271.058 660.471 267.281C675.321 263.5 690.171 259.719 704.996 255.848C719.816 251.964 734.623 248.02 749.302 243.658L881.309 203.706L925.285 190.311L925.423 190.751L881.455 204.176L749.619 244.684C734.953 249.178 720.172 253.241 705.377 257.253C690.578 261.252 675.758 265.158 660.942 269.067C646.126 272.981 631.31 276.894 616.524 280.906C601.742 284.931 586.978 289.02 572.367 293.527C568.711 294.638 565.045 295.728 561.405 296.92L555.94 298.667L545.029 302.252L539.584 304.076C535.953 305.285 532.322 306.511 528.7 307.746C514.192 312.668 499.715 317.68 485.229 322.683C470.747 327.695 456.27 332.719 441.758 337.65C427.243 342.567 412.709 347.442 398.035 351.903L266.028 391.855L222.047 405.241L221.915 404.801Z" fill="#494949"/>
<path d="M229.498 414.034C288.574 396.128 347.533 377.858 406.502 359.606C421.185 354.911 435.564 349.292 449.865 343.524C464.158 337.726 478.357 331.698 492.568 325.686L513.888 316.676L524.575 312.224C528.142 310.746 531.705 309.263 535.284 307.819C538.868 306.379 542.44 304.918 546.041 303.516C549.642 302.111 553.221 300.667 556.844 299.316C560.467 297.966 564.072 296.578 567.733 295.313L573.208 293.373C575.038 292.741 576.89 292.16 578.734 291.549C593.52 286.768 608.619 283.299 623.718 280.03C638.825 276.779 653.988 273.865 669.147 270.951C684.302 268.029 699.461 265.136 714.569 261.996C729.663 258.813 744.728 255.438 759.514 251.067C818.551 233.037 877.592 215.024 936.522 196.652L936.71 197.263C877.635 215.169 818.675 233.447 759.703 251.682C752.307 253.908 744.861 255.972 737.359 257.805L731.738 259.206C729.865 259.672 727.983 260.099 726.105 260.552L720.468 261.885L714.822 263.171C699.77 266.623 684.675 269.875 669.589 273.126C654.503 276.39 639.417 279.633 624.391 283.068C609.377 286.546 594.364 290.058 579.776 294.783C577.953 295.377 576.123 295.95 574.301 296.565L568.856 298.47C565.221 299.714 561.62 301.085 558.006 302.41C554.383 303.709 550.795 305.114 547.19 306.473C543.584 307.827 540 309.246 536.408 310.643C532.811 312.027 529.223 313.437 525.639 314.856L514.882 319.111L493.374 327.656C479.043 333.377 464.694 339.068 450.29 344.61C446.697 346.02 443.079 347.365 439.473 348.733C435.872 350.117 432.233 351.411 428.614 352.749C421.369 355.415 414.056 357.897 406.686 360.209C347.654 378.256 288.608 396.256 229.683 414.632L229.498 414.034Z" fill="#494949"/>
<path d="M237.125 423.395C296.402 405.207 355.567 386.673 414.741 368.16C429.493 363.447 444.069 358.179 458.598 352.8C473.122 347.404 487.595 341.858 502.068 336.321C516.546 330.792 531.023 325.246 545.535 319.79L556.441 315.757L567.373 311.779C571.034 310.493 574.678 309.169 578.352 307.921L583.861 306.033C585.696 305.396 587.552 304.815 589.396 304.2C604.194 299.381 619.221 295.42 634.264 291.639L645.56 288.853L656.874 286.149L679.513 280.825C694.612 277.304 709.716 273.818 724.78 270.169C739.836 266.495 754.867 262.697 769.696 258.236C777.087 255.933 784.413 253.412 791.714 250.823C799.019 248.243 806.29 245.568 813.578 242.919C828.145 237.63 842.696 232.276 857.396 227.329L862.913 225.487C864.752 224.868 866.591 224.265 868.439 223.676L873.978 221.894L879.538 220.185C886.968 217.946 894.427 215.827 901.921 213.827C909.415 211.828 916.951 209.982 924.505 208.222C928.282 207.337 932.072 206.513 935.862 205.701L941.555 204.505C943.445 204.107 945.375 203.748 947.227 203.321L947.385 203.842C945.469 204.325 943.595 204.723 941.701 205.158L936.033 206.449C932.26 207.32 928.492 208.218 924.728 209.132C917.2 210.956 909.702 212.909 902.23 214.942C894.757 216.972 887.315 219.117 879.911 221.385C872.512 223.671 865.138 226.038 857.79 228.482C854.121 229.721 850.446 230.947 846.79 232.216L835.802 235.993C828.484 238.54 821.175 241.112 813.874 243.709L791.958 251.473C784.64 254.032 777.327 256.608 769.927 258.941C762.515 261.223 755.068 263.397 747.583 265.423L741.976 266.961L730.735 269.956L725.106 271.417C710.102 275.335 695.067 279.129 680.041 282.931C665.006 286.713 649.989 290.536 635.005 294.471C620.031 298.428 605.073 302.427 590.395 307.221C588.56 307.823 586.716 308.4 584.886 309.028L579.394 310.899C575.728 312.134 572.089 313.45 568.432 314.719L557.483 318.598L546.551 322.538C531.971 327.776 517.416 333.104 502.853 338.406C488.286 343.699 473.705 348.972 459.091 354.146C455.438 355.445 451.786 356.739 448.12 358.004L442.629 359.914L437.124 361.794C429.793 364.323 422.42 366.72 415.012 369.027C355.739 387.232 296.458 405.399 237.288 423.925L237.125 423.395Z" fill="#494949"/>
<path d="M244.756 432.765L289.367 418.789L423.131 376.649C452.802 367.143 482.275 357.021 511.744 346.891L555.957 331.715L578.091 324.2C585.481 321.722 592.86 319.235 600.272 316.804C615.105 311.942 630.067 307.524 645.058 303.243C660.05 298.966 675.085 294.86 690.115 290.729C720.163 282.461 750.305 274.48 780.079 265.316C787.478 262.94 794.758 260.167 801.977 257.253C809.205 254.357 816.369 251.306 823.55 248.285C837.907 242.244 852.256 236.134 866.892 230.708C868.714 230.012 870.561 229.379 872.396 228.717L875.153 227.735L877.926 226.794C879.778 226.179 881.622 225.534 883.482 224.94L889.081 223.21C890.946 222.633 892.837 222.133 894.714 221.591C896.588 221.044 898.483 220.561 900.373 220.061L903.211 219.326L906.062 218.643C907.962 218.185 909.861 217.728 911.768 217.318C919.391 215.622 927.078 214.191 934.794 213.024C938.653 212.43 942.523 211.926 946.395 211.46L952.204 210.777C954.129 210.537 956.096 210.379 957.957 209.978L958.081 210.392C957.117 210.657 956.152 210.824 955.188 210.995C954.223 211.153 953.263 211.319 952.298 211.46L946.519 212.345C942.669 212.939 938.832 213.592 935.004 214.272C927.347 215.648 919.725 217.211 912.163 219.01C910.268 219.441 908.386 219.92 906.5 220.399L903.674 221.112L900.862 221.877C898.984 222.381 897.107 222.872 895.246 223.428C893.386 223.979 891.508 224.487 889.656 225.068C882.231 227.337 874.883 229.879 867.569 232.524L862.094 234.536C860.268 235.207 858.455 235.912 856.637 236.6C852.993 237.959 849.371 239.386 845.739 240.787C838.49 243.633 831.262 246.529 824.038 249.443C816.815 252.361 809.574 255.245 802.329 258.108C795.066 260.941 787.787 263.743 780.345 266.119C772.907 268.46 765.452 270.72 757.975 272.929C750.507 275.155 743.03 277.356 735.549 279.53L690.664 292.613C675.698 296.958 660.749 301.346 645.813 305.772C630.881 310.216 615.967 314.676 601.189 319.543L512.469 348.993L468.038 363.545C453.222 368.378 438.393 373.171 423.496 377.773L289.53 419.272L244.897 433.175L244.756 432.765Z" fill="#494949"/>
<path d="M252.387 442.143L431.654 385.083C446.603 380.332 461.59 375.731 476.582 371.138L521.566 357.402C536.562 352.83 551.554 348.25 566.524 343.601C581.503 338.983 596.461 334.313 611.328 329.387C626.213 324.473 641.127 319.615 656.059 314.839C670.991 310.053 685.944 305.341 700.893 300.62L745.761 286.507L790.608 272.335L793.377 271.383L794.762 270.908C795.221 270.746 795.675 270.562 796.134 270.391C797.956 269.682 799.791 269.011 801.6 268.268L807.019 266.016L812.386 263.641C819.533 260.445 826.585 257.035 833.65 253.647C840.715 250.255 847.771 246.841 854.884 243.526C862.009 240.236 869.168 237.006 876.465 234.062C878.269 233.284 880.126 232.622 881.956 231.909L884.713 230.853C885.63 230.499 886.569 230.191 887.495 229.858C889.356 229.213 891.203 228.525 893.077 227.914L898.732 226.162C902.526 225.085 906.328 224.039 910.169 223.154C911.13 222.932 912.086 222.697 913.05 222.488L918.842 221.3L921.753 220.779L924.664 220.262C925.637 220.099 926.61 219.971 927.588 219.826L930.511 219.399L933.444 219.04C937.349 218.536 941.272 218.207 945.194 217.916C949.117 217.647 953.044 217.472 956.967 217.352L962.844 217.173C963.822 217.126 964.799 217.092 965.772 217.023L967.226 216.895C967.701 216.822 968.173 216.728 968.653 216.647L968.743 216.942C968.263 217.062 967.779 217.194 967.294 217.305L965.832 217.544C964.855 217.685 963.877 217.797 962.9 217.895C960.945 218.083 958.99 218.258 957.035 218.425C953.13 218.741 949.233 219.134 945.345 219.544C943.402 219.783 941.46 219.975 939.527 220.262L936.625 220.651C935.656 220.779 934.696 220.941 933.731 221.086L930.837 221.531L925.075 222.556L919.339 223.693L916.488 224.338L913.638 224.979C912.69 225.201 911.747 225.457 910.804 225.692C907.014 226.598 903.263 227.67 899.529 228.764C892.087 231.029 884.76 233.725 877.493 236.579C862.978 242.347 848.68 248.755 834.387 255.19C827.241 258.415 820.069 261.586 812.875 264.709L807.456 267.003L801.999 269.216C800.181 269.951 798.329 270.614 796.494 271.314C796.035 271.485 795.577 271.669 795.114 271.827L790.921 273.237C787.195 274.472 783.449 275.617 779.715 276.813L768.513 280.381L746.13 287.597L701.442 302.252L612.147 331.801C597.249 336.718 582.266 341.38 567.279 345.985C552.274 350.553 537.252 355.047 522.231 359.525L477.144 372.915C462.122 377.393 447.1 381.879 432.13 386.515L252.498 442.438L252.387 442.143Z" fill="#494949"/>
<path d="M260.022 451.53C320.071 432.008 380.201 412.735 440.326 393.457C455.408 388.711 470.619 384.447 485.842 380.242C501.065 376.051 516.319 371.962 531.559 367.856C546.808 363.772 562.057 359.7 577.259 355.475C592.457 351.236 607.628 346.904 622.577 341.931C637.539 336.962 652.419 331.694 667.283 326.391L711.872 310.459C726.731 305.131 741.599 299.821 756.492 294.591C771.372 289.34 786.312 284.175 801.308 279.283C803.156 278.612 805.025 278.014 806.83 277.232L809.561 276.117C810.474 275.749 811.383 275.377 812.275 274.963C814.067 274.155 815.871 273.365 817.655 272.536L822.967 269.956C824.741 269.101 826.482 268.182 828.244 267.298L830.872 265.948L833.483 264.564C836.968 262.727 840.445 260.864 843.909 258.984C857.782 251.481 871.612 243.803 886.14 237.373C887.932 236.527 889.789 235.801 891.624 235.036L894.38 233.895C894.835 233.699 895.302 233.519 895.773 233.353L897.175 232.836L899.979 231.806C900.918 231.473 901.84 231.093 902.8 230.811L908.523 229.02C916.193 226.833 924.025 225.205 931.93 224.197C935.883 223.68 939.853 223.355 943.827 223.142C947.797 222.924 951.775 222.868 955.741 222.936C959.706 222.983 963.663 223.201 967.607 223.402C969.579 223.505 971.547 223.629 973.51 223.671C975.469 223.705 977.446 223.735 979.366 223.325L979.414 223.479C978.47 223.808 977.484 223.983 976.498 224.128C975.512 224.261 974.518 224.359 973.527 224.415C971.547 224.534 969.566 224.594 967.59 224.641C963.637 224.714 959.697 224.804 955.771 224.957C953.807 225.039 951.844 225.145 949.889 225.282C947.93 225.423 945.975 225.56 944.024 225.752C940.123 226.119 936.239 226.636 932.376 227.243C924.651 228.482 917.02 230.225 909.531 232.43C902.075 234.669 894.787 237.548 887.568 240.603C873.164 246.816 859.063 253.895 844.916 260.889C837.847 264.401 830.748 267.866 823.592 271.229L818.199 273.694L812.755 276.052C809.098 277.569 805.424 279.048 801.651 280.278C771.586 289.921 741.997 300.91 712.365 311.792C697.558 317.253 682.763 322.764 667.93 328.16L656.796 332.194L645.646 336.188C638.199 338.816 630.761 341.469 623.259 343.952C608.254 348.95 593.057 353.304 577.846 357.555C562.632 361.789 547.383 365.887 532.129 369.963C516.872 374.013 501.61 378.042 486.378 382.174C471.15 386.318 455.936 390.518 440.888 395.196C380.638 414.081 320.396 433.013 260.073 451.671L260.022 451.53Z" fill="#494949"/>
<path d="M267.657 460.925L278.975 457.152L312.959 445.928L358.315 431.103L403.707 416.384L449.136 401.772C464.368 397.008 479.81 393.103 495.261 389.283C510.72 385.498 526.226 381.926 541.719 378.311C557.213 374.71 572.715 371.142 588.148 367.331C595.865 365.425 603.569 363.464 611.23 361.371C618.891 359.269 626.521 357.073 634.041 354.535C641.569 352.01 649.037 349.297 656.479 346.511C663.922 343.721 671.334 340.854 678.738 337.953C693.536 332.138 708.297 326.216 723.036 320.248C737.779 314.283 752.535 308.344 767.342 302.534C774.75 299.633 782.175 296.779 789.639 294.023L795.247 291.98L800.875 289.994C802.762 289.353 804.635 288.691 806.534 288.08L809.372 287.144L812.176 286.178C815.893 284.837 819.533 283.26 823.112 281.577C826.692 279.885 830.224 278.086 833.706 276.185C837.191 274.297 840.638 272.331 844.063 270.327C847.493 268.328 850.901 266.294 854.296 264.235L864.499 258.061C867.908 256.01 871.316 253.951 874.771 251.96C881.66 247.952 888.653 244.064 895.889 240.586C899.508 238.852 903.173 237.19 906.937 235.72C910.688 234.233 914.525 232.908 918.448 231.815C926.241 229.683 934.237 228.247 942.292 227.653C950.343 227.034 958.433 227.269 966.394 228.106C970.377 228.508 974.325 229.097 978.265 229.597C980.232 229.854 982.196 230.106 984.168 230.238C986.136 230.366 988.125 230.418 990.075 230.003C989.141 230.349 988.155 230.571 987.16 230.717C986.166 230.866 985.163 230.956 984.159 230.994C982.153 231.076 980.147 231.05 978.149 230.99C974.158 230.841 970.188 230.648 966.231 230.537C958.321 230.306 950.446 230.52 942.657 231.443C934.871 232.353 927.18 233.925 919.661 236.1C915.931 237.185 912.257 238.501 908.617 239.937C906.795 240.646 904.995 241.428 903.186 242.188C901.39 242.987 899.593 243.778 897.81 244.619C883.538 251.293 869.652 259.031 855.647 266.58L845.118 272.216C841.602 274.083 838.048 275.894 834.49 277.685C830.928 279.471 827.331 281.197 823.682 282.82C820.039 284.448 816.347 285.973 812.575 287.311C797.403 292.156 782.548 297.753 767.719 303.504C752.899 309.259 738.173 315.257 723.43 321.226C708.691 327.195 693.982 333.249 679.201 339.128C671.81 342.072 664.406 344.977 656.968 347.81C649.53 350.638 642.062 353.394 634.521 355.966C626.984 358.555 619.332 360.815 611.667 362.964C603.997 365.105 596.294 367.122 588.581 369.074C573.148 372.975 557.671 376.662 542.187 380.328C526.702 383.981 511.217 387.621 495.779 391.415C480.35 395.226 464.926 399.123 449.788 403.853L404.307 418.281L358.791 432.619L313.241 446.851L267.657 460.925Z" fill="#494949"/>
<path d="M275.108 470.038C335.676 449.902 396.38 430.197 457.085 410.479C472.329 405.643 487.741 401.46 503.17 397.358C518.604 393.278 534.067 389.326 549.535 385.399C565.002 381.469 580.466 377.547 595.882 373.453C611.289 369.335 626.684 365.16 641.796 360.149C656.904 355.116 671.84 349.51 686.75 343.853C701.656 338.179 716.519 332.386 731.391 326.605C746.263 320.829 761.126 315.018 776.071 309.425C791.019 303.854 806.054 298.428 821.196 293.39C824.943 292.104 828.608 290.566 832.252 288.99C834.061 288.165 835.875 287.358 837.68 286.52L843.043 283.901C850.168 280.359 857.19 276.591 864.204 272.81C878.239 265.252 892.245 257.535 906.92 251.028C908.733 250.174 910.607 249.439 912.459 248.666C914.315 247.901 916.163 247.11 918.062 246.44L922.306 244.863L923.013 244.598L923.733 244.363L929.508 242.535C937.246 240.291 945.143 238.608 953.121 237.536C957.108 236.989 961.117 236.626 965.125 236.382C969.133 236.13 973.15 236.04 977.159 236.074C981.167 236.087 985.167 236.271 989.154 236.442C991.147 236.527 993.137 236.634 995.126 236.664C997.111 236.681 999.113 236.707 1001.07 236.284C1000.12 236.613 999.13 236.788 998.135 236.933C997.141 237.07 996.142 237.164 995.143 237.228C993.141 237.356 991.143 237.425 989.145 237.48C985.154 237.574 981.171 237.694 977.197 237.877C973.227 238.07 969.266 238.377 965.322 238.77C961.378 239.172 957.456 239.723 953.55 240.368C945.748 241.68 938.035 243.492 930.477 245.777C922.949 248.089 915.588 251.037 908.322 254.19C893.797 260.569 879.611 267.836 865.357 274.997C858.236 278.59 851.068 282.128 843.844 285.546L838.4 288.058L832.895 290.455C829.2 291.993 825.479 293.489 821.663 294.745C819.768 295.424 817.882 296.031 815.987 296.663L810.32 298.552C806.56 299.868 802.796 301.179 799.053 302.559C795.315 303.948 791.568 305.298 787.843 306.725L776.667 310.98C761.773 316.684 746.906 322.469 732.051 328.28C717.192 334.086 702.333 339.901 687.427 345.605C672.517 351.292 657.577 356.927 642.418 362.003C627.242 367.066 611.825 371.279 596.405 375.397C580.976 379.503 565.504 383.43 550.041 387.365C534.577 391.304 519.101 395.188 503.672 399.238C488.251 403.301 472.844 407.45 457.655 412.231C396.843 431.62 336.049 451.06 275.108 470.038Z" fill="#494949"/>
<path d="M282.555 479.156C343.349 458.968 404.238 439.058 465.118 419.14C480.385 414.226 495.784 409.8 511.2 405.438C526.616 401.088 542.062 396.846 557.504 392.594C572.946 388.348 588.388 384.101 603.792 379.734L615.336 376.431L626.86 373.065L638.349 369.595L646.928 366.887L649.774 365.938C664.95 360.901 679.998 355.423 695.02 349.899C710.042 344.362 725.029 338.731 740.021 333.108C755.017 327.49 770 321.833 785.056 316.364C800.117 310.916 815.241 305.601 830.46 300.585L833.277 299.598C834.216 299.27 835.159 298.945 836.081 298.569C837.933 297.834 839.802 297.137 841.645 296.368L847.163 294.04L852.633 291.596C859.912 288.298 867.123 284.833 874.334 281.363C881.545 277.885 888.764 274.42 896.031 271.041C903.306 267.674 910.611 264.359 918.053 261.334C919.897 260.539 921.783 259.847 923.652 259.112C925.525 258.381 927.395 257.642 929.294 256.984C931.189 256.313 933.075 255.609 934.978 254.963L940.736 253.13C941.692 252.81 942.669 252.566 943.634 252.289L946.541 251.477C948.47 250.909 950.433 250.456 952.384 249.964L955.316 249.255L961.215 247.982C962.201 247.781 963.191 247.606 964.177 247.418C972.078 245.923 980.057 244.859 988.061 244.184C992.06 243.851 996.069 243.607 1000.07 243.428L1006.07 243.158C1007.07 243.103 1008.07 243.047 1009.07 242.97L1010.56 242.821C1011.05 242.744 1011.54 242.646 1012.03 242.556C1011.55 242.676 1011.06 242.812 1010.57 242.919L1009.09 243.167C1008.09 243.308 1007.1 243.436 1006.1 243.543L1000.12 244.145C996.133 244.513 992.159 244.966 988.189 245.44C986.209 245.709 984.224 245.935 982.252 246.252L979.289 246.687C978.303 246.837 977.322 247.012 976.336 247.175L973.386 247.67L970.445 248.23C969.468 248.418 968.486 248.597 967.508 248.794L964.581 249.413C963.607 249.623 962.63 249.819 961.657 250.037L955.839 251.421L952.95 252.186C951.025 252.699 949.087 253.173 947.184 253.758L944.316 254.6C943.364 254.886 942.399 255.143 941.46 255.472C933.877 257.873 926.426 260.731 919.035 263.735L913.505 266.025L908.009 268.405C906.17 269.187 904.343 269.994 902.517 270.806C900.691 271.622 898.86 272.417 897.042 273.245C889.754 276.535 882.505 279.923 875.238 283.277C867.976 286.644 860.688 289.981 853.357 293.224L847.836 295.616L842.271 297.919C840.415 298.68 838.524 299.372 836.655 300.103C835.725 300.474 834.769 300.799 833.817 301.124L830.962 302.106C815.747 307.088 800.738 312.63 785.729 318.201C770.72 323.768 755.716 329.357 740.724 334.984C725.728 340.602 710.736 346.229 695.706 351.762C680.671 357.282 665.615 362.764 650.387 367.809L647.532 368.758L638.928 371.475L627.417 374.949C623.572 376.068 619.731 377.209 615.877 378.303L604.314 381.58C588.89 385.908 573.431 390.116 557.98 394.32C542.525 398.529 527.07 402.729 511.65 407.036C496.234 411.355 480.83 415.739 465.594 420.601C404.607 440.195 343.628 459.823 282.555 479.156Z" fill="#494949"/>
<path d="M290.001 488.269L335.8 473.093L473.26 427.762C534.534 408.074 596.731 391.441 657.92 371.719C673.169 366.664 688.328 361.302 703.474 355.91C718.616 350.51 733.74 345.041 748.865 339.577C763.994 334.12 779.106 328.622 794.278 323.281C809.458 317.958 824.681 312.754 839.973 307.742C847.57 305.213 855.038 302.26 862.472 299.222C869.905 296.18 877.292 293.014 884.687 289.866C899.477 283.568 914.276 277.232 929.345 271.549C931.223 270.823 933.122 270.152 935.009 269.451L937.842 268.409C938.79 268.063 939.741 267.742 940.693 267.409C942.596 266.751 944.491 266.072 946.403 265.435L952.161 263.585C954.077 262.966 956.024 262.427 957.953 261.846C959.882 261.261 961.828 260.736 963.77 260.201L966.685 259.407L969.613 258.663C971.564 258.168 973.515 257.664 975.478 257.215C983.315 255.348 991.22 253.771 999.151 252.404C1003.12 251.712 1007.1 251.118 1011.08 250.563L1017.06 249.747C1019.05 249.465 1021.06 249.264 1023.02 248.828C1022.05 249.093 1021.06 249.277 1020.07 249.465L1017.1 249.982L1011.15 250.994C1007.19 251.673 1003.24 252.421 999.297 253.186C991.409 254.728 983.576 256.518 975.8 258.509C973.849 258.988 971.916 259.522 969.978 260.048L967.071 260.838L964.182 261.675C962.253 262.231 960.323 262.774 958.411 263.376C956.499 263.978 954.57 264.53 952.667 265.17C945.04 267.644 937.495 270.387 929.988 273.241L924.377 275.42C922.507 276.147 920.647 276.911 918.782 277.655C915.044 279.124 911.335 280.667 907.614 282.175C900.189 285.243 892.781 288.362 885.373 291.481C877.965 294.604 870.549 297.714 863.102 300.769C855.651 303.811 848.153 306.768 840.488 309.314C825.23 314.364 810.105 319.816 794.972 325.242L749.564 341.516C734.43 346.951 719.297 352.394 704.134 357.769C688.971 363.135 673.795 368.472 658.507 373.509C654.683 374.769 650.846 375.978 647.013 377.2C643.172 378.388 639.335 379.602 635.485 380.772C627.795 383.131 620.087 385.434 612.374 387.719C596.949 392.291 581.507 396.786 566.066 401.276C550.624 405.771 535.182 410.261 519.761 414.824C504.345 419.396 488.937 424.006 473.641 428.937L335.928 473.491L290.001 488.269Z" fill="#494949"/>
<path d="M297.452 497.387L481.486 436.341C542.92 416.222 604.82 397.58 666.228 377.478C681.554 372.39 696.837 367.147 712.112 361.883L757.911 346.015C773.177 340.726 788.43 335.389 803.726 330.181C819.031 324.99 834.353 319.863 849.73 314.868C857.387 312.348 864.975 309.592 872.555 306.806L895.255 298.334C910.379 292.656 925.534 287.029 940.779 281.658C971.238 270.793 1002.45 262.077 1034 255.096C1018.3 258.932 1002.68 263.06 987.195 267.666C979.452 269.956 971.74 272.357 964.07 274.882C956.409 277.42 948.778 280.064 941.173 282.773C925.967 288.216 910.864 293.937 895.756 299.667L873.078 308.225C865.503 311.04 857.915 313.83 850.232 316.394C834.919 321.529 819.661 326.84 804.399 332.134L712.721 363.652C697.429 368.873 682.129 374.077 666.772 379.127C651.408 384.156 635.996 389.01 620.571 393.829L527.988 422.596C512.567 427.42 497.151 432.261 481.791 437.259L297.452 497.387Z" fill="#494949"/>
<path d="M304.899 506.5L397.298 475.52L582.18 413.825L674.669 383.114C736.334 362.657 797.973 342.132 859.677 321.794L905.964 306.571L952.281 291.438C967.723 286.396 983.156 281.333 998.611 276.347L1044.98 261.368L998.838 277.031C983.461 282.256 968.057 287.409 952.658 292.583L906.465 308.092L860.242 323.512C798.599 344.029 736.891 364.357 675.209 384.759L582.678 415.333L397.52 476.204L304.899 506.5Z" fill="#494949"/>
<path d="M304.753 507L304.569 506.769L0 134.021L0.664408 133.478L305.044 506.004L1043.96 261.253L605.631 0.734863L606.068 0L1045.2 260.996L1046 261.475L304.753 507Z" fill="#494949"/>
</svg>
