<svg width="349" height="349" viewBox="0 0 349 349" fill="none" xmlns="http://www.w3.org/2000/svg">
<path d="M63.8625 0.876997C63.8091 0.674569 63.754 0.472524 63.7009 0.269844L64.736 5.74448e-05C64.801 0.2478 64.8669 0.495084 64.9323 0.742601C77.0652 -0.776601 89.6886 2.36256 102.077 6.70225C122.583 13.8866 144.202 17.7517 165.111 21.4895C181.158 24.3581 197.645 27.332 213.658 31.791L214.013 31.6135C214.069 31.7247 214.127 31.8255 214.183 31.9362C217.489 32.8642 220.782 33.8331 224.038 34.9041C244.517 41.6375 261.26 54.4617 275.655 70.4178C275.956 70.445 276.258 70.4738 276.563 70.5212C277.1 70.5414 277.635 70.5649 278.174 70.5795C279.607 70.2344 281.051 69.885 282.511 69.5303C290.256 67.6511 298.454 65.6666 306.709 64.0255C313.387 61.8699 320.008 60.0879 326.387 58.8922C333.479 55.747 345.565 53.3452 356.582 53.7644C359.445 53.6054 362.396 53.6672 365.289 53.9901C374.81 55.0499 381.897 58.6814 385.33 64.2224L387.168 63.441L385.781 64.9752C389.629 71.7442 393.602 82.5374 394.412 92.5019C396.733 100.243 398.054 108.352 396.689 115.087C397.749 120.046 398.089 124.749 397.344 128.846C396.893 131.322 396.063 133.516 394.878 135.431C395.871 140.009 395.906 143.479 395.44 146.091C395.174 147.586 394.718 148.938 394.092 150.152C394.043 153.304 393.934 156.501 393.764 159.754C393.957 160.993 393.981 162.15 393.81 163.212C393.736 163.674 393.616 164.112 393.473 164.539C393.061 170.604 392.472 176.852 391.744 183.323C390.586 193.62 389.521 203.719 388.677 213.696L388.708 213.908L388.654 213.963C388.259 218.66 387.914 223.329 387.634 227.978C388.236 228.639 388.586 229.022 388.631 229.071L389.134 229.62L388.455 229.922C388.439 229.929 388.11 229.933 387.517 229.929C387.332 233.205 387.183 236.472 387.068 239.733C388.836 242.577 389.689 244.513 389.531 245.527L389.422 245.921L389.074 246.004C388.851 246.057 388.102 245.907 386.906 245.577C386.85 248.222 386.823 250.864 386.826 253.504C389.602 257.024 391.309 259.911 391.162 261.832C391.07 263.022 390.252 264.141 388.727 265.159C388.587 265.254 388.413 265.344 388.26 265.436C391.319 270.075 393.444 274.447 393.865 278.423C393.988 279.581 393.58 280.717 392.794 281.823C395.317 286.508 397.173 291.083 397.861 295.427C398.004 296.329 397.994 297.213 397.853 298.078C400.245 302.974 402.182 307.879 403.367 312.767C404.334 316.753 403.632 320.695 401.281 324.483C393.913 336.352 372.218 343.9 361.774 346.231C341.014 350.87 317.041 349.157 286.329 340.841C223.16 323.737 169.271 281.083 126.157 214.063C108.961 187.333 82.7281 167.593 41.0964 150.057C39.1505 149.237 37.206 148.446 35.2801 147.662C22.6252 142.512 10.4726 137.567 4.27526 126.858C1.79978 122.579 0.273388 117.378 0.047634 110.88C-0.979491 81.4008 14.8377 46.585 28.6944 25.7277C39.3248 9.72731 51.318 2.739 63.8625 0.876997ZM164.925 22.5441C143.975 18.7996 122.312 14.9268 101.726 7.71393C88.4094 3.04873 76.2896 0.376302 65.1754 1.66463C69.1658 16.7397 73.7237 31.559 79.5464 45.1429C91.7599 39.3673 103.988 36.074 113.702 35.8316C117.567 35.7354 121.528 35.6185 125.563 35.4979C133.645 35.2576 141.99 35.0105 150.43 34.9069C148.415 31.9676 146.459 28.8896 144.575 25.6343C143.484 23.7488 142.412 21.8048 141.362 19.812L142.309 19.3147C145.269 24.9369 148.398 30.1242 151.707 34.8921C174.07 34.6568 197.052 35.4928 217.619 40.2117C217.052 39.3101 216.488 38.4022 215.937 37.4506C215.087 35.9816 214.258 34.4365 213.446 32.8434C197.456 28.3867 180.97 25.4126 164.925 22.5441ZM38.8964 78.9783C34.3741 85.2947 31.2302 91.7587 29.485 98.2329C38.4608 105.626 48.048 111.82 58.2374 116.813C59.8145 111.391 63.1631 106.096 66.933 101.838C76.082 91.5037 85.6436 82.6532 95.3674 75.4234C92.4787 71.5867 89.8092 67.5088 87.3319 63.2283C84.284 57.9618 81.5333 52.382 79.0093 46.5806C63.8679 53.9095 48.8517 65.0714 38.8964 78.9783ZM390.52 306.407C389.221 299.652 388.227 292.942 387.489 286.257C377.173 292.423 357.982 296.803 357.714 296.863C348.901 298.844 339.362 299.292 328.924 298.208C327.164 305.956 325.652 313.811 324.44 321.779C337.918 323.115 350.012 322.33 360.948 319.403C370.006 316.979 382.889 312.294 390.52 306.407ZM396.721 298.206C395.943 296.629 395.121 295.051 394.258 293.476C394.56 294.593 394.852 295.714 395.168 296.828L394.139 297.119C393.45 294.684 392.798 292.24 392.168 289.789C391.248 288.21 390.296 286.635 389.325 285.061C389.056 285.251 388.785 285.439 388.498 285.626C389.219 292.272 390.187 298.939 391.461 305.652C394.248 303.325 396.176 300.823 396.721 298.206ZM389.388 278.043C388.799 277.078 388.192 276.111 387.563 275.14C387.698 277.086 387.858 279.034 388.035 280.983C388.565 281.816 389.091 282.651 389.612 283.487C389.913 283.253 390.195 283.02 390.458 282.786C390.092 281.209 389.731 279.63 389.388 278.043ZM391.356 281.908C391.414 281.844 391.47 281.781 391.524 281.717C391.409 281.509 391.29 281.299 391.172 281.089C391.234 281.362 391.294 281.635 391.356 281.908ZM385.988 239.968C385.506 239.212 384.965 238.395 384.361 237.516C384.556 239.666 384.764 241.803 384.993 243.917C385.299 244.013 385.592 244.106 385.864 244.19C385.898 242.784 385.939 241.376 385.988 239.968ZM383.121 235.742C381.817 233.905 380.308 231.859 378.634 229.642C374.632 229.442 369.739 229.111 364.56 228.568C367.933 232.585 371.734 236.706 375.316 240.564C378.766 241.822 381.653 242.825 383.873 243.554C383.598 240.977 383.347 238.373 383.121 235.742ZM386.536 228.362C385.789 227.541 384.737 226.382 383.427 224.933C383.504 226.223 383.571 227.526 383.658 228.802C384.808 228.838 385.763 228.86 386.505 228.875C386.514 228.704 386.526 228.533 386.536 228.362ZM382.281 223.662C378.703 219.694 373.634 214.03 367.739 207.332C365.855 206.753 363.988 206.177 362.19 205.613C362.198 206.06 362.206 206.507 362.217 206.954C369.092 215.594 374.803 222.82 379.194 228.623C380.421 228.682 381.563 228.729 382.581 228.765C382.467 227.083 382.376 225.37 382.281 223.662ZM387.684 212.726C388.087 208.031 388.538 203.307 389.024 198.548C388.934 198.642 388.858 198.737 388.738 198.827C387.172 200.005 385.134 200.35 382.68 199.853C382.668 199.851 382.655 199.847 382.643 199.844C382.664 203.599 382.726 207.286 382.825 210.912C385.376 211.754 386.857 212.309 387.684 212.726ZM383.309 212.201C384.667 213.031 385.799 213.524 386.666 213.633C386.856 213.656 387.025 213.659 387.173 213.638C386.448 213.294 385.074 212.793 383.309 212.201ZM388.61 182.934C389.947 181.957 390.601 180.826 390.607 179.477C390.613 178.406 390.21 177.251 389.515 176.049C388.563 174.405 387.059 172.678 385.316 170.982C384.595 171.168 383.855 171.3 383.101 171.384C383.085 171.965 383.069 172.541 383.053 173.123C382.979 175.73 382.905 178.341 382.837 180.959C382.803 182.25 382.788 183.504 382.762 184.779C384.981 184.76 386.943 184.153 388.61 182.934ZM389.143 168.196C390.765 167.19 391.855 165.89 392.414 164.329C392.517 162.801 392.609 161.284 392.688 159.78C392.41 158.083 391.763 156.202 390.753 154.141C390.505 154.332 390.258 154.524 389.991 154.699C388.271 155.829 386.455 156.626 384.56 157.119C384.178 157.965 383.793 158.809 383.404 159.65C383.345 162.293 383.278 164.946 383.205 167.61C384.034 168.318 384.84 169.041 385.611 169.773C386.842 169.402 388.025 168.889 389.143 168.196ZM392.855 138.051C392.496 138.431 392.114 138.793 391.716 139.141C390.722 142.137 389.611 145.129 388.417 148.106C389.449 149.62 390.336 151.068 391.079 152.448C391.853 151.693 392.498 150.828 393.022 149.863C393.078 145.851 393.027 141.917 392.855 138.051ZM324.426 61.0789C326.638 60.6673 328.943 60.2889 331.304 59.9685C332.512 59.5241 333.697 59.1085 334.853 58.7271C332.199 58.9986 329.481 59.4026 326.715 59.918C325.865 60.3004 325.098 60.6888 324.426 61.0789ZM96.882 75.6268C102.575 83.0258 109.119 89.479 116.728 94.6824C124.859 86.6645 134.02 79.0284 143.877 73.2032C152.348 68.197 162.796 63.544 174.093 59.9985C170.057 57.0165 166.222 53.6486 162.577 49.8885C149.845 52.1392 137.93 55.3252 128.097 58.7433C117.718 62.3507 107.214 68.0574 96.882 75.6268ZM387.357 285.033C387.226 283.8 387.104 282.567 386.991 281.336C385.307 278.69 383.588 276.056 381.879 273.441C380.861 271.884 379.84 270.316 378.821 268.743C367.7 271.284 350.731 272.481 335.914 271.956C333.397 280.228 331.128 288.626 329.164 297.155C339.432 298.209 348.816 297.764 357.477 295.817C365.632 293.983 379.655 289.745 387.357 285.033ZM388.365 284.388C388.496 284.301 388.614 284.213 388.741 284.126C388.578 283.865 388.416 283.604 388.253 283.344C388.288 283.692 388.329 284.04 388.365 284.388ZM395.372 114.062C394.745 111.4 393.921 108.674 392.94 105.927C392.276 107.648 391.392 109.219 390.25 110.592C391.16 114.411 391.895 118.275 392.466 122.197C393.771 120.486 394.695 118.532 395.296 116.398C395.337 115.617 395.362 114.838 395.372 114.062ZM389.148 96.704C388.639 97.9663 388.057 99.2584 387.41 100.577C388.362 103.456 389.202 106.355 389.932 109.281C391.002 107.844 391.812 106.207 392.387 104.412C391.415 101.831 390.321 99.2502 389.148 96.704ZM389.827 91.1886C389.801 91.1432 389.776 91.0981 389.75 91.0522C389.563 92.0326 389.314 92.9811 388.99 93.8835C389 93.9049 389.01 93.9263 389.021 93.9474C389.342 93.0031 389.608 92.0845 389.827 91.1886ZM361.104 199.749C352.79 190.195 343.506 179.314 334.733 168.573C334.726 168.648 334.724 168.72 334.717 168.795C335.744 171.171 336.759 173.552 337.764 175.934C345.131 185.488 352.656 194.947 359.6 203.666C360.055 203.812 360.517 203.96 360.985 204.107C361.021 204.029 361.056 203.95 361.092 203.871C361.081 202.497 361.086 201.123 361.104 199.749ZM362.161 201.543C362.219 201.416 362.277 201.289 362.335 201.163C362.277 201.096 362.218 201.03 362.16 200.962C362.158 201.155 362.162 201.349 362.161 201.543ZM388.398 125.915C389.073 125.488 389.691 125.022 390.268 124.527C389.011 121.463 387.439 118.08 385.491 114.341C384.536 114.81 383.553 115.162 382.539 115.384C382.893 119.598 383.147 123.82 383.313 128.054C385.029 127.669 386.729 126.973 388.398 125.915ZM389.071 110.325C388.387 107.508 387.609 104.714 386.721 101.942C385.693 103.928 384.529 105.964 383.25 108.037C384.203 109.716 385.092 111.335 385.916 112.895C386.167 112.747 386.419 112.602 386.665 112.434C387.571 111.818 388.363 111.105 389.071 110.325ZM373.834 59.3089C372.746 58.9266 371.62 58.5956 370.44 58.3596C368.487 57.9681 366.522 57.8028 364.603 57.8467C364.606 57.8477 364.608 57.8485 364.61 57.8497C367.001 59.1558 369.01 60.965 370.632 63.2584C371.088 63.2899 371.548 63.3377 372.014 63.4203C373.226 63.6365 374.378 64.0322 375.455 64.5599C375.375 62.3773 374.832 60.626 373.834 59.3089ZM340.417 59.088C342.773 58.9609 345.132 58.9184 347.461 58.9846C347.798 58.8709 348.136 58.7588 348.473 58.6479C346.303 58.4112 344.056 58.3098 341.744 58.3327C341.273 58.5753 340.827 58.8259 340.417 59.088ZM278.084 76.1495C277.386 76.4497 276.691 76.7503 275.999 77.0511C277.782 79.1457 279.527 81.2923 281.232 83.4901C281.931 83.6757 282.651 83.8455 283.392 83.9988C283.402 83.9945 283.413 83.9905 283.423 83.9863C283.905 83.7086 284.383 83.4314 284.866 83.1542C283.43 81.2917 281.967 79.4631 280.483 77.6615C279.686 77.1244 278.886 76.6216 278.084 76.1495ZM265.104 71.8322C264.956 71.8242 264.809 71.8289 264.661 71.824C265.209 72.312 265.754 72.805 266.293 73.3069C266.569 73.2483 266.842 73.1917 267.121 73.1316C267.126 73.1279 267.13 73.1242 267.134 73.1208C266.731 72.7151 266.332 72.3048 265.923 71.9057C265.65 71.8805 265.377 71.8474 265.104 71.8322ZM162.375 83.9195C153.661 90.8121 146.4 97.9722 140.418 105.572C142.533 106.15 144.704 106.658 146.941 107.087C152.614 108.178 158.34 108.715 164.091 108.815C168.852 101.141 174.32 94.4624 180.865 88.2014C186.587 82.7274 193.663 77.5982 201.5 73.5069C197.046 72.2063 192.778 70.6086 188.694 68.698C178.675 72.8526 169.563 78.2352 162.375 83.9195ZM130.111 132.362C133.589 131.794 137.06 131.061 140.472 130.321C144.765 129.39 149.204 128.427 153.574 127.848C153.9 127.805 154.218 127.772 154.543 127.73C157.256 121.152 160.187 115.267 163.448 109.876C157.849 109.748 152.272 109.202 146.741 108.14C144.322 107.675 141.981 107.118 139.703 106.484C136.802 110.251 134.208 114.126 131.912 118.133C129.809 121.803 128.794 124.697 127.978 127.022C127.168 129.331 126.537 131.085 125.226 132.322C126.844 132.356 128.474 132.368 130.111 132.362ZM183.273 128.652C183.191 128.64 183.111 128.627 183.029 128.615C183.013 128.749 182.991 128.881 182.976 129.015C183.07 128.891 183.177 128.775 183.273 128.652ZM184.069 127.68C184.38 127.314 184.704 126.957 185.031 126.602C184.433 126.741 183.836 126.879 183.241 127.014C183.215 127.19 183.195 127.367 183.171 127.544C183.472 127.586 183.769 127.635 184.069 127.68ZM342.191 155.887C340.934 154.439 339.694 152.98 338.476 151.516C337.99 153.072 337.552 154.604 337.144 156.12C337.852 157.06 338.573 157.987 339.302 158.905C339.53 158.668 339.759 158.429 339.996 158.18C340.679 157.468 341.415 156.7 342.191 155.887ZM355.275 141.854C352.367 137.771 349.663 133.528 347.107 129.281C346.519 130.591 345.94 131.902 345.375 133.213C348.212 136.541 351.245 139.818 354.396 142.824C354.688 142.502 354.981 142.18 355.275 141.854ZM355.185 143.579C356.522 144.828 357.881 146.017 359.251 147.143C358.113 145.712 357.007 144.249 355.928 142.761C355.68 143.035 355.432 143.308 355.185 143.579ZM380.91 109.63C380.752 108.165 380.587 106.7 380.399 105.235C379.74 104.124 379.053 102.988 378.336 101.824C377.804 101.786 377.265 101.72 376.711 101.599C375.721 101.384 374.731 101.035 373.75 100.591C373.38 104.664 372.939 108.721 372.445 112.762C373.945 113.486 375.471 114.036 377.007 114.346C377.223 114.389 377.434 114.412 377.647 114.445C378.787 112.828 379.879 111.22 380.91 109.63ZM378.931 114.585C379.765 114.635 380.583 114.605 381.383 114.495C381.292 113.459 381.208 112.424 381.104 111.389C380.403 112.449 379.679 113.514 378.931 114.585ZM381.823 108.204C381.877 108.118 381.932 108.033 381.986 107.947C381.904 107.805 381.826 107.666 381.744 107.524C381.771 107.75 381.797 107.977 381.823 108.204ZM379.7 86.3424C379.889 86.2051 380.068 86.0464 380.239 85.8717C378.935 83.2097 377.52 80.5562 375.978 77.9073C376.829 80.935 377.608 83.9598 378.287 86.9814C378.791 86.8606 379.267 86.6574 379.7 86.3424ZM338.749 60.3953C340.199 60.4082 341.636 60.4497 343.051 60.5327C343.406 60.4038 343.761 60.276 344.116 60.1484C342.336 60.1745 340.547 60.2545 338.763 60.3821C338.758 60.3867 338.753 60.3906 338.749 60.3953ZM289.65 83.3034C290.995 82.7568 292.328 82.2152 293.653 81.6827C293.479 81.5255 293.305 81.3748 293.132 81.2199C292.816 81.3476 292.494 81.4774 292.178 81.6051C291.055 82.0598 289.911 82.5208 288.781 82.978C288.949 83.1337 289.116 83.2943 289.283 83.4521L289.65 83.3034ZM181.606 88.9782C175.286 95.0223 169.984 101.467 165.349 108.834C173.134 108.881 180.963 108.121 188.776 106.801C191.841 100.934 195.889 95.1628 200.964 89.4282C205.723 84.0498 210.656 79.7635 215.74 76.5583C211.33 75.9329 207.088 75.059 203.003 73.9397C194.862 78.0636 187.505 83.3342 181.606 88.9782ZM354.34 221.861C353.772 223.197 353.209 224.538 352.649 225.881C353.953 226.109 355.266 226.321 356.584 226.516C355.827 224.968 355.089 223.413 354.34 221.861ZM353.722 220.577C352.418 217.868 351.12 215.164 349.839 212.452C346.996 207.265 344.192 202.045 341.426 196.82C334.166 192.244 327.658 186.457 321.705 180.001C315.878 186.561 310.043 193.164 304.236 199.825C313.788 208.826 324.414 216.478 336.569 221.569C340.78 223.332 346.037 224.671 351.569 225.688C352.28 223.979 352.998 222.276 353.722 220.577ZM331.965 165.166C329.173 161.713 326.452 158.292 323.85 154.952C325.079 157.43 326.297 159.91 327.502 162.395C328.771 164.104 330.057 165.821 331.355 167.541L332.462 166.298C332.297 165.92 332.131 165.543 331.965 165.166ZM335.702 157.437C329.6 149.968 323.969 142.583 319.416 136.279C322.172 141.581 324.816 146.962 327.361 152.402C329.736 155.418 332.216 158.503 334.759 161.61C335.039 160.239 335.344 158.852 335.702 157.437ZM369.74 124.924C369.771 124.708 369.803 124.493 369.834 124.277C366.768 119.412 363.853 114.476 360.991 109.608C360.211 108.281 359.438 106.97 358.67 105.669C357.4 108.1 356.11 110.609 354.82 113.166C359.118 117.912 364.122 122.489 369.381 125.372C369.501 125.223 369.621 125.074 369.74 124.924ZM373.216 93.8144C371.772 91.637 370.224 89.3684 368.595 87.0306C367.649 88.8084 366.633 90.7026 365.561 92.7007C365.512 92.7915 365.461 92.8872 365.412 92.9788C367.617 95.3011 370.166 97.4752 372.823 98.9394C372.969 97.2333 373.098 95.525 373.216 93.8144ZM373.855 99.4595C374.876 99.9439 375.907 100.327 376.936 100.552C377.17 100.603 377.399 100.636 377.628 100.67C376.551 98.9437 375.395 97.146 374.19 95.3051C374.088 96.6919 373.976 98.0762 373.855 99.4595ZM373.046 70.9723C373.031 70.9798 373.016 70.9875 373.001 70.9946C373.031 71.0375 373.061 71.081 373.09 71.1241C373.076 71.0735 373.061 71.0234 373.046 70.9723ZM365.143 65.667C365.012 65.7703 364.897 65.8842 364.783 65.9991C367.053 67.2019 369.185 68.6224 371.156 70.2925C369.61 68.3038 367.887 66.5855 365.995 65.135C365.687 65.2938 365.396 65.4656 365.143 65.667ZM337.908 68.1015C341.966 68.1244 346.009 68.2821 350.023 68.6217C349.976 68.4477 349.917 68.2657 349.878 68.0957C346.045 66.6706 341.928 66.3152 337.523 66.6334C337.625 67.108 337.757 67.5999 337.908 68.1015ZM336.46 66.7227C333.498 67.0052 330.407 67.5697 327.184 68.3095C330.393 68.181 333.601 68.1053 336.802 68.1056C336.669 67.6354 336.552 67.1729 336.46 66.7227ZM219.009 75.8744C223.637 76.4038 228.45 76.6655 233.448 76.6742C237.543 73.9162 241.75 72.1005 246.051 71.2339C245.068 71.0593 244.088 70.9087 243.113 70.8081C234.793 69.9454 226.735 71.6472 219.009 75.8744ZM191.293 117.752C196.414 116.135 201.506 114.467 206.571 112.764C208.365 111.997 210.165 111.272 211.949 110.586C212.068 107.801 212.586 104.955 213.49 102.111C205.557 104.41 197.536 106.383 189.489 107.769C187.56 111.532 186.034 115.333 184.923 119.191C187.078 118.642 189.203 118.161 191.293 117.752ZM198.526 116.598C198.587 116.565 198.647 116.531 198.708 116.498C198.584 116.538 198.461 116.58 198.338 116.62C198.401 116.612 198.463 116.606 198.526 116.598ZM219.545 115.482C221.698 114.375 223.854 113.252 225.974 112.146C230.3 109.889 234.648 107.622 238.985 105.485C234.369 105.714 229.576 106.421 224.648 107.633C220.78 109.012 216.893 110.372 212.991 111.713C212.985 113.191 213.1 114.646 213.339 116.067C214.556 116.139 215.763 116.231 216.947 116.363C217.812 116.072 218.677 115.781 219.545 115.482ZM326.605 162.998C324.633 160.342 322.703 157.705 320.828 155.096C323.519 160.208 326.183 165.32 328.818 170.39C329.109 170.064 329.401 169.737 329.692 169.41C328.672 167.272 327.64 165.135 326.605 162.998ZM349.068 88.2069C349.451 88.7781 349.82 89.3282 350.171 89.8558C350.733 89.4919 351.295 89.127 351.856 88.7635C353.944 87.4109 356 86.0779 358.017 84.7591L357.872 84.5071C356.989 82.9752 356.147 81.5111 355.357 80.1115C352.514 81.6705 349.68 83.2661 346.855 84.8856C347.628 86.059 348.376 87.1761 349.068 88.2069ZM358.799 83.9732L358.913 84.1709C360.68 83.0129 362.415 81.8642 364.108 80.7239C363.435 79.7948 362.768 78.8708 362.067 77.9184L361.889 77.6762C361.716 77.4422 361.541 77.2272 361.367 77.0022C361.243 77.028 361.118 77.054 360.992 77.0801C359.425 77.9095 357.86 78.7501 356.299 79.6016C357.083 80.9915 357.919 82.4451 358.799 83.9732ZM366.281 79.2532C366.205 79.1247 366.131 79.0006 366.055 78.87C365.583 78.0543 365.115 77.1961 364.679 76.3209C363.987 76.4607 363.271 76.6077 362.533 76.7601C362.605 76.8565 362.679 76.9443 362.751 77.0421L362.928 77.283C363.637 78.2455 364.317 79.1839 364.997 80.1227C365.425 79.8328 365.859 79.5421 366.281 79.2532ZM367.165 78.6404C368.976 77.3914 370.731 76.1485 372.424 74.9082C370.695 75.152 368.437 75.5696 365.778 76.1001C366.183 76.9039 366.645 77.7502 367.165 78.6404ZM357.255 77.8617C356.688 77.981 356.111 78.1015 355.528 78.2235C355.608 78.3666 355.692 78.516 355.773 78.6614C356.266 78.392 356.761 78.1289 357.255 77.8617ZM357.417 76.7325C358.514 76.5025 359.575 76.2803 360.603 76.0658C360.609 76.0629 360.615 76.0595 360.621 76.0566C358.509 73.4981 356.284 71.5471 353.944 70.0963C353.136 70.0008 352.326 69.9221 351.515 69.8431C352.264 71.9905 353.479 74.4617 354.991 77.2404C355.819 77.0672 356.629 76.8977 357.417 76.7325ZM361.595 75.547C362.329 75.1612 363.065 74.7825 363.8 74.4019C363.4 73.4369 363.07 72.4713 362.848 71.5296C360.696 71.0841 358.527 70.7235 356.346 70.4185C358.161 71.7901 359.912 73.4761 361.595 75.547ZM364.768 73.8988C365.628 73.4579 366.49 73.0237 367.351 72.5899C366.251 72.3031 365.146 72.0416 364.037 71.797C364.219 72.4527 364.464 73.1536 364.768 73.8988ZM365.194 74.8867C365.227 74.9582 365.261 75.031 365.295 75.1032C367.885 74.5844 370.105 74.1705 371.864 73.9086C370.876 73.5908 369.883 73.2896 368.886 73.0099C367.654 73.6253 366.424 74.255 365.194 74.8867ZM372.495 72.9882C372.099 72.5913 371.69 72.2124 371.276 71.8388C370.964 71.9917 370.652 72.1435 370.34 72.2976C371.062 72.5114 371.778 72.7547 372.495 72.9882ZM367.719 79.5613C368.366 80.6111 369.066 81.5761 369.798 82.4455C371.161 79.822 372.285 77.5665 373.099 75.742C371.367 77.0123 369.572 78.2842 367.719 79.5613ZM366.839 80.1705C366.441 80.4428 366.032 80.7169 365.629 80.9896C366.607 82.3467 367.55 83.6736 368.469 84.9809C368.742 84.4637 369.007 83.9613 369.265 83.4672C368.411 82.489 367.594 81.389 366.839 80.1705ZM364.74 81.5913C363.015 82.7527 361.249 83.9227 359.449 85.1022L359.565 85.3027L359.598 85.3608C360.725 87.3078 362.492 89.7667 364.642 92.1472C365.803 89.9818 366.897 87.9424 367.907 86.0396C366.891 84.59 365.83 83.1034 364.74 81.5913ZM358.672 85.8955L358.638 85.8369L358.553 85.69C356.551 86.999 354.51 88.3213 352.438 89.6638C351.881 90.0255 351.321 90.3883 350.762 90.7507C350.91 90.9743 351.069 91.213 351.209 91.4261C352.584 93.5366 355.509 97.7881 359.342 102.083C361.002 98.9363 362.606 95.9413 364.112 93.1342C361.783 90.6029 359.871 87.9673 358.672 85.8955ZM357.452 101.535C357.838 102.178 358.224 102.822 358.611 103.472C358.679 103.344 358.748 103.212 358.815 103.084C358.347 102.566 357.893 102.05 357.452 101.535ZM346.436 86.6221C346.169 86.2631 345.898 85.9286 345.628 85.5882C343.002 87.1014 340.386 88.6384 337.778 90.1892C339.207 92.1688 340.492 93.9593 341.55 95.4909C344.082 93.8125 346.634 92.1506 349.182 90.4969C348.275 89.1723 347.363 87.8714 346.436 86.6221ZM336.853 90.7362C334.279 92.272 331.715 93.824 329.157 95.3836C330.712 97.3459 332.14 99.2444 333.391 101.033C335.781 99.3657 338.208 97.7178 340.66 96.0852C339.597 94.5452 338.299 92.7378 336.853 90.7362ZM328.236 95.9441C328.164 95.9885 328.09 96.0319 328.018 96.0761C328.211 96.3233 328.412 96.5468 328.602 96.8015C329.797 98.4057 330.975 100.117 332.145 101.905C332.268 101.818 332.392 101.733 332.515 101.646C331.255 99.8441 329.81 97.9267 328.236 95.9441ZM327.744 97.4407C327.534 97.1591 327.313 96.911 327.1 96.6396C324.853 98.0155 322.614 99.3971 320.381 100.781C322.617 103.018 324.493 104.992 325.818 106.518C327.6 105.172 329.418 103.839 331.27 102.522C330.105 100.741 328.932 99.0355 327.744 97.4407ZM252.089 75.6235C253.116 75.5109 254.136 75.4064 255.177 75.2763C255.998 75.1736 256.855 75.0479 257.724 74.9141C256.876 74.5327 256.029 74.1717 255.183 73.8394C254.136 74.3406 253.105 74.9379 252.089 75.6235ZM255.312 76.3401C253.642 76.549 251.991 76.7336 250.357 76.897C247.949 78.8039 245.629 81.2314 243.412 84.2014C242.14 85.9046 240.649 88.905 239.932 92.0146C244.874 89.9397 250.619 87.3173 256.917 84.442C258.628 83.6606 260.379 82.861 262.162 82.0509C262.173 80.9171 262.534 79.6446 263.271 78.2307C263.338 78.1031 263.408 77.9834 263.475 77.8591C262.134 77.0851 260.792 76.3709 259.45 75.7164C258.021 75.9575 256.626 76.1758 255.312 76.3401ZM213.89 109.85C217.423 108.529 220.909 107.452 224.333 106.607C229.613 104.724 234.857 102.808 240.072 100.872C239.883 100.627 239.699 100.38 239.547 100.116C238.489 98.2894 238.268 96.0394 238.534 93.7524C236.416 94.617 234.457 95.3694 232.69 95.9764C226.777 98.0065 220.78 99.9683 214.729 101.75C213.767 104.574 213.202 107.404 213.04 110.172C213.323 110.066 213.608 109.955 213.89 109.85ZM314.439 145.997C316.573 149.816 318.722 153.651 320.882 157.497C319.263 154.413 317.632 151.332 315.994 148.258C315.469 147.5 314.951 146.747 314.439 145.997ZM310.742 138.505C309.316 135.891 307.883 133.299 306.446 130.725C305.896 129.847 305.379 128.996 304.892 128.171L304.552 128.351C304.893 128.956 305.237 129.572 305.579 130.18C307.153 132.852 308.88 135.633 310.742 138.505ZM257.362 85.4172C250.777 88.4236 244.794 91.1537 239.69 93.2766C239.274 95.9302 239.514 98.5468 241.036 100.392C241.063 100.424 241.089 100.452 241.117 100.484C243.998 99.4121 246.873 98.3366 249.734 97.2544C257.739 94.2254 265.773 91.0601 273.746 87.8728C269.419 87.9472 265.259 87.2868 263.301 85.1259C263.078 84.8792 262.886 84.6183 262.728 84.3444C262.517 83.9801 262.371 83.5889 262.276 83.1769C260.608 83.9359 258.967 84.6846 257.362 85.4172ZM246.232 104.027C246.556 104.056 246.875 104.03 247.192 103.98C248.307 103.429 249.42 102.872 250.527 102.308C251.127 101.853 251.739 101.345 252.378 100.808C252.534 100.676 252.695 100.544 252.854 100.412C250.288 101.433 247.705 102.557 245.112 103.752C245.492 103.897 245.865 103.992 246.232 104.027ZM255.921 98.0824C256.319 97.8242 256.729 97.5765 257.158 97.3478C262.732 94.3772 268.624 91.4884 274.603 89.0767C275.349 88.647 276.094 88.2183 276.836 87.7896C267.979 91.3425 259.03 94.8838 250.113 98.2565C247.379 99.2908 244.632 100.319 241.878 101.344C242.583 102.096 243.26 102.686 243.915 103.12C247.946 101.241 251.957 99.5239 255.921 98.0824ZM292.471 96.9155C290.303 94.3175 288.018 91.7881 285.642 89.3853C287.199 91.5408 288.727 93.7304 290.228 95.952C290.981 96.2459 291.73 96.5595 292.471 96.9155ZM279.876 88.2397C279.816 88.2605 279.757 88.2817 279.698 88.302C280.015 88.7171 280.327 89.1347 280.64 89.5536C281.077 89.9654 281.512 90.3883 281.946 90.8122C281.268 89.9426 280.578 89.0847 279.876 88.2397ZM281.111 87.8028C281.942 88.913 282.76 90.0321 283.568 91.1602C284.446 92.3133 285.304 93.4841 286.145 94.6683C286.94 94.8624 287.73 95.0803 288.512 95.3353C286.641 92.5967 284.73 89.9044 282.768 87.2748C282.215 87.4488 281.663 87.6171 281.111 87.8028ZM287.149 96.0996C287.255 96.253 287.36 96.4074 287.465 96.5614C290.584 100.021 293.636 103.773 296.597 107.804C294.32 104.12 291.992 100.48 289.594 96.9179C288.786 96.6122 287.971 96.3355 287.149 96.0996ZM292.07 103.642C294.106 106.935 296.033 110.25 297.879 113.508C298.216 113.299 298.555 113.091 298.892 112.882C296.673 109.638 294.394 106.558 292.07 103.642ZM270.392 79.5197C269.938 79.7212 269.486 79.9231 269.036 80.1244C271.216 81.6186 273.386 83.2607 275.542 85.0458C273.887 83.1291 272.17 81.2839 270.392 79.5197ZM278.033 86.1541C278.047 86.1482 278.061 86.1425 278.075 86.1371C277.865 85.8978 277.653 85.6586 277.441 85.4222C277.637 85.6669 277.838 85.9082 278.033 86.1541ZM300.384 111.962C301.141 111.492 301.891 111.026 302.646 110.556C300.127 106.815 297.333 102.937 294.288 99.1368C293.326 98.5775 292.348 98.0934 291.361 97.6498C294.469 102.321 297.468 107.111 300.384 111.962ZM306.219 124.554C306.162 124.454 306.104 124.352 306.047 124.253C303.932 120.599 301.741 117.107 299.491 113.773C299.133 113.995 298.772 114.216 298.413 114.438C300.705 118.369 302.91 122.256 305.044 126.037C305.432 125.541 305.814 125.044 306.219 124.554ZM285.974 96.4943C285.694 96.188 285.412 95.8893 285.13 95.5879C285.075 95.5754 285.021 95.5597 284.966 95.5479C289.21 101.669 293.043 108.063 296.604 114.294C296.723 114.221 296.842 114.148 296.961 114.074C293.527 108.217 289.889 102.282 285.974 96.4943ZM264.093 84.4063C266.096 86.6164 271.066 87.0728 275.914 86.7351C273.264 84.4777 270.59 82.4409 267.905 80.6317C266.343 81.3335 264.8 82.0302 263.282 82.7195C263.387 83.3608 263.655 83.9253 264.093 84.4063ZM266.842 79.9338C266.029 79.4051 265.216 78.8986 264.401 78.4126C264.343 78.5217 264.278 78.6153 264.22 78.7269C263.678 79.7663 263.373 80.7037 263.275 81.5454C264.451 81.012 265.64 80.4748 266.842 79.9338ZM267.997 79.4148C268.519 79.1812 269.044 78.9465 269.57 78.7118C268.475 77.653 267.354 76.6277 266.209 75.6385C265.761 76.1963 265.34 76.8273 264.934 77.4943C265.956 78.1045 266.977 78.7389 267.997 79.4148ZM284.477 86.7562C288.19 90.315 291.689 94.2153 294.914 98.2193C295.329 98.4641 295.741 98.7287 296.152 98.9955C293.22 94.5766 290.197 90.2471 287.063 86.0495C286.201 86.2703 285.34 86.5035 284.477 86.7562ZM297.05 100.934C298.022 102.197 298.956 103.463 299.872 104.726C299.194 103.661 298.511 102.6 297.824 101.544C297.565 101.346 297.311 101.122 297.05 100.934ZM304.183 109.599C304.526 109.385 304.868 109.172 305.21 108.958C303.735 107.079 302.213 105.413 300.647 103.947C301.84 105.819 303.018 107.704 304.183 109.599ZM303.244 111.447C302.474 111.926 301.709 112.402 300.936 112.881C303.039 116.397 305.101 119.94 307.135 123.487C307.828 122.68 308.543 121.879 309.282 121.086C307.53 118.117 305.513 114.856 303.244 111.447ZM306.799 125.548C306.6 125.791 306.387 126.03 306.193 126.275L306.982 125.86C306.919 125.753 306.861 125.653 306.799 125.548ZM302.545 124.782L304.004 127.377C304.082 127.271 304.168 127.169 304.247 127.064C304.205 126.991 304.162 126.917 304.121 126.845C302.982 124.836 301.821 122.751 300.634 120.617C299.612 118.78 298.568 116.903 297.497 115.004C297.377 115.078 297.256 115.152 297.136 115.226C297.342 115.589 297.548 115.951 297.752 116.312C299.396 119.182 300.992 122.019 302.545 124.782ZM281.695 92.8077C281.013 91.8786 280.32 90.9589 279.617 90.0495C279.168 89.628 278.717 89.2168 278.266 88.8084C277.194 89.2032 276.125 89.6225 275.056 90.0527C272.207 91.6943 269.339 93.3344 266.447 94.9592C271.983 93.7372 277.372 93.3025 282.538 93.9894C282.259 93.5938 281.977 93.2008 281.695 92.8077ZM264.951 94.5673C263.869 95.0961 262.793 95.6314 261.728 96.1751C261.963 96.1065 262.199 96.035 262.434 95.9687C263.276 95.5034 264.113 95.0356 264.951 94.5673ZM256.345 99.0862C255.978 99.3299 255.619 99.5833 255.27 99.8463C255.987 99.4673 256.702 99.0859 257.416 98.7025C257.06 98.8269 256.703 98.9573 256.345 99.0862ZM243.855 104.336C243.846 104.34 243.838 104.344 243.828 104.348C243.845 104.349 243.861 104.349 243.877 104.349C243.869 104.345 243.862 104.34 243.855 104.336ZM242.81 103.639C242.153 103.139 241.483 102.51 240.798 101.746C237.695 102.898 234.582 104.045 231.456 105.181C234.833 104.659 238.136 104.378 241.347 104.335C241.836 104.1 242.323 103.87 242.81 103.639ZM232.342 94.9627C234.253 94.3067 236.39 93.4802 238.721 92.5194C239.387 88.9918 241.076 85.5375 242.554 83.5583C244.455 81.011 246.435 78.8531 248.481 77.0613C243.408 77.5174 238.51 77.7499 233.78 77.754C229.912 80.4002 226.139 83.9046 222.479 88.2755C219.232 92.1519 216.791 96.3033 215.19 100.494C220.965 98.7788 226.692 96.9023 232.342 94.9627ZM264.004 76.9386C264.442 76.2163 264.903 75.5487 265.389 74.945C265.276 74.8505 265.162 74.7593 265.05 74.6656C263.735 74.936 262.449 75.1883 261.203 75.4157C262.137 75.8975 263.071 76.3997 264.004 76.9386ZM271.372 77.9108C271.406 77.896 271.441 77.881 271.475 77.8654C271.313 77.7666 271.15 77.6681 270.987 77.5709C271.117 77.6824 271.243 77.7984 271.372 77.9108ZM272.257 78.6917C272.403 78.8229 272.551 78.9504 272.696 79.0828C272.573 78.9416 272.446 78.8039 272.322 78.663C272.3 78.6728 272.279 78.6819 272.257 78.6917ZM279.429 85.5947C279.944 85.3872 280.464 85.1809 280.977 84.9739C280.748 84.7715 280.519 84.5693 280.288 84.3709C279.435 84.1232 278.614 83.8513 277.827 83.5514C278.367 84.227 278.899 84.9093 279.429 85.5947ZM283.273 85.6197C283.66 85.5247 284.025 85.4268 284.371 85.3275C284.086 85.2752 283.795 85.2282 283.515 85.1715C283.364 85.258 283.215 85.3448 283.065 85.4314C283.134 85.495 283.204 85.556 283.273 85.6197ZM288.281 85.9027C291.842 90.6949 295.261 95.649 298.564 100.713C301.196 102.753 303.725 105.289 306.138 108.381C306.603 108.091 307.071 107.8 307.535 107.511C302.416 99.8485 296.642 92.295 290.479 86.107C289.736 86.0479 289 85.983 288.281 85.9027ZM308.442 106.946C308.765 106.745 309.093 106.541 309.414 106.34C310.658 105.565 311.905 104.787 313.152 104.01C309.148 98.5403 303.999 92.085 298.466 86.3646C296.262 86.383 294.12 86.3371 292.057 86.2167C297.978 92.3072 303.516 99.5761 308.442 106.946ZM314.054 103.448C315.634 102.463 317.218 101.479 318.805 100.494C314.348 96.0722 308.709 90.9132 303.28 86.2344C302.134 86.2872 300.998 86.3295 299.879 86.3526C305.232 91.9587 310.18 98.1665 314.054 103.448ZM319.598 100.003C321.866 98.5976 324.141 97.1951 326.423 95.7972C322.069 90.564 317.029 87.333 311.554 85.6338C309.236 85.857 306.949 86.0317 304.701 86.1581C309.986 90.7951 315.352 95.7964 319.598 100.003ZM319.586 101.273C317.95 102.288 316.316 103.302 314.688 104.317C316.669 107.049 318.338 109.495 319.599 111.435C321.354 109.978 323.158 108.538 325.017 107.119C323.669 105.496 321.793 103.49 319.586 101.273ZM313.786 104.879C312.516 105.671 311.248 106.461 309.983 107.251C309.669 107.446 309.35 107.644 309.037 107.839C310.875 110.619 312.62 113.391 314.265 116.118C315.717 114.769 317.215 113.435 318.771 112.123C317.503 110.164 315.806 107.67 313.786 104.879ZM308.131 108.404C307.689 108.679 307.243 108.956 306.8 109.233C306.833 109.277 306.867 109.317 306.9 109.361C308.798 111.912 310.687 114.726 312.592 117.706C312.884 117.424 313.165 117.138 313.462 116.857C311.786 114.074 310.007 111.243 308.131 108.404ZM306.042 110C305.991 109.931 305.936 109.872 305.884 109.803C305.504 110.039 305.125 110.276 304.744 110.513C306.651 113.631 308.524 116.774 310.367 119.929C310.839 119.44 311.326 118.957 311.813 118.474C309.879 115.441 307.963 112.582 306.042 110ZM310.927 120.89C311.182 121.329 311.44 121.766 311.693 122.204C311.954 122.654 312.215 123.106 312.473 123.555C313.488 125.317 314.482 127.095 315.465 128.881C320.289 136.04 327.162 145.346 334.843 154.839C329.022 146.867 323.876 138.306 319.014 130.219C316.759 126.467 314.567 122.822 312.402 119.394C311.904 119.891 311.409 120.389 310.927 120.89ZM309.87 122.08L309.85 122.045C309.109 122.847 308.391 123.655 307.697 124.471C307.846 124.73 307.995 124.99 308.143 125.249L310.907 123.795C310.523 123.178 310.175 122.601 309.87 122.08ZM307.542 126.778L305.937 127.623C306.418 128.476 306.897 129.339 307.376 130.198C310.116 134.575 313.614 139.591 317.611 144.99C314.929 139.798 312.17 134.654 309.331 129.571C308.676 128.579 308.079 127.647 307.542 126.778ZM313.08 140.572C314.347 142.912 315.61 145.263 316.867 147.621C319.127 150.88 321.504 154.212 323.963 157.585C322.81 155.244 321.652 152.906 320.475 150.575C317.826 147.103 315.344 143.75 313.08 140.572ZM334.084 182.833C332.118 179.448 330.168 176.057 328.231 172.664C326.296 174.837 324.36 177.014 322.421 179.196C327.896 185.143 333.837 190.518 340.398 194.884C338.273 190.858 336.171 186.838 334.084 182.833ZM327.672 171.678C322.516 162.634 317.452 153.584 312.454 144.641C309.847 139.978 307.268 135.369 304.704 130.807C304.318 130.152 303.943 129.505 303.577 128.864L302.478 129.441L303.281 128.349C303.215 128.231 303.144 128.11 303.078 127.993C302.194 126.425 301.297 124.819 300.384 123.184C299.229 121.118 298.049 119.006 296.84 116.87C296.634 116.51 296.428 116.151 296.221 115.791C291.769 118.535 287.309 121.247 282.858 123.896C286.856 129.337 290.889 135.515 295.153 142.053C303.077 154.203 311.594 167.254 321.693 178.4C323.688 176.155 325.681 173.915 327.672 171.678ZM295.686 114.861C291.914 108.335 287.869 101.672 283.43 95.2667C276.87 94.187 269.915 95.017 262.737 97.0265C258.9 99.146 255.018 101.223 251.084 103.228C250.294 103.819 249.499 104.323 248.679 104.661C262.449 106.122 274.116 112.344 282.21 123.033C286.697 120.364 291.195 117.629 295.686 114.861ZM241.605 105.405C236.754 107.742 231.88 110.275 227.031 112.804C232.891 110.601 238.607 108.111 244.207 105.43C243.348 105.402 242.479 105.396 241.605 105.405ZM211.921 112.082C210.269 112.649 208.612 113.208 206.954 113.766C205.109 114.554 203.275 115.391 201.473 116.284C205.186 115.95 208.78 115.857 212.245 116.008C212.042 114.722 211.934 113.411 211.921 112.082ZM213.907 100.876C215.538 96.3132 218.139 91.7879 221.658 87.5862C224.99 83.6085 228.418 80.3395 231.928 77.7572C226.915 77.6979 222.102 77.3638 217.461 76.7775C212.055 79.9915 206.813 84.435 201.766 90.1403C196.959 95.5714 193.085 101.031 190.107 106.574C198.084 105.161 206.04 103.177 213.907 100.876ZM235.448 76.677C240.113 76.6226 244.94 76.3493 249.937 75.8587C251.206 74.8748 252.499 74.0332 253.817 73.3323C252.237 72.7615 250.661 72.2696 249.093 71.8758C244.438 72.3456 239.883 73.9478 235.448 76.677ZM255.133 72.6821C255.609 72.4657 256.087 72.2672 256.569 72.0869C255.89 71.9825 255.211 71.8802 254.528 71.821C253.809 71.759 253.092 71.7248 252.377 71.7151C253.294 72.0101 254.213 72.3296 255.133 72.6821ZM256.536 73.2453C257.553 73.6665 258.571 74.1145 259.59 74.6045C260.829 74.3924 262.104 74.1572 263.419 73.897C261.884 73.3268 260.332 72.8623 258.765 72.5094C258.016 72.7134 257.272 72.9524 256.536 73.2453ZM261.133 72.0166C261.274 72.0573 261.414 72.1033 261.555 72.1459C261.468 72.0959 261.383 72.045 261.296 71.9953C261.242 72.0027 261.188 72.0087 261.133 72.0166ZM267.58 74.5229C267.649 74.5559 267.718 74.587 267.787 74.6204C267.727 74.4667 267.67 74.3106 267.616 74.1536C267.543 74.221 267.464 74.2745 267.391 74.3444C267.454 74.4045 267.518 74.4625 267.58 74.5229ZM269.284 75.388C269.317 75.4057 269.35 75.4251 269.384 75.4432C269.334 75.3901 269.285 75.337 269.235 75.2843C269.252 75.3184 269.267 75.3536 269.284 75.388ZM276.375 81.7587C276.894 82.0032 277.423 82.2394 277.982 82.4553C277.05 81.7112 276.11 80.9896 275.157 80.3049C275.565 80.7881 275.973 81.2699 276.375 81.7587ZM285.842 84.4401C285.788 84.3705 285.735 84.3002 285.682 84.2306C285.573 84.2749 285.464 84.3186 285.355 84.363C285.516 84.389 285.678 84.4154 285.842 84.4401ZM287.11 84.3327L288.21 83.8866C288.041 83.7294 287.872 83.57 287.702 83.4142C287.373 83.5476 287.042 83.6806 286.713 83.814C286.845 83.9877 286.978 84.1585 287.11 84.3327ZM297.357 85.2336C297.056 84.9295 296.754 84.6284 296.45 84.3302C294.807 84.4893 293.149 84.7334 291.481 85.0462C293.373 85.1693 295.335 85.2315 297.357 85.2336ZM298.785 85.2208C299.846 85.2087 300.92 85.1823 302.006 85.1417C301.6 84.7945 301.195 84.4504 300.793 84.1107C299.802 84.1143 298.803 84.1571 297.799 84.2273C298.129 84.5563 298.458 84.8869 298.785 85.2208ZM303.474 85.086C305.023 85.0119 306.598 84.9065 308.186 84.7834C306.291 84.4129 304.353 84.2086 302.382 84.1415C302.744 84.4534 303.109 84.769 303.474 85.086ZM327.34 95.234C327.413 95.1895 327.485 95.145 327.558 95.1006C324.83 91.7077 321.801 88.1815 318.81 84.8131C317.236 85.0164 315.667 85.2006 314.106 85.3702C318.937 87.2804 323.405 90.4609 327.34 95.234ZM328.479 94.5396C331.052 92.9703 333.634 91.4111 336.224 89.866C336.125 89.7288 336.029 89.5962 335.929 89.4577C334.289 87.1898 332.729 85.0159 331.261 82.9351C327.565 83.5638 323.82 84.1412 320.09 84.6414C322.965 87.8919 325.861 91.2782 328.479 94.5396ZM336.795 88.8307C336.914 88.9946 337.028 89.1521 337.145 89.3141C339.736 87.7725 342.338 86.2519 344.947 84.7471C343.792 83.371 342.607 82.1521 341.392 81.0874C338.465 81.6524 335.463 82.2063 332.421 82.7331C333.962 84.9121 335.472 87.0008 336.795 88.8307ZM343.373 81.4491C343.234 81.2272 343.097 81.0062 342.96 80.7836C342.878 80.7997 342.794 80.8159 342.712 80.8316C342.932 81.0373 343.154 81.2337 343.373 81.4491ZM346.265 83.9846C349.112 82.3519 351.97 80.7501 354.837 79.1778C354.703 78.9361 354.564 78.6899 354.433 78.4521C351.172 79.133 347.701 79.8491 344.088 80.5621C344.811 81.7319 345.544 82.8797 346.265 83.9846ZM353.899 77.468C352.333 74.5701 351.084 71.9858 350.341 69.7203C346.341 69.3698 342.308 69.2082 338.258 69.1774C339.396 72.4153 341.359 76.0671 343.487 79.5805C347.171 78.8597 350.667 78.1412 353.899 77.468ZM351.168 68.7272C351.263 68.7363 351.358 68.7478 351.454 68.7574C351.346 68.7073 351.239 68.6499 351.13 68.6022C351.141 68.643 351.156 68.6862 351.168 68.7272ZM354.38 69.0638C357.148 69.3986 359.899 69.8299 362.626 70.3814C362.424 68.9119 362.559 67.5445 363.18 66.3847C359.622 64.6478 355.733 63.4325 351.594 62.6448C350.715 63.8737 350.506 65.417 350.828 67.2762C352.038 67.7635 353.223 68.3516 354.38 69.0638ZM363.763 70.6366C365.448 70.9989 367.121 71.4131 368.785 71.8718C369.326 71.6028 369.865 71.3257 370.406 71.0595C368.472 69.4296 366.376 68.0452 364.142 66.8737C363.62 67.8478 363.487 69.0939 363.763 70.6366ZM370.559 83.3065C371.562 84.3728 372.608 85.2346 373.647 85.8759C373.765 82.8392 373.824 79.7962 373.82 76.7499C372.983 78.5765 371.873 80.7839 370.559 83.3065ZM370.031 84.3168C369.749 84.8529 369.456 85.4076 369.158 85.9701C370.621 88.0645 372.016 90.101 373.331 92.0694C373.435 90.419 373.528 88.7665 373.6 87.1123C372.393 86.4534 371.186 85.503 370.031 84.3168ZM364.885 93.9617C363.374 96.7782 361.769 99.7761 360.108 102.928C363.402 106.506 367.3 110.014 371.43 112.244C371.921 108.208 372.357 104.154 372.721 100.087C369.914 98.6118 367.217 96.3739 364.885 93.9617ZM359.585 103.924C359.475 104.134 359.364 104.345 359.253 104.556C360.134 106.043 361.018 107.543 361.913 109.065C364.56 113.568 367.25 118.128 370.063 122.636C370.494 119.56 370.905 116.474 371.289 113.376C367.011 111.142 362.987 107.577 359.585 103.924ZM358.028 104.587C355.274 99.9454 352.565 95.5013 349.788 91.382C347.239 93.0362 344.688 94.6998 342.155 96.3785C342.427 96.7807 342.685 97.1681 342.914 97.523C345.047 100.83 349.023 106.626 354.052 112.312C355.387 109.671 356.718 107.089 358.028 104.587ZM342.016 98.1037C341.789 97.7532 341.534 97.3697 341.265 96.9716C338.814 98.603 336.386 100.249 334 101.915C334.335 102.408 334.666 102.899 334.968 103.37C337.914 107.979 342.937 115.356 349.071 122.474C350.538 119.376 352.037 116.317 353.54 113.326C348.324 107.49 344.211 101.508 342.016 98.1037ZM334.067 103.947C333.772 103.487 333.448 103.007 333.121 102.525C332.988 102.618 332.858 102.712 332.726 102.806C335.672 107.379 338.581 112.443 341.604 117.716C343.338 120.744 345.124 123.854 346.977 126.976C347.504 125.821 348.036 124.667 348.575 123.52C342.249 116.24 337.08 108.66 334.067 103.947ZM340.676 118.248C337.668 112.999 334.776 107.966 331.855 103.427C330.041 104.718 328.255 106.02 326.51 107.337C326.99 107.921 327.37 108.424 327.612 108.809C330.504 113.432 336.757 122.963 344.609 132.309C345.207 130.926 345.819 129.545 346.441 128.166C344.445 124.822 342.531 121.487 340.676 118.248ZM326.706 109.377C326.446 108.962 326.106 108.487 325.696 107.961C323.806 109.403 321.965 110.864 320.185 112.346C320.503 112.845 320.79 113.306 321.038 113.714C325.517 121.092 332.654 131.497 340.904 141.385C341.908 138.76 342.982 136.118 344.11 133.473C336.565 124.533 330.337 115.181 326.706 109.377ZM320.123 114.27C319.899 113.9 319.643 113.487 319.359 113.04C317.797 114.36 316.285 115.697 314.831 117.053C315.016 117.362 315.212 117.676 315.394 117.983C318.879 123.868 327.575 136.592 338.061 149.374C338.8 147.113 339.603 144.824 340.471 142.515C332.007 132.44 324.69 121.792 320.123 114.27ZM314.473 118.528C314.332 118.29 314.179 118.045 314.036 117.806C313.751 118.077 313.457 118.346 313.177 118.619C315.389 122.116 317.627 125.835 319.931 129.667C324.951 138.019 330.287 146.871 336.342 155.049C336.751 153.569 337.2 152.069 337.68 150.555C326.939 137.541 318.021 124.516 314.473 118.528ZM314.336 129.042C313.254 127.448 312.295 125.993 311.479 124.707L308.672 126.184C309.261 127.222 309.832 128.274 310.414 129.318C313.903 134.648 318.752 141.31 324.347 148.543C321.173 141.929 317.851 135.41 314.336 129.042ZM314.96 137.649C317.145 141.745 319.294 145.865 321.39 150.014C324.196 153.692 327.184 157.502 330.282 161.372C328.944 158.383 327.585 155.405 326.197 152.444C322.025 147.147 318.201 142.115 314.96 137.649ZM329.962 167.484C330.131 167.837 330.296 168.189 330.464 168.542L330.625 168.362C330.403 168.069 330.183 167.777 329.962 167.484ZM330.963 169.594C331.807 171.368 332.65 173.141 333.484 174.912C333.446 173.996 333.438 173.059 333.464 172.1C332.734 171.144 332.008 170.188 331.285 169.234L330.963 169.594ZM330.191 170.462C329.91 170.778 329.629 171.094 329.348 171.409C329.748 172.179 330.15 172.952 330.549 173.72C331.802 176.131 333.06 178.553 334.325 180.982C334.078 180.02 333.887 179.019 333.746 177.983C332.57 175.478 331.384 172.971 330.191 170.462ZM337.32 185.628C336.901 184.729 336.48 183.829 336.06 182.929C336.42 183.881 336.831 184.79 337.32 185.628ZM320.977 179.207C310.793 167.986 302.227 154.858 294.257 142.637C289.979 136.077 285.933 129.879 281.931 124.442C279.996 125.59 278.057 126.744 276.132 127.858L256.386 139.286C259.31 143.289 262.248 147.453 265.353 151.857C276.599 167.808 288.75 185.032 303.455 199.087C309.28 192.407 315.133 185.786 320.977 179.207ZM275.595 126.93C277.481 125.839 279.382 124.706 281.28 123.581C272.968 112.665 260.809 106.541 246.451 105.545C239.439 108.964 232.246 112.106 224.812 114.771C223.19 115.353 221.576 115.918 219.966 116.472C219.815 116.549 219.665 116.625 219.515 116.702C234.451 118.973 246.688 126.254 255.742 138.42L275.595 126.93ZM214.388 117.214C214.11 117.193 213.829 117.177 213.549 117.16C213.571 117.262 213.596 117.363 213.619 117.465C213.875 117.382 214.132 117.299 214.388 117.214ZM212.439 117.101C208.105 116.895 203.569 117.076 198.84 117.644C195.103 119.667 191.592 121.974 188.552 124.656C196.396 122.731 204.409 120.446 212.593 117.8C212.539 117.568 212.486 117.335 212.439 117.101ZM195.992 118.03C194.532 118.25 193.058 118.499 191.563 118.79C189.193 119.538 186.819 120.277 184.436 121.004C184.027 122.615 183.689 124.237 183.419 125.87C184.417 125.643 185.415 125.416 186.418 125.177C189.218 122.457 192.48 120.102 195.992 118.03ZM158.279 127.31C159.717 126.933 161.153 126.553 162.586 126.166C166.918 124.306 171.806 122.907 176.022 121.702C177.228 121.357 178.364 121.033 179.393 120.723C180.854 120.282 182.295 119.883 183.728 119.503C184.805 115.612 186.286 111.779 188.176 107.988C180.344 109.274 172.494 109.988 164.684 109.896C161.413 115.234 158.478 121.063 155.761 127.582C156.607 127.483 157.446 127.393 158.279 127.31ZM217.243 75.6597C225.535 70.8099 234.22 68.8088 243.221 69.7412C245.184 69.9445 247.164 70.2996 249.157 70.7916C250.962 70.621 252.782 70.5948 254.618 70.7536C255.995 70.8724 257.358 71.1126 258.714 71.4067C259.069 71.3146 259.427 71.2361 259.785 71.1631C256.631 69.491 253.293 68.1297 249.733 67.1723C234.677 63.1234 218.51 66.4253 204.5 73.1971C208.588 74.2625 212.83 75.0856 217.243 75.6597ZM272.523 77.2729C272.563 77.298 272.604 77.3231 272.644 77.3488C273.175 77.1145 273.709 76.8799 274.244 76.6455C273.266 75.5167 272.278 74.4009 271.274 73.308C270.598 73.4627 269.937 73.6091 269.273 73.7568C270.378 74.9041 271.457 76.0809 272.523 77.2729ZM273.743 78.0373C275.181 78.9889 276.591 80.0276 277.983 81.1139C276.993 79.8901 275.988 78.6865 274.972 77.4979C274.561 77.6779 274.152 77.8572 273.743 78.0373ZM295.427 83.3373C295.127 83.0514 294.828 82.767 294.527 82.4871C293.176 83.0288 291.808 83.585 290.433 84.1431C292.107 83.8043 293.774 83.5291 295.427 83.3373ZM295.57 82.0695C295.972 82.4459 296.371 82.8287 296.769 83.2149C297.693 83.1321 298.612 83.0757 299.526 83.0456C298.821 82.4568 298.128 81.8851 297.447 81.3273C296.824 81.5712 296.199 81.8187 295.57 82.0695ZM301.056 83.0081C304.68 83.0116 308.204 83.477 311.579 84.49C313.672 84.2901 315.783 84.0556 317.903 83.7925C315.598 81.2141 313.358 78.7654 311.33 76.5703C307.216 77.6817 302.948 79.1961 298.544 80.9014C299.369 81.5839 300.206 82.2861 301.056 83.0081ZM319.193 83.6333C322.996 83.141 326.806 82.5606 330.554 81.9354C328.731 79.3341 327.095 76.9204 325.688 74.7139C321.505 74.4833 317.102 75.1016 312.503 76.2639C314.577 78.5121 316.86 81.0134 319.193 83.6333ZM331.721 81.7415C334.644 81.2449 337.515 80.7223 340.308 80.1925C336.195 76.9325 331.755 75.2911 327.023 74.8147C328.483 77.0716 330.105 79.4417 331.721 81.7415ZM341.705 79.9259C341.925 79.8836 342.141 79.8412 342.36 79.799C342.049 79.2814 341.741 78.7631 341.44 78.2435C339.644 75.1409 338.078 72.0195 337.13 69.1767C332.705 69.1689 328.265 69.3113 323.827 69.5337C324.523 70.8002 325.349 72.1797 326.262 73.6262C331.791 74.0119 336.954 75.8785 341.705 79.9259ZM336.281 65.6427C336.219 65.1632 336.184 64.6972 336.182 64.2488C334.061 65.0458 331.94 65.8262 329.82 66.6395C332.036 66.1949 334.189 65.8506 336.281 65.6427ZM337.337 65.5452C341.712 65.2075 345.813 65.523 349.656 66.8396C349.44 65.1409 349.664 63.6749 350.418 62.4304C348.08 62.0347 345.666 61.7713 343.193 61.6207C343.039 61.6766 342.883 61.7339 342.735 61.7884C340.908 62.4581 339.08 63.1621 337.252 63.8472C337.227 64.3811 337.257 64.9489 337.337 65.5452ZM340.454 61.4999C339.602 61.4762 338.743 61.4652 337.879 61.4654C337.676 61.8243 337.525 62.2162 337.421 62.6385C338.432 62.2606 339.443 61.8734 340.454 61.4999ZM345.667 60.7243C347.535 60.8978 349.365 61.1436 351.153 61.463C351.477 61.1188 351.838 60.7884 352.274 60.4861C352.281 60.4806 352.289 60.476 352.297 60.4709C350.648 60.3048 348.967 60.2037 347.267 60.1618C346.717 60.3524 346.183 60.54 345.667 60.7243ZM353.994 60.6656C353.613 60.8879 353.241 61.1189 352.884 61.3666C352.724 61.4776 352.6 61.6052 352.458 61.725C356.493 62.5415 360.296 63.7646 363.787 65.4871C363.99 65.2544 364.216 65.0322 364.476 64.8256C364.65 64.6874 364.843 64.5642 365.037 64.4428C363.85 63.61 362.604 62.8731 361.303 62.2233C358.998 61.5081 356.544 61.0001 353.994 60.6656ZM367.259 64.7672C369.131 66.2857 370.844 68.0579 372.374 70.1132C372.493 70.056 372.611 69.9992 372.73 69.9424C372.583 69.4958 372.427 69.0609 372.263 68.6359C370.807 67.1126 369.124 65.8322 367.259 64.7672ZM371.113 66.1006C370.781 65.4712 370.423 64.8726 370.043 64.3037C369.588 64.2951 369.145 64.3166 368.714 64.3634C369.553 64.8956 370.354 65.4735 371.113 66.1006ZM374.144 70.9158C374.242 71.2631 374.333 71.6181 374.421 71.9766C374.464 71.813 374.51 71.6472 374.551 71.4855C374.415 71.2941 374.278 71.1008 374.144 70.9158ZM375.322 72.7526C375.348 72.7334 375.374 72.7135 375.4 72.6938C375.385 72.6723 375.369 72.6506 375.354 72.6291C375.343 72.671 375.334 72.7109 375.322 72.7526ZM375.845 73.7063C375.934 73.7125 376.022 73.7192 376.109 73.7259C376.078 73.6788 376.044 73.6283 376.012 73.5813C375.957 73.6226 375.9 73.6646 375.845 73.7063ZM376.186 74.8098C376.63 75.1337 377.06 75.4608 377.486 75.7894C377.285 75.4823 377.083 75.1721 376.885 74.8748C376.654 74.8516 376.422 74.829 376.186 74.8098ZM374.895 78.0156C374.882 80.8291 374.815 83.6386 374.7 86.4428C375.234 86.6898 375.764 86.8938 376.277 86.9985C376.601 87.0647 376.915 87.1002 377.219 87.1063C376.536 84.0787 375.751 81.0483 374.895 78.0156ZM376.065 88.0485C375.598 87.9529 375.124 87.7924 374.647 87.5992C374.557 89.5829 374.441 91.5633 374.307 93.5412C375.967 96.0537 377.52 98.4736 378.948 100.784C379.221 100.787 379.493 100.782 379.759 100.759C379.128 96.5589 378.362 92.3596 377.441 88.1589C376.993 88.1697 376.537 88.1447 376.065 88.0485ZM379.593 101.84C379.736 102.075 379.877 102.308 380.019 102.541C379.985 102.302 379.949 102.063 379.914 101.824C379.808 101.833 379.699 101.834 379.593 101.84ZM376.798 115.397C375.284 115.092 373.782 114.569 372.306 113.879C371.914 117.019 371.495 120.148 371.057 123.265C373.108 120.655 375.089 118.029 376.954 115.421C376.901 115.411 376.85 115.408 376.798 115.397ZM370.663 126.026C370.797 126.093 370.931 126.167 371.066 126.23C370.947 126.046 370.832 125.858 370.714 125.672C370.697 125.79 370.68 125.908 370.663 126.026ZM368.721 126.192C363.508 123.292 358.569 118.829 354.31 114.176C352.804 117.178 351.302 120.247 349.836 123.351C353.452 127.47 357.426 131.458 361.577 134.723C363.974 131.95 366.379 129.09 368.721 126.192ZM362.46 135.399C364.171 136.695 365.908 137.864 367.66 138.862C368.256 134.967 368.849 131.05 369.423 127.113C367.143 129.922 364.802 132.698 362.46 135.399ZM349.345 124.399C348.77 125.626 348.204 126.858 347.644 128.093C350.261 132.464 353.027 136.838 356.009 141.038C357.613 139.252 359.246 137.409 360.887 135.521C356.807 132.305 352.905 128.421 349.345 124.399ZM344.88 134.383C343.754 137.036 342.676 139.686 341.678 142.314C343.777 144.8 345.946 147.24 348.156 149.589C349.895 147.732 351.732 145.749 353.628 143.668C350.584 140.771 347.649 137.613 344.88 134.383ZM341.258 143.446C340.391 145.769 339.589 148.072 338.857 150.341C340.184 151.945 341.538 153.546 342.912 155.133C344.306 153.672 345.825 152.072 347.437 150.356C345.33 148.121 343.263 145.805 341.258 143.446ZM336.541 158.461C336.194 159.882 335.882 161.284 335.618 162.657C335.637 162.679 335.655 162.702 335.674 162.725C336.328 162.023 337.118 161.191 338.017 160.248C337.523 159.653 337.031 159.057 336.541 158.461ZM334.52 162.798C332.65 160.517 330.814 158.25 329.03 156.016C330.339 158.871 331.625 161.738 332.891 164.615C333.061 164.824 333.231 165.034 333.4 165.243L334.264 164.273C334.347 163.784 334.426 163.295 334.52 162.798ZM332.936 167.378L332.015 168.412C332.521 169.081 333.029 169.75 333.539 170.42C333.568 169.951 333.598 169.481 333.641 169.002C333.407 168.46 333.172 167.919 332.936 167.378ZM334.53 171.721C334.744 172.002 334.958 172.283 335.174 172.564C334.965 172.075 334.753 171.588 334.543 171.099C334.533 171.31 334.537 171.511 334.53 171.721ZM334.493 173.446C334.501 174.913 334.602 176.317 334.779 177.667C336.585 181.516 338.373 185.352 340.148 189.174C340.994 189.974 341.933 190.686 342.965 191.306C340.958 186.377 338.922 181.436 336.842 176.502C336.057 175.484 335.273 174.466 334.493 173.446ZM344.444 192.1C344.603 192.176 344.749 192.263 344.911 192.336L344.718 192.77C345.552 194.823 346.381 196.872 347.208 198.917C347.885 199.269 348.566 199.613 349.256 199.944C350.943 200.751 354.047 201.853 357.755 203.068C351.868 195.675 345.595 187.782 339.373 179.771C341.087 183.883 342.776 187.996 344.444 192.1ZM343.611 192.889C342.753 192.455 341.949 191.97 341.197 191.433C341.369 191.803 341.543 192.177 341.715 192.547C342.4 194.024 343.1 195.523 343.79 197.009C344.431 197.388 345.078 197.758 345.731 198.118C345.027 196.377 344.32 194.634 343.611 192.889ZM344.829 198.845C345.999 200.777 347.176 202.7 348.358 204.619C348.18 204.177 347.997 203.727 347.819 203.286C347.334 202.087 346.849 200.884 346.363 199.682C345.847 199.41 345.338 199.13 344.829 198.845ZM348.081 206.204C348.995 208.154 349.913 210.106 350.837 212.061C351.522 213.311 352.206 214.562 352.897 215.808C352.169 214.023 351.447 212.25 350.727 210.473C349.839 209.057 348.962 207.628 348.081 206.204ZM362.324 235.624C362.862 235.836 363.388 236.042 363.913 236.247C362.624 234.48 361.432 232.732 360.361 231.011C361.012 232.553 361.664 234.089 362.324 235.624ZM357.15 227.652C355.504 227.417 353.861 227.157 352.237 226.871C351.685 228.203 351.138 229.538 350.594 230.876C354.182 232.366 357.606 233.755 360.826 235.032C359.591 232.581 358.363 230.123 357.15 227.652ZM351.157 226.677C345.607 225.652 340.35 224.313 336.158 222.557C323.877 217.414 313.157 209.7 303.531 200.635C301.809 202.612 300.09 204.594 298.374 206.581C305.445 210.282 312.409 213.723 318.968 216.833C329.799 221.971 340.24 226.56 349.605 230.465C350.119 229.2 350.636 227.937 351.157 226.677ZM302.751 199.897C287.963 185.772 275.767 168.484 264.479 152.474C261.353 148.041 258.396 143.849 255.455 139.825L228.455 155.451C241.819 173.757 270.298 191.817 297.398 206.071C299.178 204.007 300.963 201.95 302.751 199.897ZM254.809 138.96C245.64 126.694 233.131 119.524 217.814 117.569C216.442 118.265 215.075 118.954 213.726 119.616L213.159 119.895L212.977 119.289C212.933 119.141 212.903 118.989 212.862 118.841C204.026 121.697 195.384 124.136 186.942 126.154C186.379 126.711 185.838 127.284 185.318 127.871C203.174 130.893 217.017 139.685 227.81 154.585L254.809 138.96ZM182.128 127.267C181.99 127.298 181.854 127.326 181.717 127.356C181.847 127.372 181.978 127.387 182.108 127.403C182.115 127.358 182.122 127.313 182.128 127.267ZM182.294 126.129C182.545 124.528 182.868 122.939 183.251 121.36C176.932 123.275 170.572 125.115 164.169 126.854C169.103 126.588 173.796 126.635 178.257 127.001C179.597 126.721 180.943 126.431 182.294 126.129ZM160.92 128.147C159.411 128.894 158.008 129.706 156.788 130.599C162.473 129.888 168.259 128.969 174.15 127.829C169.943 127.666 165.534 127.776 160.92 128.147ZM157.971 128.501C157.011 128.751 156.048 128.995 155.087 129.24C154.865 129.787 154.643 130.332 154.424 130.889C154.53 130.877 154.636 130.863 154.742 130.85C155.687 130.004 156.774 129.223 157.971 128.501ZM153.801 129.566C150.768 130.333 147.728 131.08 144.677 131.799C147.5 131.595 150.348 131.336 153.224 131.019C153.414 130.528 153.608 130.048 153.801 129.566ZM148.737 129.722C146.04 130.221 143.342 130.796 140.701 131.369C139.355 131.66 137.998 131.951 136.637 132.235C137.17 132.216 137.704 132.197 138.24 132.174C141.751 131.39 145.25 130.573 148.737 129.722ZM202.933 72.7781C215.89 66.3002 230.785 62.7146 245.042 65.0695C243.012 64.1477 241.023 63.0991 239.076 61.9293C223.159 58.739 205.617 61.9271 190.101 68.1292C194.193 69.9846 198.468 71.5325 202.933 72.7781ZM253.801 67.1194C250.414 65.3499 246.836 63.9037 243.04 62.8607C246.504 64.6333 250.099 66.0267 253.801 67.1194ZM261.865 70.8408C261.868 70.8402 261.871 70.8396 261.874 70.8395C261.512 70.5378 261.152 70.2342 260.786 69.9393C260.693 69.9215 260.599 69.9071 260.507 69.8891C260.963 70.2003 261.416 70.5179 261.865 70.8408ZM275.269 76.1987C275.817 75.9606 276.365 75.7225 276.916 75.4844C275.625 74.7815 274.328 74.17 273.026 73.6561C273.781 74.4942 274.529 75.3409 275.269 76.1987ZM285.798 82.6198C286.004 82.5015 286.212 82.3838 286.418 82.2658C285.57 81.5235 284.715 80.8131 283.856 80.1345C284.508 80.9572 285.156 81.7853 285.798 82.6198ZM291.775 80.6104C291.926 80.5496 292.08 80.4873 292.232 80.4258C292.175 80.3775 292.12 80.331 292.063 80.2827C291.626 80.5304 291.188 80.7761 290.752 81.0237C291.091 80.8868 291.437 80.7477 291.775 80.6104ZM293.288 79.9997C293.843 79.7747 294.406 79.5478 294.963 79.3227C294.799 79.1928 294.633 79.0603 294.472 78.933C293.982 79.207 293.492 79.4808 293.004 79.7563C293.098 79.8381 293.193 79.9165 293.288 79.9997ZM294.181 80.7963C294.353 80.9521 294.527 81.1043 294.699 81.262C295.3 81.0221 295.897 80.7849 296.492 80.5497C296.302 80.3956 296.113 80.243 295.925 80.0916C295.345 80.3264 294.759 80.5625 294.181 80.7963ZM297.594 80.1197C302.034 78.3875 306.341 76.8359 310.5 75.6732C310.165 75.3103 309.845 74.9674 309.525 74.6219C305.329 76.3009 301.162 77.9746 297.018 79.6499C297.209 79.8049 297.401 79.9618 297.594 80.1197ZM311.662 75.3536C316.289 74.1358 320.727 73.4398 324.958 73.5588C324.504 72.8268 324.072 72.1149 323.68 71.4386C323.308 70.7955 322.969 70.1819 322.659 69.5928C322.499 69.6007 322.34 69.6086 322.18 69.617C318.303 71.134 314.441 72.6578 310.59 74.1965C310.941 74.5748 311.294 74.9557 311.662 75.3536ZM313.121 72.0318C312.366 72.2406 311.621 72.4487 310.855 72.6573C310.432 72.7723 309.962 72.8843 309.472 72.9937C309.586 73.1167 309.69 73.2281 309.807 73.3537C310.911 72.9127 312.014 72.472 313.121 72.0318ZM322.088 68.464C321.534 67.3184 321.128 66.299 320.887 65.417C318.25 66.599 315.644 67.8395 313.055 69.1094C315.929 68.9136 318.812 68.7265 321.7 68.5672C321.83 68.5331 321.96 68.498 322.088 68.464ZM323.081 68.1152C327.469 66.404 331.861 64.7255 336.261 63.0741C336.338 62.5029 336.469 61.9619 336.68 61.4654C334.317 61.4949 331.912 61.6128 329.478 61.7982C328.589 62.1438 327.693 62.4977 326.775 62.8762C325.11 63.5636 323.462 64.2872 321.816 65.0162C322.042 65.8677 322.482 66.92 323.081 68.1152ZM325.799 62.1309C325.312 62.1809 324.826 62.2287 324.338 62.284C323.616 62.4178 322.905 62.5547 322.205 62.6941C322.096 62.8011 321.99 62.9076 321.899 63.0134C321.718 63.2235 321.64 63.5339 321.644 63.9225C323.023 63.3141 324.406 62.7108 325.799 62.1309ZM350.378 59.1281C351.263 59.1905 352.143 59.2689 353.012 59.3675C352.311 59.2175 351.599 59.0859 350.879 58.9694C350.711 59.0223 350.544 59.0751 350.378 59.1281ZM361.464 61.0856C363.532 61.7264 365.489 62.5284 367.297 63.5202C367.923 63.3673 368.588 63.2747 369.281 63.244C367.84 61.3832 366.114 59.8911 364.099 58.7907C363.561 58.4967 362.999 58.2335 362.422 57.9922C360.49 58.2038 358.634 58.6369 356.918 59.2811C358.493 59.7809 360.011 60.3803 361.464 61.0856ZM371.828 64.4755C371.681 64.4492 371.536 64.4364 371.39 64.4165C372.065 65.5228 372.66 66.729 373.176 68.0321C373.535 68.4161 373.877 68.8175 374.209 69.231C374.517 69.0848 374.823 68.9321 375.131 68.787C375.315 67.7045 375.418 66.696 375.451 65.7521C374.335 65.1434 373.116 64.7052 371.828 64.4755ZM376.287 68.2539C376.816 68.0075 377.346 67.7666 377.875 67.5241C377.441 67.1137 376.983 66.7294 376.49 66.3903C376.451 66.9857 376.378 67.6116 376.287 68.2539ZM376.075 69.5398C375.969 70.1001 375.85 70.6717 375.708 71.2632C375.887 71.5172 376.072 71.7865 376.256 72.0503C377.382 71.1928 378.461 70.3313 379.512 69.4582C379.249 69.066 378.963 68.6925 378.654 68.3373C377.793 68.7312 376.934 69.1369 376.075 69.5398ZM376.864 72.9336C377.071 73.2372 377.279 73.5429 377.49 73.8579C379.061 74.0388 380.5 74.3111 381.811 74.6704C381.436 73.2255 380.871 71.7744 380.089 70.386C379.05 71.2456 377.974 72.0888 376.864 72.9336ZM378.277 75.0441C378.886 75.9703 379.508 76.9396 380.14 77.9463C380.91 78.6092 381.652 79.2785 382.36 79.9567C382.435 78.6666 382.346 77.2801 382.079 75.8631C380.928 75.515 379.66 75.242 378.277 75.0441ZM382.198 81.3096L382.21 81.3304C382.21 81.3279 382.211 81.3258 382.211 81.3232L382.198 81.3096ZM379.336 78.671C378.335 77.8114 377.281 76.9651 376.17 76.1333C377.917 79.055 379.511 81.9812 380.968 84.9169C381.337 84.3254 381.648 83.6399 381.879 82.8619C381.024 81.4081 380.173 80.0059 379.336 78.671ZM381.52 86.0268C383.27 89.6454 384.801 93.2828 386.145 96.9475C386.826 96.0272 387.38 94.9989 387.809 93.881C386.15 90.4837 384.383 87.188 382.606 84.1085C382.318 84.827 381.952 85.468 381.52 86.0268ZM380.73 86.8646C380.598 86.9813 380.472 87.1069 380.33 87.2098C379.777 87.6119 379.16 87.8751 378.508 88.0273C379.424 92.2182 380.188 96.4062 380.818 100.595C381.892 100.362 382.902 99.9176 383.837 99.2464C384.39 98.8497 384.89 98.4034 385.346 97.9173C384.008 94.2069 382.483 90.5258 380.73 86.8646ZM380.974 101.664C381.131 102.747 381.299 103.829 381.439 104.912C381.839 105.589 382.238 106.265 382.617 106.924C383.967 104.719 385.182 102.559 386.233 100.467C386.072 99.9881 385.916 99.5077 385.749 99.03C385.349 99.4161 384.927 99.7852 384.462 100.119C383.38 100.895 382.214 101.406 380.974 101.664ZM382.617 109.052C382.424 109.357 382.227 109.664 382.03 109.971C382.183 111.413 382.314 112.857 382.442 114.301C383.315 114.098 384.165 113.793 384.991 113.391C384.251 111.992 383.463 110.549 382.617 109.052ZM381.48 115.566C380.415 115.708 379.324 115.735 378.204 115.615C376.062 118.632 373.757 121.676 371.362 124.696C371.852 125.466 372.348 126.233 372.847 126.999C375.961 128.206 379.125 128.701 382.249 128.231C382.084 123.998 381.831 119.777 381.48 115.566ZM373.799 128.441C376.533 132.564 379.418 136.587 382.518 140.428C382.493 136.712 382.429 133.008 382.298 129.317C379.466 129.722 376.614 129.362 373.799 128.441ZM372.109 127.823C371.572 127.605 371.038 127.37 370.505 127.115C369.905 131.236 369.283 135.334 368.66 139.406C371.033 140.665 373.425 141.612 375.808 142.124C378.136 142.624 380.38 142.687 382.531 142.341C382.531 142.279 382.531 142.218 382.532 142.156C378.771 137.598 375.341 132.769 372.109 127.823ZM375.586 143.173C373.217 142.664 370.843 141.74 368.49 140.518C368.483 140.567 368.476 140.615 368.468 140.663C367.866 144.599 367.268 148.513 366.693 152.408C369.713 154.178 372.745 155.489 375.732 156.146C378.049 156.656 380.272 156.744 382.397 156.449C382.481 152.084 382.531 147.743 382.529 143.423C380.303 143.759 377.987 143.689 375.586 143.173ZM367.411 140.499C367.436 140.329 367.462 140.158 367.488 139.989C365.556 138.911 363.644 137.626 361.765 136.199C360.053 138.162 358.345 140.085 356.663 141.949C358.698 144.767 360.835 147.494 363.094 150.078C363.96 150.689 364.829 151.265 365.7 151.806C366.255 148.054 366.831 144.287 367.411 140.499ZM362.502 151.03C359.759 149.111 357.056 146.86 354.426 144.412C352.521 146.496 350.667 148.491 348.897 150.376C353.829 155.545 358.96 160.191 364.022 163.713C364.443 160.532 364.89 157.342 365.356 154.14C364.381 153.133 363.434 152.089 362.502 151.03ZM348.178 151.141C346.571 152.848 345.043 154.455 343.618 155.947C349.794 163.02 356.349 169.743 362.678 174.918C363.033 171.582 363.433 168.238 363.868 164.885C358.612 161.287 353.286 156.486 348.178 151.141ZM342.898 156.7C342.157 157.475 341.443 158.22 340.77 158.924C340.498 159.208 340.234 159.482 339.976 159.752C346.281 167.555 353.375 174.464 361.687 179.297C361.846 179.39 362.021 179.488 362.21 179.593C362.317 178.442 362.429 177.291 362.548 176.14C356.021 170.873 349.257 163.968 342.898 156.7ZM361.151 180.224C356.029 177.246 351.366 173.504 347.069 169.26C352.017 174.809 357.02 180.048 361.797 184.539C361.893 183.279 361.996 182.017 362.108 180.755C361.751 180.563 361.424 180.383 361.151 180.224ZM338.709 161.077C337.803 162.025 337.009 162.863 336.361 163.559C344.582 173.524 353.362 183.585 361.334 192.05C361.432 189.991 361.553 187.931 361.699 185.871C354.206 178.877 346.192 170.036 338.709 161.077ZM335.719 164.257C335.588 164.401 335.461 164.541 335.348 164.668L335.246 164.783C335.119 165.566 335.008 166.339 334.912 167.103C343.591 177.753 352.814 188.581 361.128 198.148C361.159 196.575 361.206 195.003 361.271 193.43C353.106 184.776 344.107 174.433 335.719 164.257ZM359.2 204.883C359.124 204.786 359.044 204.687 358.967 204.59C354.512 203.157 350.782 201.861 348.795 200.909C348.465 200.752 348.142 200.581 347.814 200.418C348.147 201.241 348.48 202.065 348.811 202.886C349.76 205.236 350.723 207.614 351.684 209.986C352.985 212.059 354.303 214.111 355.621 216.163C357.099 212.765 358.598 209.387 360.116 206.031C359.811 205.649 359.507 205.267 359.2 204.883ZM353.93 215.508C354.248 216.287 354.57 217.067 354.889 217.847C354.961 217.679 355.035 217.512 355.108 217.344C354.714 216.733 354.322 216.121 353.93 215.508ZM355.458 219.236C356.028 220.626 356.59 222.012 357.166 223.403C357.827 224.565 358.493 225.723 359.16 226.879C360.14 227.009 361.117 227.13 362.089 227.244C360.318 225.051 358.694 222.902 357.368 220.872C356.842 220.065 356.328 219.241 355.804 218.43C355.688 218.699 355.574 218.967 355.458 219.236ZM359.811 228.014C359.975 228.297 360.136 228.584 360.3 228.867C361.406 230.772 362.712 232.728 364.125 234.709C363.705 232.601 363.331 230.497 363.006 228.398C361.947 228.279 360.882 228.152 359.811 228.014ZM363.041 237.064C363.856 238.652 364.77 240.264 365.745 241.891C365.395 240.503 365.066 239.118 364.761 237.736C364.197 237.517 363.619 237.29 363.041 237.064ZM366.504 245.148C366.586 245.33 366.676 245.513 366.761 245.695L366.692 245.447C366.628 245.348 366.567 245.248 366.504 245.148ZM369.649 251.485C372.539 256.872 375.902 262.254 379.332 267.562C380.228 267.344 381.078 267.117 381.883 266.882C380.397 264.81 378.885 262.739 377.377 260.681C374.433 256.66 371.442 252.569 368.703 248.507C369.007 249.499 369.321 250.491 369.649 251.485ZM369.956 254.245L369.503 254.404C369.21 253.57 368.938 252.739 368.662 251.907C367.396 249.541 366.216 247.173 365.162 244.809C363.931 242.048 362.726 239.26 361.525 236.468C357.978 235.068 354.181 233.531 350.19 231.873C345.056 244.581 340.324 257.59 336.228 270.925C350.753 271.434 367.309 270.282 378.226 267.821C375.332 263.337 372.504 258.8 369.956 254.245ZM349.201 231.46C339.937 227.594 329.679 223.086 319.095 218.079C312.273 214.852 305.017 211.271 297.656 207.414C287.291 219.443 277.073 231.685 267.219 244.232C280.76 254.022 295.81 262.233 312.596 267.73C317.975 269.491 326.113 270.511 335.121 270.882C339.246 257.417 344.019 244.285 349.201 231.46ZM296.68 206.904C269.434 192.555 240.926 174.416 227.523 155.99L200.043 171.894C216.861 195.87 238.34 223.107 266.353 243.598C276.173 231.093 286.354 218.892 296.68 206.904ZM226.879 155.124C216.153 140.36 202.351 131.716 184.505 128.839C183.869 129.615 183.258 130.407 182.704 131.238L181.569 132.942L181.725 130.898C181.787 130.086 181.871 129.278 181.966 128.472C180.767 128.318 179.548 128.192 178.313 128.088C170.448 129.727 162.762 130.985 155.254 131.873C154.298 132.76 153.501 133.71 152.958 134.745C152.709 135.423 152.462 136.106 152.217 136.798L151.189 136.507C151.354 135.715 151.628 134.965 151.997 134.253C152.26 133.538 152.529 132.848 152.795 132.149C147.897 132.677 143.076 133.047 138.333 133.252C133.042 134.433 127.726 135.543 122.381 136.558C123.278 136.501 124.165 136.442 125.035 136.385C131.138 135.981 136.41 135.634 139.574 136.008C166.05 139.135 184.527 149.942 199.42 171.016L226.879 155.124ZM132.483 133.424C131.738 133.435 130.996 133.441 130.255 133.444C126.622 134.036 122.972 134.433 119.349 134.409L119.3 133.339C119.616 133.309 119.913 133.274 120.198 133.234C109.529 132.73 99.292 131.336 89.4941 129.05C89.4503 129.287 89.4281 129.52 89.4573 129.751C89.6068 130.941 90.8079 132.3 93.3526 134.163C97.1107 136.913 105.295 137.287 113.868 136.999C120.109 135.928 126.313 134.73 132.483 133.424ZM123.501 132.277C125.347 131.256 125.97 129.507 126.968 126.666C127.798 124.298 128.832 121.352 130.984 117.598C133.235 113.669 135.764 109.865 138.589 106.166C130.505 103.796 123.298 100.373 116.847 96.0693C107.996 104.877 100.403 114.109 94.5731 121.878C93.7283 123.003 92.9287 123.973 92.223 124.828C91.1696 126.103 90.3376 127.118 89.8666 128.021C100.554 130.505 111.769 131.922 123.501 132.277ZM139.303 105.256C145.389 97.4607 152.797 90.1284 161.711 83.0777C168.758 77.5044 177.642 72.2233 187.42 68.0814C183.142 65.9937 179.064 63.5611 175.174 60.778C163.673 64.3264 153.022 69.0442 144.423 74.1266C134.711 79.8661 125.673 87.3849 117.637 95.2908C124.065 99.5552 131.245 102.936 139.303 105.256ZM188.775 67.5093C203.859 61.3368 220.942 57.9533 236.685 60.4154C234.655 59.0564 232.68 57.5354 230.756 55.8559C213.597 52.6428 194.112 55.1078 176.5 60.3721C180.399 63.1006 184.488 65.476 188.775 67.5093ZM239.605 60.942C240.738 61.1751 241.866 61.4288 242.981 61.7268C248.373 63.1698 253.334 65.395 257.926 68.2113C258.228 68.2813 258.529 68.3519 258.832 68.4185C252.221 63.4134 244.898 59.4935 236.682 57.2193C235.474 56.8847 234.245 56.5935 233.009 56.3225C235.143 58.0558 237.345 59.5833 239.605 60.942ZM236.966 56.1865C246.055 58.7027 254.062 63.1786 261.214 68.9021C261.827 69.0171 262.444 69.1175 263.061 69.2195C253.977 60.967 243.609 54.4268 231.529 50.9114C229.679 50.3729 227.79 49.8976 225.874 49.4679C227.629 51.4383 229.441 53.2328 231.305 54.8683C233.223 55.236 235.112 55.6729 236.966 56.1865ZM262.938 70.3249C263.104 70.4647 263.273 70.6002 263.438 70.7416C263.859 70.7312 264.283 70.7392 264.708 70.7538C264.639 70.6872 264.569 70.6211 264.499 70.5548C263.979 70.4795 263.456 70.4094 262.938 70.3249ZM266.399 70.874C266.565 70.8923 266.731 70.9066 266.897 70.9282C266.895 70.9105 266.892 70.8936 266.89 70.8756C266.706 70.8539 266.52 70.8374 266.336 70.8144C266.356 70.8344 266.378 70.8539 266.399 70.874ZM268.197 72.2924C268.223 72.2743 268.25 72.2568 268.276 72.2392C268.244 72.2329 268.212 72.224 268.18 72.2177C268.186 72.2428 268.192 72.2678 268.197 72.2924ZM278.138 74.9577C278.157 74.9499 278.175 74.9422 278.194 74.934C277.419 74.0266 276.636 73.129 275.847 72.2398C275.103 72.4166 274.371 72.5875 273.638 72.7589C275.147 73.3699 276.648 74.1052 278.138 74.9577ZM277.034 71.9554C277.773 72.792 278.502 73.6397 279.228 74.4924C280.12 74.1121 281.016 73.7327 281.915 73.3558C280.46 72.6648 279.03 72.1356 277.638 71.8112C277.436 71.8595 277.236 71.9069 277.034 71.9554ZM279.96 75.3463C280.393 75.861 280.818 76.3858 281.247 76.9057C283.32 78.3184 285.369 79.9339 287.384 81.7137C288.651 80.9886 289.917 80.2635 291.192 79.5418C288.504 77.3007 285.806 75.3952 283.175 73.9908C282.098 74.4402 281.027 74.892 279.96 75.3463ZM285.364 73.0846C285.744 73.214 286.214 73.3236 286.78 73.4103C286.415 73.1979 286.101 73.0374 285.811 72.9021C285.662 72.9628 285.513 73.0238 285.364 73.0846ZM292.138 79.012C292.609 78.7458 293.083 78.4818 293.557 78.2169C291.748 76.8093 290.107 75.5931 288.735 74.6584C287.537 74.5767 286.497 74.4419 285.667 74.2502C287.811 75.5819 289.981 77.196 292.138 79.012ZM294.532 77.6698C296.561 76.5374 298.601 75.4161 300.653 74.3067C297.196 74.6401 293.607 74.8135 290.617 74.7414C291.816 75.5877 293.135 76.5787 294.532 77.6698ZM295.446 78.3872C295.648 78.5475 295.856 78.7154 296.061 78.8792C300.261 77.1812 304.487 75.4822 308.742 73.7796C308.573 73.5974 308.412 73.4241 308.248 73.2487C306.82 73.5257 305.208 73.7765 303.502 73.991C300.794 75.432 298.112 76.9014 295.446 78.3872ZM307.387 72.3235C307.311 72.2416 307.234 72.1586 307.159 72.0788C306.888 72.2189 306.619 72.3621 306.348 72.5029C306.702 72.4448 307.05 72.3855 307.387 72.3235ZM308.429 71.8725C308.491 71.9389 308.562 72.0151 308.624 72.0824C309.325 71.9363 309.984 71.7836 310.572 71.6232C312.095 71.2079 313.597 70.7906 315.077 70.3784C315.597 70.2335 316.113 70.0904 316.626 69.9478C314.593 70.0793 312.564 70.2182 310.54 70.359C309.741 70.7609 308.938 71.1569 308.143 71.5651C308.238 71.6677 308.332 71.768 308.429 71.8725ZM307.767 70.5511C307.589 70.5634 307.412 70.5759 307.234 70.5882C307.284 70.6415 307.335 70.6964 307.385 70.7506C307.513 70.685 307.639 70.6167 307.767 70.5511ZM309.038 69.3875C309.443 69.3595 309.85 69.3317 310.255 69.3035C313.686 67.5823 317.152 65.9156 320.668 64.3439C320.606 63.8246 320.624 63.3725 320.734 62.994C312.592 64.6938 306.27 66.6441 304.231 67.301C304.655 67.7922 305.395 68.6015 306.298 69.578C307.21 69.5149 308.123 69.4516 309.038 69.3875ZM338.439 59.213C338.745 58.9509 339.081 58.6975 339.439 58.4502C338.393 58.7397 337.328 59.0514 336.233 59.3998C336.966 59.3305 337.702 59.2678 338.439 59.213ZM350.888 57.8806C352.627 57.3472 354.347 56.8657 356.025 56.4589C352.595 56.1262 348.692 56.3933 344.282 57.281C346.555 57.3484 348.76 57.5456 350.888 57.8806ZM353.142 58.29C353.862 58.4418 354.572 58.6114 355.272 58.7991C356.816 58.1022 358.49 57.5832 360.241 57.243C359.795 57.1151 359.343 56.9938 358.875 56.8927C356.965 57.2637 355.027 57.7503 353.142 58.29ZM362.562 56.9038C364.996 56.6609 367.532 56.7546 370.058 57.204C368.964 56.8176 367.857 56.4898 366.752 56.2139C365.095 56.1103 363.29 56.2175 361.417 56.4717C361.809 56.6023 362.186 56.7528 362.562 56.9038ZM375.482 59.9594C376.178 61.3833 376.53 63.1146 376.529 65.1529C377.4 65.6879 378.207 66.3162 378.924 67.0419C379.803 66.6435 380.684 66.2515 381.564 65.8625C380.2 63.5927 378.388 61.7685 376.307 60.3231C376.039 60.193 375.757 60.0802 375.482 59.9594ZM382.562 65.4269C382.623 65.4001 382.685 65.3728 382.747 65.346C382.486 65.0195 382.201 64.7079 381.911 64.3988C382.141 64.733 382.356 65.0777 382.562 65.4269ZM382.111 66.7883C381.297 67.147 380.485 67.5139 379.672 67.8815C379.907 68.1658 380.126 68.4627 380.334 68.768C380.989 68.2063 381.627 67.6283 382.251 67.0394C382.202 66.9518 382.157 66.8709 382.111 66.7883ZM380.925 69.6813C381.891 71.3572 382.572 73.188 382.987 75.0264C384.755 75.6214 386.246 76.402 387.47 77.3598C385.69 73.4863 383.996 70.2326 382.791 68.0204C382.183 68.5872 381.56 69.1393 380.925 69.6813ZM383.223 76.2485C383.483 77.8718 383.535 79.4742 383.369 80.9536C385.555 83.1615 387.429 85.4438 389.019 87.7916C389.165 85.2268 388.951 82.5177 388.483 79.8656C387.28 78.3171 385.524 77.1089 383.223 76.2485ZM383.15 82.2711C383.117 82.4289 383.077 82.5822 383.039 82.7361C384.816 85.7812 386.597 89.0492 388.279 92.4363C388.536 91.5167 388.729 90.5558 388.856 89.5613C387.282 87.0534 385.396 84.6183 383.15 82.2711ZM388.45 95.1977C387.951 96.2691 387.33 97.2565 386.58 98.1443C386.69 98.4551 386.804 98.7654 386.912 99.0765C387.515 97.8003 388.053 96.5529 388.515 95.3393C388.493 95.2923 388.472 95.2448 388.45 95.1977ZM389.371 111.565C388.736 112.203 388.042 112.795 387.269 113.322C386.989 113.513 386.702 113.678 386.416 113.846C388.299 117.467 389.841 120.768 391.085 123.771C391.236 123.622 391.387 123.475 391.53 123.321C390.978 119.346 390.268 115.43 389.371 111.565ZM391.522 124.849C391.627 125.111 391.736 125.377 391.836 125.634C391.796 125.308 391.756 124.983 391.715 124.658C391.649 124.721 391.589 124.787 391.522 124.849ZM392.303 130.015C391.844 128.619 391.313 127.144 390.693 125.578C390.158 126.018 389.585 126.433 388.973 126.822C387.128 127.991 385.251 128.732 383.362 129.134C383.513 133.335 383.586 137.55 383.603 141.783C383.643 141.831 383.68 141.882 383.721 141.931C383.76 141.977 383.795 142.022 383.834 142.068C385.71 141.607 387.515 140.835 389.229 139.709C389.774 139.351 390.281 138.961 390.768 138.553C391.411 136.596 392.001 134.638 392.531 132.684C392.463 131.791 392.385 130.902 392.303 130.015ZM384.588 142.994C385.719 144.39 386.752 145.742 387.679 147.045C388.559 144.821 389.391 142.589 390.162 140.354C390.044 140.435 389.938 140.526 389.817 140.605C388.149 141.701 386.402 142.491 384.588 142.994ZM383.6 143.484C383.601 147.723 383.553 151.982 383.472 156.264C383.582 156.241 383.692 156.215 383.802 156.189C384.983 153.558 386.126 150.905 387.203 148.238C386.149 146.724 384.947 145.139 383.6 143.484ZM382.375 157.533C380.179 157.815 377.889 157.717 375.504 157.193C372.521 156.536 369.511 155.275 366.522 153.575C366.513 153.636 366.504 153.698 366.495 153.759C368.673 155.977 370.956 158.058 373.373 159.939C374.103 160.507 374.956 161.149 375.889 161.85C377.097 162.759 378.424 163.757 379.78 164.817C380.64 163.026 381.495 161.22 382.338 159.4C382.352 158.776 382.362 158.155 382.375 157.533ZM380.641 165.498C381.147 165.901 381.654 166.31 382.159 166.727C382.201 165.168 382.238 163.617 382.276 162.065C381.734 163.216 381.188 164.36 380.641 165.498ZM380.164 166.49C379.56 167.738 378.955 168.977 378.353 170.207C379.63 170.405 380.862 170.457 382.057 170.393C382.079 169.627 382.1 168.861 382.121 168.097C381.472 167.549 380.816 167.012 380.164 166.49ZM379.303 165.807C377.864 164.675 376.467 163.624 375.247 162.707C374.31 162.002 373.451 161.357 372.717 160.786C370.47 159.035 368.342 157.111 366.301 155.075C365.85 158.194 365.418 161.302 365.012 164.402C368.972 167.044 372.878 168.964 376.6 169.86C376.825 169.915 377.043 169.946 377.266 169.992C377.943 168.609 378.624 167.214 379.303 165.807ZM376.352 170.902C372.653 170.011 368.782 168.13 364.86 165.555C364.423 168.952 364.023 172.337 363.671 175.716C366.428 177.907 369.136 179.788 371.745 181.262C371.927 180.887 372.108 180.509 372.29 180.133C373.296 178.062 374.337 175.948 375.394 173.799C375.853 172.868 376.315 171.93 376.778 170.986C376.635 170.954 376.496 170.936 376.352 170.902ZM363.546 176.935C363.439 178.004 363.335 179.074 363.238 180.142C364.456 180.781 366.01 181.558 367.729 182.416C368.667 182.885 369.594 183.351 370.512 183.814C370.77 183.278 371.029 182.743 371.288 182.207C368.78 180.787 366.187 179.004 363.546 176.935ZM367.252 183.375C365.71 182.605 364.3 181.9 363.138 181.298C363.016 182.692 362.905 184.085 362.803 185.477C364.458 187.006 366.082 188.44 367.665 189.76C368.457 188.094 369.251 186.432 370.047 184.776C369.051 184.273 368.108 183.802 367.252 183.375ZM362.705 186.801C362.562 188.913 362.448 191.023 362.359 193.132C363.2 194.019 364.032 194.886 364.852 195.733C365.633 194.063 366.416 192.398 367.203 190.738C365.733 189.516 364.232 188.201 362.705 186.801ZM362.304 194.52C362.245 196.134 362.207 197.748 362.183 199.362C362.398 199.609 362.611 199.853 362.824 200.098C363.348 198.964 363.872 197.834 364.399 196.705C363.708 195.992 363.009 195.262 362.304 194.52ZM363.597 200.984C365.224 202.848 366.808 204.656 368.339 206.395C369.25 206.675 370.159 206.953 371.054 207.227C373.575 207.999 375.741 208.667 377.603 209.247C374.031 206.277 369.798 202.243 365.198 197.526C364.663 198.677 364.129 199.829 363.597 200.984ZM363.108 202.049C362.793 202.732 362.478 203.413 362.166 204.099C362.167 204.226 362.166 204.353 362.168 204.481C363.55 204.916 364.965 205.356 366.388 205.795C365.318 204.577 364.222 203.325 363.108 202.049ZM360.866 206.974C359.329 210.377 357.812 213.802 356.317 217.249C356.969 218.259 357.608 219.282 358.264 220.286C359.511 222.197 361.032 224.22 362.692 226.288C361.8 219.945 361.315 213.632 361.151 207.332C361.056 207.212 360.961 207.094 360.866 206.974ZM363.949 227.454C369.007 228.001 373.818 228.341 377.808 228.553C373.443 222.812 368.061 216.014 362.268 208.736C362.479 214.958 363.014 221.191 363.949 227.454ZM365.649 236.8C365.692 236.858 365.737 236.916 365.781 236.974C368.403 237.989 370.851 238.915 373.102 239.749C370.154 236.566 367.128 233.244 364.344 229.967C364.724 232.24 365.156 234.517 365.649 236.8ZM367.681 245.008C370.885 249.994 374.598 255.076 378.24 260.048C379.82 262.207 381.409 264.378 382.965 266.552C384.077 266.195 385.083 265.819 385.967 265.424C385.949 264.929 385.938 264.433 385.922 263.939C382.65 259.286 378.604 254.426 374.611 249.64C371.763 246.226 368.869 242.754 366.214 239.318C366.658 241.21 367.151 243.107 367.681 245.008ZM383.599 267.443C384.496 268.707 385.382 269.971 386.244 271.232C386.156 269.673 386.08 268.115 386.017 266.557C385.283 266.865 384.471 267.159 383.599 267.443ZM382.525 267.777C381.706 268.02 380.838 268.254 379.924 268.479C380.874 269.944 381.825 271.404 382.774 272.855C384.111 274.901 385.453 276.957 386.781 279.021C386.622 277.123 386.487 275.226 386.367 273.33C385.133 271.484 383.846 269.63 382.525 267.777ZM334.808 271.909C325.789 271.534 317.653 270.513 312.266 268.748C295.347 263.208 280.188 254.934 266.557 245.074C260.908 252.286 255.384 259.602 250.024 267.037C266.662 277.988 284.085 286.193 302.235 291.587C311.454 294.327 320.042 296.138 328.091 297.041C330.047 288.535 332.303 280.159 334.808 271.909ZM265.69 244.441C237.546 223.844 215.988 196.495 199.113 172.432L172.489 187.84C195.625 221.632 221.267 247.915 249.126 266.449C254.497 258.998 260.031 251.667 265.69 244.441ZM198.489 171.554C183.797 150.804 165.565 140.157 139.45 137.071C136.384 136.71 131.159 137.055 125.108 137.454C121.556 137.689 117.746 137.94 113.995 138.066C106.38 139.372 98.7112 140.488 90.9915 141.398C91.5983 141.456 92.1988 141.512 92.7856 141.566C96.8283 141.943 100.32 142.269 102.907 142.796C134.344 149.196 154.998 162.417 171.875 186.957L198.489 171.554ZM107.058 138.117C100.973 137.963 95.6552 137.175 92.7225 135.028C90.7609 133.592 89.5371 132.414 88.9039 131.32C88.6201 130.83 88.4545 130.355 88.3955 129.883C88.3485 129.512 88.3791 129.154 88.4502 128.796C78.135 126.315 68.3067 122.844 58.9766 118.377C57.9185 122.83 58.1582 127.314 60.5857 131.203C64.5234 137.564 75.735 139.723 85.9972 140.887C93.0608 140.138 100.081 139.207 107.058 138.117ZM88.7958 127.761C89.3019 126.69 90.2261 125.562 91.3975 124.144C92.0955 123.297 92.8871 122.339 93.7172 121.233C99.5386 113.474 107.114 104.261 115.946 95.454C108.306 90.2036 101.737 83.7089 96.02 76.2729C86.352 83.4598 76.8408 92.2648 67.7346 102.55C64.1519 106.596 60.7901 111.894 59.2538 117.311C68.5999 121.799 78.451 125.279 88.7958 127.761ZM175.404 59.5895C192.797 54.2955 212.081 51.6913 229.25 54.5133C227.482 52.8632 225.766 51.0529 224.098 49.0913C205.249 45.2199 183.639 46.2825 163.882 49.6587C167.528 53.3577 171.364 56.6668 175.404 59.5895ZM223.009 47.7802C221.437 45.8381 219.913 43.7482 218.44 41.4952C197.942 36.6384 174.915 35.7457 152.468 35.9576C155.784 40.6298 159.278 44.8883 162.972 48.7338C182.59 45.32 204.099 44.1479 223.009 47.7802ZM224.694 48.1202C227.118 48.6276 229.502 49.2066 231.826 49.8827C244.622 53.6065 255.503 60.6589 264.973 69.5248C265.582 69.6114 266.196 69.6837 266.81 69.7588C266.793 69.3883 266.773 69.0203 266.779 68.6379C255.495 57.4312 242.58 48.6074 227.191 43.8677C224.833 43.1415 222.427 42.4848 219.989 41.8793C221.505 44.1218 223.074 46.2007 224.694 48.1202ZM267.872 69.8945C267.929 69.9012 267.986 69.9086 268.043 69.9152C267.985 69.8555 267.926 69.7968 267.868 69.7378C267.87 69.7896 267.869 69.8432 267.872 69.8945ZM267.971 70.9952C267.975 71.0312 267.982 71.0659 267.987 71.1019C268.491 71.1916 268.995 71.2981 269.499 71.419C269.409 71.325 269.321 71.2287 269.231 71.1347C268.809 71.0939 268.391 71.0414 267.971 70.9952ZM271.422 71.9012C271.443 71.9237 271.465 71.946 271.486 71.9688C271.597 72.0043 271.708 72.0454 271.819 72.0827C272.636 71.8939 273.465 71.6999 274.297 71.5034C274.107 71.4935 273.917 71.4834 273.727 71.4724C272.929 71.5283 272.159 71.6666 271.422 71.9012ZM283.173 72.8304C283.273 72.7889 283.374 72.7469 283.474 72.7054C283.469 72.6593 283.458 72.6092 283.459 72.5682C283.464 72.1896 283.607 71.8932 283.854 71.704C282.803 71.7125 281.756 71.7117 280.712 71.7018C281.525 72.0262 282.345 72.4025 283.173 72.8304ZM285.683 71.7954C285.776 71.757 285.87 71.7189 285.963 71.6808C285.783 71.6841 285.602 71.6892 285.421 71.692C285.503 71.7207 285.595 71.7608 285.683 71.7954ZM286.986 72.4217C287.586 72.7486 288.25 73.1479 288.983 73.6274C292.767 73.8466 298.28 73.5623 303.159 72.9605C304.235 72.389 305.319 71.8268 306.402 71.2648C306.212 71.0605 306.033 70.8674 305.862 70.6833C300.177 71.0745 294.546 71.4325 289.011 71.6062C288.335 71.8762 287.66 72.1481 286.986 72.4217ZM304.927 69.6718C303.619 68.2509 303.099 67.6492 302.913 67.3287C302.79 67.1158 302.812 67.0245 302.843 66.8953L302.912 66.6088L303.19 66.515C303.624 66.3661 305.953 65.5805 309.538 64.5689C308.686 64.73 307.834 64.8945 306.983 65.0636C302.006 66.6718 296.995 68.4861 292.028 70.4181C296.282 70.2384 300.588 69.968 304.927 69.6718ZM358.951 55.8229C360.05 55.6133 361.12 55.4454 362.158 55.3258C361.448 55.226 360.748 55.1372 360.072 55.07C358.997 54.963 357.915 54.8869 356.831 54.8371C355.329 54.9179 353.854 55.0661 352.42 55.2669C354.776 55.2209 356.952 55.4046 358.951 55.8229ZM373.636 57.536C374.783 58.098 375.857 58.7138 376.842 59.3937C379.663 60.7792 382.025 62.6661 383.75 64.9076C383.946 64.824 384.141 64.7353 384.336 64.6517C381.902 60.8184 377.566 57.9562 371.78 56.3185C372.461 56.6481 373.082 57.0522 373.636 57.536ZM383.591 67.2535C384.474 68.8675 385.64 71.0797 386.923 73.7158C386.134 71.3475 385.186 69.1887 384.17 67.4346C384.076 67.2713 383.98 67.1215 383.885 66.9651C383.787 67.0619 383.689 67.1576 383.591 67.2535ZM390.055 83.3369C390.23 85.372 390.23 87.3954 390.013 89.327C390.066 89.4123 390.12 89.4971 390.172 89.5829C390.545 87.475 390.586 85.5326 390.239 83.795C390.177 83.6421 390.116 83.4887 390.055 83.3369ZM390.982 90.9726C391.983 92.7668 392.834 94.5947 393.545 96.4523C393.558 95.2566 393.511 94.0357 393.414 92.7994C392.839 90.8893 392.202 89.0007 391.528 87.1598C391.47 88.3724 391.279 89.6479 390.982 90.9726ZM390.579 92.5754C390.326 93.4722 390.022 94.3915 389.678 95.3284C390.816 97.752 391.883 100.218 392.852 102.688C393.095 101.633 393.269 100.535 393.382 99.4052C392.665 97.0816 391.733 94.8033 390.579 92.5754ZM393.48 104.329C394.127 106.066 394.718 107.8 395.241 109.52C395.055 106.943 394.671 104.401 394.064 101.904C393.91 102.738 393.712 103.544 393.48 104.329ZM392.667 123.649C392.928 125.582 393.152 127.53 393.339 129.493C394.076 126.362 394.64 123.245 394.986 120.157C394.362 121.411 393.593 122.579 392.667 123.649ZM392.745 135.894C392.642 136.234 392.539 136.573 392.433 136.914C392.547 136.785 392.668 136.661 392.777 136.528C392.766 136.317 392.756 136.104 392.745 135.894ZM389.572 151.914C389.085 151.072 388.526 150.196 387.932 149.301C387.037 151.489 386.102 153.666 385.138 155.828C386.617 155.358 388.043 154.695 389.403 153.802C389.704 153.605 389.987 153.393 390.262 153.173C390.042 152.758 389.82 152.343 389.572 151.914ZM383.167 168.999C383.155 169.434 383.143 169.87 383.131 170.306C383.552 170.254 383.966 170.176 384.376 170.09C383.98 169.724 383.578 169.359 383.167 168.999ZM381.768 180.93C381.836 178.311 381.909 175.698 381.982 173.091C381.997 172.549 382.012 172.013 382.027 171.473C380.687 171.537 379.299 171.446 377.866 171.202C377.36 172.233 376.855 173.258 376.355 174.275C375.298 176.422 374.258 178.533 373.253 180.605C373.064 180.995 372.876 181.388 372.686 181.779C375.144 183.085 377.507 184.018 379.729 184.477C380.405 184.617 381.056 184.696 381.693 184.743C381.718 183.47 381.733 182.218 381.768 180.93ZM379.515 185.527C377.215 185.052 374.769 184.084 372.228 182.726C371.975 183.25 371.721 183.774 371.468 184.299C375.207 186.199 378.695 188.045 381.599 189.778C381.615 188.474 381.647 187.137 381.672 185.816C380.971 185.766 380.256 185.68 379.515 185.527ZM371.004 185.261C370.173 186.989 369.344 188.724 368.518 190.464C373.419 194.462 377.887 197.314 381.561 198.452C381.554 196.011 381.567 193.534 381.592 191.035C378.326 189.049 374.425 186.998 371.004 185.261ZM382.634 198.741C382.719 198.76 382.806 198.785 382.89 198.802C385.032 199.237 386.783 198.957 388.094 197.97C388.527 197.644 388.559 197.345 388.538 197.121C388.516 196.879 388.421 196.618 388.259 196.339C387.517 195.057 385.386 193.419 382.658 191.693C382.637 194.065 382.625 196.421 382.634 198.741ZM381.571 199.574C377.737 198.466 373.106 195.551 368.056 191.443C367.251 193.141 366.45 194.846 365.651 196.556C371.293 202.339 376.356 207.081 380.284 210.091C380.806 210.257 381.286 210.411 381.746 210.56C381.651 206.959 381.59 203.301 381.571 199.574ZM379.923 211.098C377.095 210.197 373.835 209.2 370.743 208.253C370.393 208.145 370.042 208.038 369.691 207.93C374.624 213.524 378.926 218.336 382.18 221.951C382.018 218.827 381.891 215.655 381.793 212.44C381.2 212.04 380.578 211.594 379.923 211.098ZM380.012 229.708C381.082 231.132 382.067 232.466 382.964 233.707C382.859 232.415 382.755 231.122 382.662 229.815C381.849 229.787 380.958 229.751 380.012 229.708ZM376.904 242.277C379.783 245.381 382.486 248.32 384.753 250.985C384.485 248.909 384.241 246.812 384.007 244.703C382.103 244.094 379.708 243.278 376.904 242.277ZM385.025 252.968C382.282 249.641 378.713 245.797 375.049 241.85C374.938 241.731 374.823 241.606 374.71 241.485C372.369 240.633 369.802 239.675 367.017 238.607C369.673 242.047 372.576 245.53 375.432 248.954C379.167 253.432 382.807 257.805 385.865 261.994C385.834 260.792 385.811 259.59 385.793 258.388C385.521 256.594 385.269 254.784 385.025 252.968ZM387.421 272.983C387.879 273.671 388.327 274.358 388.767 275.044C388.165 272.113 387.599 269.16 387.074 266.181C387.163 268.447 387.279 270.715 387.421 272.983ZM390.193 284.423C390.557 285.011 390.916 285.6 391.273 286.189C391.094 285.456 390.904 284.726 390.73 283.991C390.557 284.136 390.377 284.28 390.193 284.423ZM327.852 298.09C319.774 297.175 311.165 295.357 301.932 292.614C283.664 287.185 266.133 278.928 249.395 267.906C244.277 275.032 239.316 282.273 234.542 289.639C253.049 301.146 272.717 309.86 293.495 315.7C304.17 318.7 314.095 320.677 323.373 321.668C324.585 313.697 326.094 305.841 327.852 298.09ZM248.498 267.316C220.52 248.695 194.777 222.304 171.561 188.378L147.508 202.298C172.383 239.7 201.208 268.709 233.631 289.073C238.411 281.698 243.376 274.45 248.498 267.316ZM170.946 187.494C154.25 163.25 133.805 150.179 102.696 143.846C100.165 143.33 96.7012 143.008 92.6893 142.634C90.5703 142.437 88.3094 142.225 85.998 141.965C77.1835 142.897 68.3015 143.549 59.3539 143.884C59.6164 143.956 59.8786 144.03 60.1414 144.103C62.634 144.794 65.2112 145.51 67.637 146.282C105.401 158.304 129.139 174.808 146.906 201.408L170.946 187.494ZM81.2796 141.356C72.1985 140.015 63.2522 137.543 59.6755 131.766C59.5908 131.629 59.5094 131.492 59.429 131.353C57.0194 127.19 56.8088 122.511 57.9495 117.879C47.7693 112.907 38.1858 106.742 29.2045 99.3909C27.2474 107.422 27.4296 115.456 29.8443 123.236C33.6186 135.382 44.5403 139.622 55.9372 142.918C64.4438 142.677 72.8923 142.148 81.2796 141.356ZM96.237 74.7719C106.66 67.1342 117.262 61.3736 127.744 57.7301C137.439 54.3601 149.15 51.2139 161.68 48.9619C157.981 45.0471 154.48 40.715 151.158 35.9692C142.481 36.0671 133.901 36.3227 125.597 36.5697C121.56 36.689 117.597 36.8069 113.731 36.9043C104.131 37.1426 92.0429 40.4001 79.9685 46.1135C84.518 56.5707 89.8345 66.2733 96.237 74.7719ZM214.869 33.2366C216.234 35.8501 217.655 38.2898 219.129 40.5631C221.971 41.2459 224.766 42.001 227.504 42.8439C242.778 47.5488 255.627 56.2048 266.857 67.2022C266.957 66.0022 267.16 64.7484 267.463 63.4425C254.896 51.2086 240.575 41.4682 223.706 35.9213C220.784 34.9607 217.833 34.0812 214.869 33.2366ZM268.36 64.3183C268.075 65.6821 267.911 66.9796 267.865 68.2123C268.481 68.8279 269.096 69.4437 269.702 70.0732C271.03 70.1986 272.366 70.3037 273.712 70.3838C273.84 70.3756 273.967 70.3627 274.097 70.3584C274.119 70.3578 274.141 70.36 274.163 70.3594C272.271 68.2873 270.336 66.274 268.36 64.3183ZM282.765 70.5725C282.685 70.592 282.606 70.611 282.525 70.6305C284.603 70.6305 286.696 70.5979 288.804 70.534C291.977 69.2689 295.175 68.046 298.377 66.8852C293.054 68.0763 287.813 69.3475 282.765 70.5725ZM321.931 61.4967C322.267 61.2134 322.652 60.9318 323.078 60.6523C320.836 61.1396 318.568 61.6942 316.281 62.3061C318.172 62.0068 320.055 61.7356 321.931 61.4967ZM331.85 58.0097C334.473 57.6568 337.044 57.4203 339.548 57.3157C340.912 56.9463 342.241 56.6209 343.525 56.3517C344.867 55.8293 346.352 55.3806 347.93 55.0021C342.003 55.4715 336.39 56.6025 331.85 58.0097ZM385.016 65.7983C384.897 65.9252 384.778 66.053 384.658 66.1786C386.629 69.3225 388.503 74.1362 389.481 79.2522C389.542 79.3899 389.601 79.5265 389.661 79.6649C390.07 80.2595 390.42 80.8923 390.696 81.5728C390.951 82.2044 391.141 82.8699 391.28 83.56C391.757 84.7622 392.225 85.9926 392.675 87.2456C391.199 79.2558 388.073 71.2608 385.016 65.7983ZM394.444 99.0312C395.285 101.74 395.844 104.505 396.166 107.314C396.003 103.966 395.413 100.455 394.553 96.9478C394.536 97.6511 394.501 98.3465 394.444 99.0312ZM396.29 128.652C396.846 125.603 396.779 122.202 396.256 118.605C395.875 122.927 395.059 127.309 393.921 131.709C394.141 132.46 394.342 133.189 394.518 133.891C395.34 132.324 395.94 130.581 396.29 128.652ZM394.386 145.9C394.801 143.576 394.804 140.549 394.053 136.626C393.991 136.708 393.937 136.795 393.874 136.875C394.044 140.234 394.122 143.645 394.116 147.112C394.22 146.719 394.312 146.316 394.386 145.9ZM392.985 151.906C392.567 152.456 392.098 152.964 391.587 153.436C392.087 154.438 392.51 155.403 392.85 156.329C392.91 154.843 392.951 153.371 392.985 151.906ZM386.491 170.63C388.745 172.887 390.552 175.199 391.298 177.388C391.66 173.816 391.975 170.308 392.233 166.864C391.576 167.714 390.741 168.467 389.708 169.108C388.681 169.745 387.606 170.246 386.491 170.63ZM390.68 183.201C390.718 182.866 390.752 182.537 390.789 182.203C390.396 182.777 389.903 183.317 389.243 183.8C387.379 185.163 385.197 185.838 382.741 185.852C382.712 187.382 382.682 188.916 382.665 190.424C386.052 192.523 388.459 194.435 389.281 196.059C389.726 191.803 390.194 187.52 390.68 183.201ZM387.521 214.654C387.225 214.72 386.901 214.742 386.536 214.696C385.581 214.577 384.347 214.039 382.881 213.144C382.99 216.56 383.145 219.911 383.327 223.225C384.661 224.703 385.771 225.929 386.629 226.873C386.882 222.817 387.181 218.745 387.521 214.654ZM386.445 229.915C385.714 229.903 384.81 229.883 383.739 229.85C383.871 231.712 384.011 233.563 384.168 235.395C384.859 236.378 385.488 237.296 386.05 238.146C386.156 235.408 386.29 232.665 386.445 229.915ZM388.462 244.905C388.351 244.188 387.841 243.075 387.005 241.634C386.976 242.593 386.951 243.551 386.929 244.508C387.597 244.701 388.124 244.839 388.462 244.905ZM385.126 245.055C385.329 246.871 385.535 248.685 385.763 250.477C385.777 248.742 385.803 247.007 385.84 245.27C385.61 245.201 385.379 245.133 385.126 245.055ZM390.094 261.749C390.161 260.886 389.735 259.729 388.934 258.345C388.394 257.411 387.675 256.37 386.83 255.249C386.836 256.269 386.848 257.289 386.863 258.309C387.175 260.363 387.499 262.408 387.846 264.436C387.937 264.379 388.046 264.325 388.132 264.267C389.37 263.441 390.029 262.593 390.094 261.749ZM392.8 278.534C392.456 275.277 390.818 271.623 388.446 267.759C389.051 271.08 389.691 274.378 390.394 277.641C391.028 278.684 391.636 279.724 392.214 280.758C392.658 280.012 392.878 279.268 392.8 278.534ZM396.804 295.593C396.155 291.5 394.427 287.171 392.064 282.722C391.929 282.87 391.788 283.017 391.639 283.164C392.127 285.242 392.638 287.312 393.167 289.374C394.464 291.604 395.698 293.838 396.847 296.076C396.832 295.915 396.83 295.755 396.804 295.593ZM400.372 323.916C402.565 320.381 403.224 316.714 402.327 313.018C401.253 308.587 399.537 304.13 397.425 299.671C396.504 302.265 394.429 304.671 391.702 306.859C393.08 313.926 394.785 321.043 396.877 328.238C398.245 326.869 399.432 325.429 400.372 323.916ZM361.54 345.186C370.364 343.215 387.321 337.487 396.504 328.602L395.917 328.772C393.835 321.643 392.139 314.593 390.757 307.593C380.848 314.984 363.93 319.715 361.226 320.438C350.148 323.403 337.91 324.195 324.277 322.839C323.192 330.13 322.355 337.514 321.8 344.997L320.732 344.915C321.288 337.423 322.127 330.029 323.211 322.728C313.887 321.729 303.92 319.743 293.208 316.732C272.322 310.862 252.555 302.103 233.958 290.537C229.774 297.022 225.735 303.605 221.874 310.3L220.946 309.762C224.813 303.057 228.858 296.465 233.047 289.971C200.486 269.519 171.546 240.389 146.58 202.835L127.365 213.955C170.279 280.47 223.851 322.814 286.606 339.807C317.144 348.075 340.955 349.784 361.54 345.186ZM29.5857 26.3226C15.817 47.048 0.0987526 81.6191 1.11699 110.844C1.88835 132.917 17.5483 139.289 35.6819 146.67C37.6115 147.455 39.5597 148.248 41.5099 149.07C83.1297 166.601 109.451 186.352 126.775 213.058L145.977 201.945C128.362 175.598 104.801 159.237 67.3141 147.303C64.9074 146.537 62.3401 145.824 59.8573 145.135C58.5061 144.76 57.1504 144.383 55.8001 143.994C46.8477 144.245 37.833 144.189 28.7517 143.758L28.7992 142.687C36.7495 143.064 44.6489 143.152 52.5012 143.002C43.7474 140.263 35.6118 136.583 31.0776 128.747C30.1759 127.188 29.4159 125.464 28.8222 123.551C26.2966 115.416 26.1435 107.016 28.2787 98.6345C21.268 92.8053 14.6266 86.2486 8.3629 78.9584L9.17283 78.2599C15.2839 85.3719 21.7563 91.7833 28.5853 97.495C30.3874 91.0529 33.5326 84.629 38.0259 78.353C48.0868 64.2975 63.2715 53.0175 78.5853 45.6107C72.7141 31.9166 68.1226 16.9832 64.1059 1.79456C51.3592 3.57802 39.9455 10.7294 29.5857 26.3226Z" fill="#5A5A5A"/>
</svg>
