<?xml version="1.0" encoding="UTF-8"?>
<svg id="Calque_1" data-name="Calque 1" xmlns="http://www.w3.org/2000/svg" viewBox="0 0 71.03 71.06">
  <defs>
    <style>
      .cls-1 {
        fill: #f39200;
      }
    </style>
  </defs>
  <path class="cls-1" d="M70.83,36.21c-.11.12-.66.3-.87.37-9.96,3.62-17.61,3.54-24.94,12.6-5.57,6.88-5.55,13.44-8.55,21.1-.4,1.02-1.35,1.05-1.83.08-2.5-7.84-3.69-15.71-9.34-22.07-6.72-7.56-15.25-9.11-24.54-11.83-.94-.36-1.05-1.45-.08-1.83,8.49-2.6,16.74-3.97,23.29-10.45,6.66-6.59,8.03-14.89,10.67-23.51.39-.97,1.47-.85,1.83.08,2.72,9.24,4.24,17.78,11.75,24.47,6.44,5.73,14.3,6.89,22.24,9.45.58.18.75,1.13.36,1.54Z"/>
</svg>