<svg width="25" height="25" viewBox="0 0 25 25" fill="none" xmlns="http://www.w3.org/2000/svg">
<path d="M24.9289 12.7408C24.8902 12.783 24.6966 12.8464 24.6227 12.871C21.1171 14.1446 18.4246 14.1164 15.8447 17.3039C13.8843 19.7243 13.8913 22.0323 12.8354 24.7272C12.6946 25.086 12.3603 25.0966 12.1913 24.7553C11.3114 21.9971 10.8926 19.2283 8.90399 16.9907C6.53879 14.331 3.53654 13.7857 0.266795 12.8288C-0.064051 12.7021 -0.102767 12.3186 0.238638 12.1849C3.22681 11.2702 6.13051 10.7882 8.43588 8.50847C10.78 6.19 11.2621 3.26994 12.1913 0.237288C12.3286 -0.103973 12.7087 -0.0617547 12.8354 0.265434C13.7928 3.51621 14.3278 6.52071 16.971 8.87436C19.2377 10.8903 22.0041 11.2984 24.7987 12.199C25.0028 12.2623 25.0627 12.5966 24.9254 12.7408L24.9289 12.7408Z" fill="white"/>
</svg>
